<svg xmlns="http://www.w3.org/2000/svg" width="2400" height="2453"><path fill="#FFF" d="M0 0c68.035-.411 136.07-.793 204.106-1.016l3.052-.01q32.834-.108 65.667-.2 16.103-.045 32.204-.092l3.237-.01c34.616-.102 69.231-.282 103.847-.503 35.576-.227 71.15-.374 106.727-.423l15.08-.023 2.997-.005c15.917-.028 31.831-.14 47.747-.282a4352 4352 0 0 1 48.018-.16c9.508.018 19.01-.03 28.517-.175 6.358-.09 12.712-.093 19.07-.025 3.622.036 7.233.035 10.853-.073 20.775-.587 20.775-.587 27.53 5.313 4.842 5.687 8.318 11.95 11.67 18.593 2.254 4.152 4.967 7.851 7.81 11.615 3.179 4.214 6.098 8.606 9.056 12.976l3.933 5.79 1.968 2.898a4508 4508 0 0 0 10.273 15.042c4.755 6.946 9.523 13.883 14.295 20.818q3.422 4.976 6.843 9.952l2.75 4 60.5 88 1.375 2 2.754 4.007 6.8 9.888a10300 10300 0 0 1 16.48 24.031 9131 9131 0 0 0 14.498 21.122q3.422 4.976 6.843 9.952l2.75 4 60.5 88 1.375 2 2.754 4.007 6.8 9.888a10300 10300 0 0 1 16.48 24.031 9131 9131 0 0 0 14.498 21.122q3.422 4.976 6.843 9.952l2.75 4 49.5 72 1.375 2 2.754 4.007 6.8 9.888a10300 10300 0 0 1 16.48 24.031 9131 9131 0 0 0 14.498 21.122q3.422 4.976 6.843 9.952l2.75 4 60.5 88 1.375 2 2.754 4.007 6.8 9.888a10300 10300 0 0 1 16.48 24.031 9131 9131 0 0 0 14.498 21.122q3.422 4.976 6.843 9.952l2.75 4 60.5 88 1.375 2 2.754 4.007 6.8 9.888a9833 9833 0 0 1 16.47 24.016 5639 5639 0 0 0 10.789 15.714c3.736 5.426 7.44 10.872 11.062 16.375 3.908-3.807 7.51-7.8 11.063-11.937l1.716-1.99c4.244-4.925 8.473-9.862 12.7-14.801 3.657-4.272 7.335-8.525 11.021-12.772A3973 3973 0 0 0 1389 837c6.689-7.82 13.397-15.62 20.142-23.392a3475 3475 0 0 0 15.374-17.874q4.49-5.246 8.986-10.486 3.735-4.355 7.463-8.713a3816 3816 0 0 1 17.177-19.927A3772 3772 0 0 0 1475 737c6.689-7.82 13.397-15.62 20.142-23.392A3772 3772 0 0 0 1512 694c6.689-7.82 13.397-15.62 20.142-23.392A3772 3772 0 0 0 1549 651c6.689-7.82 13.397-15.62 20.142-23.392A3772 3772 0 0 0 1586 608c6.689-7.82 13.397-15.62 20.142-23.392A3772 3772 0 0 0 1623 565c6.689-7.82 13.397-15.62 20.142-23.392a3475 3475 0 0 0 15.374-17.874q4.49-5.246 8.986-10.486 3.735-4.355 7.463-8.713a3816 3816 0 0 1 17.177-19.927A3772 3772 0 0 0 1709 465c6.689-7.82 13.397-15.62 20.142-23.392A3772 3772 0 0 0 1746 422c6.689-7.82 13.397-15.62 20.142-23.392A3772 3772 0 0 0 1783 379c6.689-7.82 13.397-15.62 20.142-23.392A3772 3772 0 0 0 1820 336c6.689-7.82 13.397-15.62 20.142-23.392a3475 3475 0 0 0 15.374-17.874q4.49-5.246 8.986-10.486 3.735-4.355 7.463-8.713a3816 3816 0 0 1 17.177-19.927A3772 3772 0 0 0 1906 236c6.689-7.82 13.397-15.62 20.142-23.392A3772 3772 0 0 0 1943 193c6.689-7.82 13.397-15.62 20.142-23.392A3772 3772 0 0 0 1980 150c6.689-7.82 13.397-15.62 20.142-23.392A3772 3772 0 0 0 2017 107c6.689-7.82 13.397-15.62 20.142-23.392A3772 3772 0 0 0 2054 64c6.689-7.82 13.397-15.62 20.142-23.392a3468 3468 0 0 0 15.348-17.843q3.94-4.604 7.885-9.202l2.836-3.31 1.318-1.5c1.49-1.724 1.49-1.724 2.746-3.572 3.524-4.785 3.524-4.785 6.672-5.822 2.314-.24 4.535-.26 6.86-.2l2.652-.019c2.926-.011 5.85.027 8.775.065q3.15.003 6.298-.003c5.696-.002 11.391.04 17.087.088 5.954.044 11.908.048 17.861.056 11.273.022 22.546.08 33.819.15 12.834.078 25.668.117 38.502.152 26.4.073 52.8.196 79.199.352q-1.405 1.89-2.812 3.777l-1.582 2.124c-2.444 3.193-5.074 6.208-7.731 9.224l-3.445 3.945-1.74 1.99A1229 1229 0 0 0 2297 30a2644 2644 0 0 1-12.5 14.5 3690 3690 0 0 0-17.016 19.766q-4.49 5.246-8.986 10.486-3.734 4.355-7.463 8.713a3816 3816 0 0 1-17.177 19.927A3772 3772 0 0 0 2217 123a4330 4330 0 0 1-20.142 23.392A3772 3772 0 0 0 2180 166a4330 4330 0 0 1-20.142 23.392A3772 3772 0 0 0 2143 209a4330 4330 0 0 1-20.142 23.392A3772 3772 0 0 0 2106 252a4330 4330 0 0 1-20.142 23.392A3772 3772 0 0 0 2069 295a4330 4330 0 0 1-20.142 23.392 3475 3475 0 0 0-15.374 17.874q-4.49 5.246-8.986 10.486-3.735 4.355-7.463 8.713a3816 3816 0 0 1-17.177 19.927A3772 3772 0 0 0 1983 395a4330 4330 0 0 1-20.142 23.392A3772 3772 0 0 0 1946 438a4330 4330 0 0 1-20.142 23.392A3772 3772 0 0 0 1909 481a4330 4330 0 0 1-20.142 23.392A3772 3772 0 0 0 1872 524a4330 4330 0 0 1-20.142 23.392 3475 3475 0 0 0-15.374 17.874q-4.49 5.246-8.986 10.486-3.735 4.355-7.463 8.713a3816 3816 0 0 1-17.177 19.927A3772 3772 0 0 0 1786 624a4330 4330 0 0 1-20.142 23.392A3772 3772 0 0 0 1749 667a4330 4330 0 0 1-20.142 23.392A3772 3772 0 0 0 1712 710a4330 4330 0 0 1-20.142 23.392A3772 3772 0 0 0 1675 753a4330 4330 0 0 1-20.142 23.392A3772 3772 0 0 0 1638 796a4330 4330 0 0 1-20.142 23.392 3475 3475 0 0 0-15.374 17.874q-4.49 5.246-8.986 10.486-3.735 4.355-7.463 8.713a3816 3816 0 0 1-17.177 19.927A3772 3772 0 0 0 1552 896a4330 4330 0 0 1-20.142 23.392A3772 3772 0 0 0 1515 939a4330 4330 0 0 1-20.142 23.392A3772 3772 0 0 0 1478 982a3984 3984 0 0 1-18.5 21.5 3295 3295 0 0 0-29.5 34.5c3.117 5.851 6.48 11.326 10.375 16.688a1008 1008 0 0 1 14.188 20.374l1.93 2.84 3.756 5.525c2.489 3.657 4.993 7.304 7.501 10.948l1.328 1.93 2.611 3.792q3.409 4.95 6.811 9.903l2.75 4 49.5 72 1.375 2 2.754 4.007 6.8 9.888a10300 10300 0 0 1 16.48 24.031 9131 9131 0 0 0 14.498 21.122q3.422 4.976 6.843 9.952l2.75 4 60.5 88 1.375 2 2.754 4.007 6.8 9.888a10300 10300 0 0 1 16.48 24.031 9131 9131 0 0 0 14.498 21.122q3.422 4.976 6.843 9.952l2.75 4 60.5 88 1.375 2 2.754 4.007 6.8 9.888a10300 10300 0 0 1 16.48 24.031 9131 9131 0 0 0 14.498 21.122q3.422 4.976 6.843 9.952l2.75 4 71.5 104 1.375 2 2.754 4.007 6.8 9.888a10300 10300 0 0 1 16.48 24.031 9131 9131 0 0 0 14.498 21.122q3.422 4.976 6.843 9.952l2.75 4 60.5 88 1.375 2 2.754 4.007 6.8 9.888a10300 10300 0 0 1 16.48 24.031 9131 9131 0 0 0 14.498 21.122q3.422 4.976 6.843 9.952l2.75 4 71.5 104 1.375 2 2.754 4.007 6.8 9.888a10300 10300 0 0 1 16.48 24.031 9131 9131 0 0 0 14.498 21.122q3.422 4.976 6.843 9.952l2.75 4 60.5 88 1.375 2 2.754 4.007 6.8 9.888a10300 10300 0 0 1 16.48 24.031 9131 9131 0 0 0 14.498 21.122q3.422 4.976 6.843 9.952l2.75 4 60.5 88 1.375 2 2.754 4.007 6.8 9.888a10300 10300 0 0 1 16.48 24.031 9090 9090 0 0 0 14.49 21.11l4.164 6.058 1.412 2.055 2.767 4.032a917 917 0 0 0 6.7 9.643l1.276 1.818q1.721 2.444 3.45 4.881C2400 2451 2400 2451 2400 2453c-68.067.154-136.134.297-204.201.381l-3.052.004q-32.825.04-65.65.075-16.097.015-32.193.034l-3.236.004c-34.63.038-69.26.106-103.89.189a57041 57041 0 0 1-121.804.167l-2.995.002c-15.929.01-31.857.052-47.786.105q-24.004.08-48.01.06c-9.515-.006-19.029.012-28.543.066q-9.526.05-19.053.01a729 729 0 0 0-10.865.027c-3.899.043-7.795.017-11.694-.017l-3.42.072c-7.443-.145-7.443-.145-10.828-3.15-1.789-2.269-3.31-4.544-4.78-7.029l-2.136-3.05-1.766-2.692-2.01-3.043-2.025-3.09c-4.553-6.933-9.198-13.752-14.11-20.437-3.19-4.39-6.224-8.882-9.265-13.376l-5.872-8.643c-2.51-3.69-5.035-7.368-7.566-11.044l-1.332-1.935-2.616-3.8a10920 10920 0 0 1-20.461-29.816 9131 9131 0 0 0-14.498-21.122q-3.422-4.976-6.843-9.952l-2.75-4-71.5-104-1.375-2-2.754-4.007-6.8-9.888a10300 10300 0 0 1-16.48-24.031 9131 9131 0 0 0-14.498-21.122q-3.422-4.976-6.843-9.952l-2.75-4-60.5-88-1.375-2-2.754-4.007-6.8-9.888a10300 10300 0 0 1-16.48-24.031 9131 9131 0 0 0-14.498-21.122q-3.422-4.976-6.843-9.952l-2.75-4-60.5-88-1.375-2-2.754-4.007-6.8-9.888a10300 10300 0 0 1-16.48-24.031 9131 9131 0 0 0-14.498-21.122q-3.422-4.976-6.843-9.952l-2.75-4-71.5-104-1.375-2-2.754-4.007-6.8-9.888a10300 10300 0 0 1-16.48-24.031 9131 9131 0 0 0-14.498-21.122q-3.422-4.976-6.843-9.952l-2.75-4-61.877-90.003-2.73-3.97a7928 7928 0 0 1-7.174-10.449l-1.506-2.195q-1.426-2.077-2.848-4.156c-1.76-2.567-3.515-5.098-5.428-7.555C1032 1504 1032 1504 1032 1502c-3.637 2.734-6.44 5.555-9.25 9.125-2.986 3.728-6.028 7.349-9.25 10.875a228 228 0 0 0-8.937 10.438c-3.86 4.772-7.935 9.293-12.09 13.808-3.22 3.586-6.232 7.321-9.258 11.07-2.88 3.49-5.922 6.814-8.969 10.157-2.308 2.597-4.502 5.261-6.683 7.965-3.86 4.772-7.935 9.293-12.09 13.808-3.22 3.586-6.232 7.321-9.258 11.07-2.88 3.49-5.922 6.814-8.969 10.157-2.308 2.597-4.502 5.261-6.683 7.965-3.86 4.772-7.935 9.293-12.09 13.808-3.22 3.586-6.232 7.321-9.258 11.07-2.88 3.49-5.922 6.814-8.969 10.157-2.308 2.597-4.502 5.261-6.683 7.965-3.86 4.772-7.935 9.293-12.09 13.808-3.22 3.586-6.232 7.321-9.258 11.07-2.88 3.49-5.922 6.814-8.969 10.157-2.308 2.597-4.502 5.261-6.683 7.965-3.86 4.772-7.935 9.293-12.09 13.808-3.22 3.586-6.232 7.321-9.258 11.07-2.171 2.631-4.417 5.163-6.715 7.684a234 234 0 0 0-9 10.5c-3.611 4.464-7.387 8.73-11.254 12.973-2.308 2.597-4.502 5.261-6.683 7.965-3.86 4.772-7.935 9.293-12.09 13.808-3.22 3.586-6.232 7.321-9.258 11.07-2.88 3.49-5.922 6.814-8.969 10.157-2.308 2.597-4.502 5.261-6.683 7.965-3.86 4.772-7.935 9.293-12.09 13.808-3.22 3.586-6.232 7.321-9.258 11.07-2.88 3.49-5.922 6.814-8.969 10.157-2.308 2.597-4.502 5.261-6.683 7.965-3.86 4.772-7.935 9.293-12.09 13.808-3.22 3.586-6.232 7.321-9.258 11.07-2.88 3.49-5.922 6.814-8.969 10.157-2.308 2.597-4.502 5.261-6.683 7.965-3.86 4.772-7.935 9.293-12.09 13.808-3.22 3.586-6.232 7.321-9.258 11.07-2.88 3.49-5.922 6.814-8.969 10.157-2.308 2.597-4.502 5.261-6.683 7.965-3.86 4.772-7.935 9.293-12.09 13.808-3.22 3.586-6.232 7.321-9.258 11.07-2.88 3.49-5.922 6.814-8.969 10.157-2.308 2.597-4.502 5.261-6.683 7.965-3.86 4.772-7.935 9.293-12.09 13.808-3.22 3.586-6.232 7.321-9.258 11.07-2.88 3.49-5.922 6.814-8.969 10.157-2.308 2.597-4.502 5.261-6.683 7.965-3.86 4.772-7.935 9.293-12.09 13.808-3.22 3.586-6.232 7.321-9.258 11.07-2.88 3.49-5.922 6.814-8.969 10.157-2.308 2.597-4.502 5.261-6.683 7.965-3.86 4.772-7.935 9.293-12.09 13.808-3.22 3.586-6.232 7.321-9.258 11.07-2.171 2.631-4.417 5.163-6.715 7.684a234 234 0 0 0-9 10.5c-3.611 4.464-7.387 8.73-11.254 12.973-2.308 2.597-4.502 5.261-6.683 7.965-3.86 4.772-7.935 9.293-12.09 13.808-3.22 3.586-6.232 7.321-9.258 11.07-2.88 3.49-5.922 6.814-8.969 10.157-2.308 2.597-4.502 5.261-6.683 7.965-3.86 4.772-7.935 9.293-12.09 13.808-3.22 3.586-6.232 7.321-9.258 11.07-2.88 3.49-5.922 6.814-8.969 10.157-2.308 2.597-4.502 5.261-6.683 7.965-3.86 4.772-7.935 9.293-12.09 13.808-3.22 3.586-6.232 7.321-9.258 11.07-2.88 3.49-5.922 6.814-8.969 10.157-2.308 2.597-4.502 5.261-6.683 7.965-3.86 4.772-7.935 9.293-12.09 13.808-3.22 3.586-6.232 7.321-9.258 11.07-2.88 3.49-5.922 6.814-8.969 10.157-2.308 2.597-4.502 5.261-6.683 7.965-3.86 4.772-7.935 9.293-12.09 13.808-3.22 3.586-6.232 7.321-9.258 11.07-2.88 3.49-5.922 6.814-8.969 10.157-2.308 2.597-4.502 5.261-6.683 7.965-3.86 4.772-7.935 9.293-12.09 13.808-3.22 3.586-6.232 7.321-9.258 11.07-2.88 3.49-5.922 6.814-8.969 10.157-2.308 2.597-4.502 5.261-6.683 7.965-3.86 4.772-7.935 9.293-12.09 13.808-3.22 3.586-6.232 7.321-9.258 11.07-2.88 3.49-5.922 6.814-8.969 10.157-2.308 2.597-4.502 5.261-6.684 7.965-4.013 4.97-8.246 9.671-12.593 14.347-1.996 2.052-1.996 2.052-2.969 4.215H0c1.81-3.621 3.35-5.658 6.063-8.562A227 227 0 0 0 15.5 2433.5c3.611-4.464 7.387-8.73 11.254-12.973 2.308-2.597 4.502-5.261 6.683-7.965 3.86-4.772 7.935-9.293 12.09-13.808 3.22-3.586 6.232-7.321 9.258-11.07 2.88-3.49 5.922-6.814 8.969-10.157 2.308-2.597 4.502-5.261 6.684-7.965 3.86-4.772 7.934-9.293 12.09-13.808 3.22-3.586 6.231-7.321 9.257-11.07 2.88-3.49 5.922-6.814 8.969-10.157 2.308-2.597 4.502-5.261 6.683-7.965 3.86-4.772 7.935-9.293 12.09-13.808 3.22-3.586 6.232-7.321 9.258-11.07 2.88-3.49 5.922-6.814 8.969-10.157 2.308-2.597 4.502-5.261 6.684-7.965 3.86-4.772 7.934-9.293 12.09-13.808 3.22-3.586 6.231-7.321 9.257-11.07 2.88-3.49 5.922-6.814 8.969-10.157 2.308-2.597 4.502-5.261 6.684-7.965 3.86-4.772 7.934-9.293 12.09-13.808 3.22-3.586 6.231-7.321 9.257-11.07 2.88-3.49 5.922-6.814 8.969-10.157 2.308-2.597 4.502-5.261 6.684-7.965 3.86-4.772 7.934-9.293 12.09-13.808 3.22-3.586 6.231-7.321 9.257-11.07 2.88-3.49 5.922-6.814 8.969-10.157 2.308-2.597 4.502-5.261 6.684-7.965 3.86-4.772 7.934-9.293 12.09-13.808 3.22-3.586 6.231-7.321 9.257-11.07 2.88-3.49 5.922-6.814 8.969-10.157 2.308-2.597 4.502-5.261 6.683-7.965 3.86-4.772 7.935-9.293 12.09-13.808 3.22-3.586 6.232-7.321 9.258-11.07 2.88-3.49 5.922-6.814 8.969-10.157 2.308-2.597 4.502-5.261 6.683-7.965 3.86-4.772 7.935-9.293 12.09-13.808 3.22-3.586 6.232-7.321 9.258-11.07 2.88-3.49 5.922-6.814 8.969-10.157 2.308-2.597 4.502-5.261 6.683-7.965 3.86-4.772 7.935-9.293 12.09-13.808 3.22-3.586 6.232-7.321 9.258-11.07 2.88-3.49 5.922-6.814 8.969-10.157 2.308-2.597 4.502-5.261 6.683-7.965 3.86-4.772 7.935-9.293 12.09-13.808 3.22-3.586 6.232-7.321 9.258-11.07 2.171-2.631 4.417-5.163 6.715-7.684a234 234 0 0 0 9-10.5c3.611-4.464 7.387-8.73 11.254-12.973 2.308-2.597 4.502-5.261 6.683-7.965 3.86-4.772 7.935-9.293 12.09-13.808 3.22-3.586 6.232-7.321 9.258-11.07 2.88-3.49 5.922-6.814 8.969-10.157 2.308-2.597 4.502-5.261 6.683-7.965 3.86-4.772 7.935-9.293 12.09-13.808 3.22-3.586 6.232-7.321 9.258-11.07 2.88-3.49 5.922-6.814 8.969-10.157 2.308-2.597 4.502-5.261 6.683-7.965 3.86-4.772 7.935-9.293 12.09-13.808 3.22-3.586 6.232-7.321 9.258-11.07 2.88-3.49 5.922-6.814 8.969-10.157 2.308-2.597 4.502-5.261 6.683-7.965 3.86-4.772 7.935-9.293 12.09-13.808 3.22-3.586 6.232-7.321 9.258-11.07 2.88-3.49 5.922-6.814 8.969-10.157 2.308-2.597 4.502-5.261 6.683-7.965 3.86-4.772 7.935-9.293 12.09-13.808 3.22-3.586 6.232-7.321 9.258-11.07 2.88-3.49 5.922-6.814 8.969-10.157 2.308-2.597 4.502-5.261 6.683-7.965 3.86-4.772 7.935-9.293 12.09-13.808 3.22-3.586 6.232-7.321 9.258-11.07 2.88-3.49 5.922-6.814 8.969-10.157 2.308-2.597 4.502-5.261 6.683-7.965 3.86-4.772 7.935-9.293 12.09-13.808 3.22-3.586 6.232-7.321 9.258-11.07 2.88-3.49 5.922-6.814 8.969-10.157 2.308-2.597 4.502-5.261 6.683-7.965 3.86-4.772 7.935-9.293 12.09-13.808 3.22-3.586 6.232-7.321 9.258-11.07 2.88-3.49 5.922-6.814 8.969-10.157 2.308-2.597 4.502-5.261 6.683-7.965 3.86-4.772 7.935-9.293 12.09-13.808 3.22-3.586 6.232-7.321 9.258-11.07 2.88-3.49 5.922-6.814 8.969-10.157 2.308-2.597 4.502-5.261 6.683-7.965 3.86-4.772 7.935-9.293 12.09-13.808 3.22-3.586 6.232-7.321 9.258-11.07 2.88-3.49 5.922-6.814 8.969-10.157 2.308-2.597 4.502-5.261 6.683-7.965 3.86-4.772 7.935-9.293 12.09-13.808 3.22-3.586 6.232-7.321 9.258-11.07 2.171-2.631 4.417-5.163 6.715-7.684a234 234 0 0 0 9-10.5c3.611-4.464 7.387-8.73 11.254-12.973 2.308-2.597 4.502-5.261 6.683-7.965 3.86-4.772 7.935-9.293 12.09-13.808 3.22-3.586 6.232-7.321 9.258-11.07 2.88-3.49 5.922-6.814 8.969-10.157 3.087-3.474 5.982-7.09 8.89-10.715a118 118 0 0 1 5.18-5.812l1.415-1.49a489 489 0 0 1 3.988-4.1c2.032-2.179 2.032-2.179 1.516-4.353-1.251-3.464-3.502-6.324-5.618-9.307l-3.031-4.34-1.567-2.23c-2.323-3.316-4.612-6.654-6.902-9.993l-2.742-3.988c-3.689-5.37-7.365-10.748-11.042-16.125a9131 9131 0 0 0-14.498-21.122q-3.422-4.976-6.843-9.952l-2.75-4-60.5-88-1.375-2-2.754-4.007-6.8-9.888a10300 10300 0 0 1-16.48-24.031 9131 9131 0 0 0-14.498-21.122q-3.422-4.976-6.843-9.952l-2.75-4-60.5-88-1.375-2-2.754-4.007-6.8-9.888a10300 10300 0 0 1-16.48-24.031 9131 9131 0 0 0-14.498-21.122q-3.422-4.976-6.843-9.952l-2.75-4-60.5-88-1.375-2-2.754-4.007-6.8-9.888a10300 10300 0 0 1-16.48-24.031 9131 9131 0 0 0-14.498-21.122q-3.422-4.976-6.843-9.952l-2.75-4-60.5-88-1.375-2-2.754-4.007-6.8-9.888a10300 10300 0 0 1-16.48-24.031 9131 9131 0 0 0-14.498-21.122q-3.422-4.976-6.843-9.952l-2.75-4-60.5-88-1.375-2-2.754-4.007-6.8-9.888a10300 10300 0 0 1-16.48-24.031 9131 9131 0 0 0-14.498-21.122q-3.422-4.976-6.843-9.952l-2.75-4-60.5-88-1.375-2-2.754-4.007-6.8-9.888a10300 10300 0 0 1-16.48-24.031 9131 9131 0 0 0-14.498-21.122q-3.422-4.976-6.843-9.952l-2.75-4-60.5-88-1.375-2-2.754-4.007-6.8-9.888a10300 10300 0 0 1-16.48-24.031 9131 9131 0 0 0-14.498-21.122Q101.92 149.976 98.5 145l-2.75-4-60.5-88-1.375-2-2.754-4.007a26548 26548 0 0 0-9.496-13.806l-1.342-1.95q-3.89-5.657-7.76-11.327l-1.775-2.6-3.421-5.016-1.577-2.31-1.39-2.04a90 90 0 0 0-3.032-4.068C0 2 0 2 0 0m289 160q1.664 2.633 3.331 5.263l1.874 2.96c2.217 3.43 4.587 6.706 7.045 9.964 4.272 5.748 8.387 11.581 12.424 17.495 3.634 5.32 7.313 10.606 11.014 15.88A6308 6308 0 0 1 340 233.5a9319 9319 0 0 0 20.282 29.048Q364.643 268.773 369 275l3.5 5 7 10 1.75 2.5 3.504 5.007q4.337 6.196 8.676 12.388a9749 9749 0 0 1 20.604 29.531 8721 8721 0 0 0 18.248 26.122Q436.643 371.773 441 378l3.5 5 21 30 1.75 2.5 3.504 5.007q4.337 6.195 8.676 12.388a9749 9749 0 0 1 20.604 29.531 8721 8721 0 0 0 18.248 26.122Q522.643 494.773 527 501l3.5 5 7 10 1.75 2.5 3.504 5.007q4.337 6.195 8.676 12.388a9749 9749 0 0 1 20.604 29.531 8721 8721 0 0 0 18.248 26.122Q594.643 597.773 599 604l3.5 5 21 30 1.75 2.5 3.504 5.007q4.337 6.195 8.676 12.388a9749 9749 0 0 1 20.604 29.531 8721 8721 0 0 0 18.248 26.122Q680.643 720.773 685 727l3.5 5 7 10 1.75 2.5 3.504 5.007q4.337 6.195 8.676 12.388a9749 9749 0 0 1 20.604 29.531 8721 8721 0 0 0 18.248 26.122Q752.643 823.773 757 830l3.5 5 21 30 1.75 2.5 3.504 5.007q4.337 6.195 8.676 12.388a9749 9749 0 0 1 20.604 29.531 8721 8721 0 0 0 18.248 26.122Q838.643 946.773 843 953l3.5 5 7 10 1.75 2.5 3.504 5.007q4.337 6.195 8.676 12.388a9749 9749 0 0 1 20.604 29.531 8721 8721 0 0 0 18.248 26.122q4.361 6.225 8.718 12.452l3.5 5 21 30 1.75 2.5 3.504 5.007q4.337 6.196 8.676 12.388a9749 9749 0 0 1 20.604 29.531 8721 8721 0 0 0 18.248 26.122q4.361 6.225 8.718 12.452l3.5 5 7 10 1.75 2.5 3.504 5.007q4.337 6.196 8.676 12.388a9749 9749 0 0 1 20.604 29.531 8721 8721 0 0 0 18.248 26.122q4.361 6.225 8.718 12.452l3.5 5 21 30 1.75 2.5 3.504 5.007q4.336 6.196 8.676 12.388a9749 9749 0 0 1 20.604 29.531A9434 9434 0 0 0 1152 1395a10961 10961 0 0 1 24.034 34.426 8721 8721 0 0 0 18.248 26.122q4.361 6.225 8.718 12.452l3.5 5 21 30 1.75 2.5 3.504 5.007q4.336 6.196 8.676 12.388a9749 9749 0 0 1 20.604 29.531 8721 8721 0 0 0 18.248 26.122q4.361 6.225 8.718 12.452l3.5 5 7 10 1.75 2.5 3.504 5.007q4.336 6.196 8.676 12.388a9749 9749 0 0 1 20.604 29.531 8721 8721 0 0 0 18.248 26.122q4.361 6.225 8.718 12.452l3.5 5 21 30 1.75 2.5 3.504 5.007q4.336 6.196 8.676 12.388a9749 9749 0 0 1 20.604 29.531 8721 8721 0 0 0 18.248 26.122q4.361 6.225 8.718 12.452l3.5 5 21 30 1.75 2.5 3.504 5.007q4.336 6.196 8.676 12.388a9749 9749 0 0 1 20.604 29.531 8721 8721 0 0 0 18.248 26.122q4.361 6.225 8.718 12.452l3.5 5 7 10 1.75 2.5 3.504 5.007q4.336 6.196 8.676 12.388a9749 9749 0 0 1 20.604 29.531 8721 8721 0 0 0 18.248 26.122q4.361 6.225 8.718 12.452l3.5 5 21 30 1.75 2.5 3.504 5.007q4.336 6.196 8.676 12.388a9749 9749 0 0 1 20.604 29.531 8721 8721 0 0 0 18.248 26.122q4.361 6.225 8.718 12.452l3.5 5 7 10 1.75 2.5 3.504 5.007q4.336 6.196 8.676 12.388a9749 9749 0 0 1 20.604 29.531 8721 8721 0 0 0 18.248 26.122 23992 23992 0 0 1 10.44 14.911 10838 10838 0 0 1 11.19 16.008q1.869 2.675 3.734 5.351l1.686 2.412 1.491 2.138c1.078 1.586 1.078 1.586 2.177 2.632a91 91 0 0 0 5.183.123l3.426.006 3.812-.009 4.011.003q5.538.002 11.076-.007 5.963-.005 11.924-.002 10.34 0 20.677-.008 14.947-.011 29.896-.012 24.249-.004 48.498-.019 23.562-.014 47.124-.02h2.932l14.56-.005q60.441-.016 120.881-.05l-3.324-5.244-1.87-2.95c-2.354-3.658-4.835-7.209-7.369-10.744l-3.136-4.414-1.634-2.297c-2.866-4.042-5.703-8.103-8.542-12.164l-3.562-5.093-1.79-2.559q-2.604-3.721-5.21-7.441a9621 9621 0 0 1-20.597-29.52 8721 8721 0 0 0-18.248-26.122q-4.361-6.225-8.718-12.452l-3.5-5-21-30-1.75-2.5-3.504-5.007q-4.336-6.196-8.676-12.388a9749 9749 0 0 1-20.604-29.531 8721 8721 0 0 0-18.248-26.122q-4.361-6.225-8.718-12.452l-3.5-5-7-10-1.75-2.5-3.504-5.007q-4.336-6.196-8.676-12.388a9749 9749 0 0 1-20.604-29.531 8721 8721 0 0 0-18.248-26.122q-4.361-6.225-8.718-12.452l-3.5-5-21-30-1.75-2.5-3.504-5.007q-4.336-6.196-8.676-12.388a9749 9749 0 0 1-20.604-29.531 8721 8721 0 0 0-18.248-26.122q-4.361-6.225-8.718-12.452l-3.5-5-7-10-1.75-2.5-3.504-5.007q-4.336-6.196-8.676-12.388a9749 9749 0 0 1-20.604-29.531 8721 8721 0 0 0-18.248-26.122q-4.361-6.225-8.718-12.452l-3.5-5-21-30-1.75-2.5-3.504-5.007q-4.336-6.196-8.676-12.388a9749 9749 0 0 1-20.604-29.531 8721 8721 0 0 0-18.248-26.122q-4.361-6.225-8.718-12.452l-3.5-5-7-10-1.75-2.5-3.504-5.007q-4.336-6.196-8.676-12.388a9749 9749 0 0 1-20.604-29.531 8721 8721 0 0 0-18.248-26.122q-4.361-6.225-8.718-12.452l-3.5-5-21-30-1.75-2.5-3.504-5.007q-4.336-6.196-8.676-12.388a9749 9749 0 0 1-20.604-29.531 8721 8721 0 0 0-18.248-26.122q-4.361-6.225-8.718-12.452l-3.5-5-7-10-1.75-2.5-3.504-5.007q-4.336-6.196-8.676-12.388a9749 9749 0 0 1-20.604-29.531 8721 8721 0 0 0-18.248-26.122q-4.361-6.225-8.718-12.452l-3.5-5-7-10-1.75-2.5-3.504-5.007q-4.336-6.196-8.676-12.388a9749 9749 0 0 1-20.604-29.531 8721 8721 0 0 0-18.248-26.122q-4.361-6.225-8.718-12.452l-3.5-5-21-30-1.75-2.5-3.504-5.007q-4.336-6.196-8.676-12.388a9749 9749 0 0 1-20.604-29.531 8721 8721 0 0 0-18.248-26.122q-4.361-6.225-8.718-12.452l-3.5-5-21-30-1.75-2.5-3.504-5.007q-4.336-6.195-8.676-12.388a9749 9749 0 0 1-20.604-29.531 8721 8721 0 0 0-18.248-26.122q-4.361-6.225-8.718-12.452l-3.5-5-7-10-1.75-2.5-3.504-5.007q-4.336-6.195-8.676-12.388a9749 9749 0 0 1-20.604-29.531 8721 8721 0 0 0-18.248-26.122q-4.361-6.225-8.718-12.452l-3.5-5-7-10-1.75-2.5-3.504-5.007q-4.336-6.195-8.676-12.388a9749 9749 0 0 1-20.604-29.531 8721 8721 0 0 0-18.248-26.122q-4.361-6.225-8.718-12.452l-3.5-5-21-30-1.75-2.5-3.504-5.007q-4.337-6.195-8.676-12.388a9749 9749 0 0 1-20.604-29.531 8721 8721 0 0 0-18.248-26.122Q923.357 603.227 919 597l-3.5-5-7-10-1.75-2.5-3.504-5.007q-4.337-6.195-8.676-12.388a9749 9749 0 0 1-20.604-29.531 8721 8721 0 0 0-18.248-26.122Q851.357 500.227 847 494l-3.5-5-7-10-1.75-2.5-3.504-5.007q-4.337-6.195-8.676-12.388a9749 9749 0 0 1-20.604-29.531 8721 8721 0 0 0-18.248-26.122Q779.357 397.227 775 391l-3.5-5-21-30-1.75-2.5-3.504-5.007q-4.337-6.195-8.676-12.388a9749 9749 0 0 1-20.604-29.531 8721 8721 0 0 0-18.248-26.122Q693.357 274.227 689 268l-3.5-5-7-10-1.75-2.5-3.504-5.007q-4.337-6.195-8.676-12.388A8807 8807 0 0 1 646 206.5c-13.828-19.898-13.828-19.898-27.812-39.687l-1.258-1.766c-1.829-2.636-1.829-2.636-3.93-5.047a91 91 0 0 0-5.183-.123l-3.426-.006-3.812.009-4.011-.003q-5.538-.002-11.076.007-5.963.005-11.924.002-10.34 0-20.677.008-14.947.011-29.896.012-24.249.004-48.498.019-23.562.014-47.124.02h-2.932l-14.56.005q-60.441.016-120.881.05"/></svg>