<svg xmlns="http://www.w3.org/2000/svg" width="500" height="500"><path fill="#30302C" d="M157 64h190c.684 6.158 1.176 12.08 1.281 18.242l.056 2.573q.086 4.03.163 8.06c.236 14.299.236 14.299 1.29 28.554.428 5.242.313 10.502.272 15.758l-.013 3.463q-.018 4.176-.049 8.35l1.693-.027c5.84-.089 11.68-.149 17.52-.193q3.266-.03 6.53-.082c3.138-.049 6.275-.071 9.413-.089l2.924-.062c7.332-.003 12.713 1.537 18.197 6.523l1.66 2.055 1.715 2.07c4.562 6.11 3.185 16.553 2.348 23.805-2.322 6.683-7.157 10.362-13 14l-3 2 1.531 1.023 1.969 1.352 1.969 1.336L403 204v2h2c6.13 8.035 9.916 15.83 10.754 25.852.213 2.395.213 2.395 1.246 5.585 1.262 4.497 1.645 8.92 2 13.563l1.688.445c9.34 2.746 16.896 8.405 22.312 16.555 1.963 4.243 3.53 8.564 5 13 1.364 4.11 1.364 4.11 2.781 8.203 1.654 4.71 2.797 9.313 3.594 14.242.665 2.718 1.733 5.122 2.867 7.672 1.281 3.183 1.995 6.483 2.758 9.82 1.02 4.296 2.037 8.52 3.688 12.625 1.352 3.543 1.787 6.695 2.312 10.438q.712 2.232 1.5 4.438c1.483 4.208 2.097 8.124 2.5 12.562h2c.153 6.956.257 13.91.33 20.868q.044 3.546.123 7.09c.073 3.41.107 6.816.133 10.226.03 1.047.062 2.094.094 3.173.003 7.56-1.942 11.831-6.68 17.643l-1.572 2.25L463 424h-2v2c-5.51 4.224-11.167 7.633-18 9v2H61v-2l-2.195-.332C49.612 432.478 40.274 424.723 35 417c-2.852-5.376-3.689-10.506-4.473-16.523L30 398l-2-1v-20h2l.332-3.148c1.033-9.278 2.602-17.674 6.078-26.387 2.012-5.342 3.267-10.858 4.59-16.402 1.568-6.546 3.182-12.98 5.45-19.323.65-1.754.65-1.754.55-3.74h2l.281-3.297c.693-5.537 2.462-10.676 4.219-15.953q.955-2.913 1.906-5.828l.854-2.575c.47-1.493.9-2.999 1.274-4.518.592-2.323 1.609-4.177 2.779-6.267l1.238-2.246c4.773-7.63 11.882-13.252 20.636-15.753L85 251l.184-1.687q.402-3.658.816-7.313l.254-2.344c.633-5.543.633-5.543 1.746-6.656.223-1.748.428-3.499.625-5.25 1.248-7.953 4.892-17.531 11.375-22.75h2v-2a125 125 0 0 1 6-4l-3-2a203 203 0 0 1-3.875-2.687l-1.992-1.387c-4.542-4.1-7.335-7.667-7.832-13.922q-.033-2.721.011-5.441l-.083-2.737c.024-6.872 1.947-10.952 6.771-15.826 4.533-3.852 8.471-6.088 14.471-6.205l2.73-.06 2.936-.051 3.014-.063q4.767-.097 9.537-.184l6.462-.13q7.926-.161 15.85-.307c.584-9.28 1.065-18.55 1.246-27.848l.05-2.53q.1-5.104.18-10.208C154.713 92.838 155.834 78.585 157 64"/><path fill="#F7FBFE" d="M161 70h182l2 45.438.633 14.118c.996 22.83 1.69 45.591 1.367 68.444q-13.575.106-27.15.155-6.306.022-12.61.071-6.098.048-12.197.059-2.312.008-4.625.032c-8.255.084-15.85-.222-23.837-2.629-4.486-1.196-8.964-1.176-13.581-1.125l-2.882.014c-7.834.164-15.019 1.24-21.804 5.475-3.254 1.333-6.074 1.192-9.586 1.188l-2.2.006q-2.36.004-4.72-.002c-2.499-.006-4.996.003-7.495.017-7.102.037-14.205.056-21.308.044q-6.523-.005-13.046.046-2.475.012-4.95-.004c-11.097-.069-20.041.746-28.478 8.712-3.63 4.695-4.055 10.3-5.031 16.004-2.165 10.561-2.165 10.561-5.051 13.535-3.84 2.379-8.106 3.269-12.449 4.402-8.63 7.221-10.797 21.405-13.812 31.914-2.05 7.117-4.34 14.122-7.188 20.961-5.479 13.718-9.473 29.31-4.5 43.875 3.968 7.937 10.446 11.701 18.594 14.523 7.316 1.83 14.596 1.876 22.091 1.878l3.354.013q5.546.019 11.09.025l7.965.026q8.566.027 17.132.045 12.393.029 24.784.07 20.115.063 40.23.118l2.43.006 36.611.098 2.43.007q20.05.054 40.1.119 12.363.039 24.728.067 8.465.018 16.929.047 4.885.016 9.771.025 5.292.01 10.584.032h3.131l2.86.015 2.467.007c2.196.128 4.1.57 6.219 1.129 8.172-.534 16.614-4.378 22.184-10.336 6.986-9.441 7.99-19.133 6.816-30.664-1.335-6.903-3.412-13.438-5.832-20.02-2.776-7.553-5.248-15.21-7.738-22.862-5.305-19.246-5.305-19.246-17.43-34.118q-2.56-1.13-5.125-2.25c-3.36-1.652-5.42-2.705-6.812-6.25-.698-2.521-1.173-5.058-1.68-7.625-1.998-9.696-4.66-15.453-12.82-21.25-3.78-2.357-7.218-3.7-11.563-4.625v-2c8.082.709 15.447 2.63 21 9 5.351 8.042 9 19.368 9 29l1.906.41c6.691 1.683 11.694 4.162 16.094 9.59 3.997 6.96 6.289 14.455 8.75 22.063q1.32 4.026 2.645 8.05l.664 2.025c2.35 7.143 4.83 14.24 7.34 21.327A720 720 0 0 1 422 306l.872 2.486c2.017 6.11 2.617 11.66 2.565 18.077l.061 2.67c-.007 9.414-3.34 16.238-9.717 23.048-9.782 9.44-22.447 9.873-35.281 9.846l-3.493.005q-4.779.004-9.558-.001c-3.441-.003-6.882.001-10.323.004q-10.104.005-20.208 0a26864 26864 0 0 0-23.54 0q-22.27.004-44.543-.006-19.104-.006-38.208.001a77964 77964 0 0 1-51.473.003q-8.2 0-16.403.003-9.996.004-19.993-.003-5.1-.005-10.198 0-5.53.002-11.06-.006l-3.248.007c-11.842-.031-22.728-1.937-31.756-10.337-7.343-8.82-9.325-19.654-8.496-30.797 1.222-8.951 4.452-17.286 7.595-25.702 3.552-9.54 6.742-19.193 9.903-28.868 6.82-20.743 6.82-20.743 11.69-24.805l2.367-1.988c2.436-1.631 4.47-2.367 7.257-3.2 2.325-.768 2.325-.768 4.188-2.437 1.498-3.68 2.367-7.284 3.18-11.16 2.065-9.67 5.44-17.14 13.882-22.653 4.983-3.048 9.108-3.399 14.938-3.187l3 1c.743-11.967 1.164-23.884 1.375-35.875.796-30.722 2.27-61.423 3.625-92.125"/><path fill="#2BB2E6" d="M140 199a368 368 0 0 1-6.562 6.438c-4.347 4.569-5.954 8.84-7.438 14.937-3.307 13.53-3.307 13.53-7.707 16.375l-3.106 1.25c-8.55 3.972-11.508 7.801-14.937 16.563-1.128 3.13-2.191 6.282-3.25 9.437l-1.126 3.333a3252 3252 0 0 0-7.034 21.11q-1.976 5.984-4.004 11.952l-.98 2.897q-.889 2.62-1.787 5.238c-4.206 12.463-4.611 24.322.931 36.47 3.336 5.884 6.924 9.122 13 12l3.5 1.688c7.188 2.695 14.396 2.457 21.98 2.446l3.487.007q4.77.007 9.54.004c3.435 0 6.87.006 10.305.01q10.088.012 20.174.012 8.202 0 16.404.006 23.27.013 46.54.012h5.068q20.34.002 40.679.023 20.9.023 41.8.02 11.727-.001 23.454.014 9.986.014 19.97.005 5.091-.006 10.181.005c3.686.008 7.371.003 11.057-.005l3.222.016c11.302-.052 24.096-1.505 32.577-9.7 6.867-7.577 8.41-14.839 8.375-24.813l.048-2.7c.005-6.553-1.21-11.893-3.361-18.05q-.678-2.01-1.352-4.023c-2.189-6.506-4.43-12.994-6.666-19.483l-.88-2.555-1.734-5.029a876 876 0 0 1-4.567-13.601l-.92-2.77a286 286 0 0 1-1.525-4.742c-2-5.96-5.294-10.688-10.516-14.285l-1.902-.825-1.91-.863c-2.086-.885-2.086-.885-4.553-1.58C382 235 382 235 380.96 232.88l-.586-2.607-.703-2.878-.672-3.02c-1.842-8.086-3.694-15.452-10.02-21.215l-1.793-1.097L364 200v-1c7.976-.46 14.456 3.08 20.531 8.086 10.155 9.91 15.011 18.314 17.324 32.168.872 5.134.872 5.134 3.145 9.746a399 399 0 0 0 6 3c5.359 3.896 9.985 8.747 14 14l1.145 1.49c4.66 6.68 6.616 14.427 8.918 22.135q.636 2.08 1.275 4.16c2.353 7.69 4.59 15.41 6.784 23.147 2.253 7.875 4.558 15.796 7.503 23.443 6.472 17.061 9.115 34.588 2.46 52.02-3.974 8.45-9.58 13.762-18.085 17.605-8.486 3.001-16.443 3.429-25.384 3.388q-2.144.006-4.287.016c-3.899.014-7.797.01-11.696.003-4.216-.005-8.431.008-12.647.018-8.247.017-16.494.018-24.742.013q-10.057-.006-20.114.002l-2.896.003-5.825.004c-18.19.014-36.38.009-54.57-.003-16.63-.01-33.26.003-49.89.027q-25.638.037-51.276.027c-9.59-.003-19.179 0-28.768.017q-12.243.022-24.486-.002a2180 2180 0 0 0-12.484.004q-5.722.02-11.443-.01c-2.023-.006-4.045.008-6.067.023-12.203-.098-23.416-3.412-32.175-12.307-6.878-8.409-9.053-18.39-9.062-29.036l-.007-3.342C47.577 354.52 52.337 341.423 57 328q1.115-3.292 2.219-6.586c.314-.931.628-1.862.95-2.822C61.29 315.094 62.175 311.578 63 308h2l-.176-2.453c.222-4.465 1.495-8.113 2.989-12.297a2873 2873 0 0 0 1.671-4.82l.807-2.322c.858-2.552 1.575-5.132 2.272-7.733 2.38-8.011 7.439-13.866 13.312-19.625l1.777-1.812c2.92-2.9 5.34-5.027 9.133-6.657 4.272-3.031 4.425-5.42 5.315-10.418l.463-3.113c1.265-8.178 2.865-13.544 8.437-19.75l2.422-2.977C120.786 205.646 128.37 198.742 140 199"/><path fill="#E1BF06" d="m147.563 251.438 3.248-.073c10.186.019 16.853 3.836 24.189 10.635 2.421 3.632 2.21 5.383 2.125 9.688l-.055 3.574L177 278h10l-.176-2.633c-.414-10.592-.414-10.592 2.238-13.93 8.476-7.032 17.218-10.014 28.125-9.937l2.785.013c7.564.188 14.57 1.227 21.028 5.487 1.758 2.559 1.758 2.559 3 5l1.25 1.875c1.191 3.375.638 5.693-.25 9.125-3.29 5.413-6.568 6.844-12.422 8.93-4.382 1.819-9.4 4.714-11.578 9.07-8.035.63-8.035.63-12.062-2L207 287c2.767 2.42 3.924 4.26 4.3 7.934.031 8.404.031 8.404-1.3 11.066h13l-1-1c-1.12-12.229-1.12-12.229 1.938-17.062 9.103-5.76 16.86-9.336 27.812-9.313l2.394.005c10.603.221 18.97 3.802 26.731 11.058 2.694 4.199 2.967 7.44 2.125 12.312l-2 4h13l-1-2c-.071-1.999-.084-4-.062-6l.027-3.25L293 292v-2l-1 1c-6.658.934-6.658.934-9.992-1.387a197 197 0 0 1-3.93-3.742c-2.148-1.934-4.205-3.17-6.765-4.496-4.404-2.304-8.03-4.807-10.313-9.375-.402-5.23.071-8.607 3-13 7.275-5.922 14.714-7.526 23.813-7.375l2.668.03c11.54.275 20.072 2.662 28.226 11.115 1.788 3.084 1.587 5.445 1.48 8.98l-.082 3.547L320 278h10l-.176-2.633c-.364-9.306-.364-9.306 1.926-13.805 8.878-8.467 20.15-9.86 31.723-9.703 11.066.282 17.913 3.247 26.25 10.676 2.647 3.037 2.565 6.543 2.48 10.414-.403 4.07-1.891 6.765-4.797 9.613-8.76 7.181-17.977 8.877-29.023 8.97-3.893-.612-5.572-1.839-8.383-4.532 2.895 2.319 3.922 3.42 4.426 7.164l-.113 3.461-.075 3.477C354 304 354 304 353 306l2.352-.176c10.416-.435 20.617 1.487 28.898 8.238 2.808 2.613 4.487 5.259 5.086 9.086.096 5.49-.62 8.55-4.336 12.852-8.414 8.04-17.172 9.196-28.25 9.313l-2.738.087c-8.967.084-15.913-2.952-23.012-8.4-2.698-2.787-3.906-4.345-4.46-8.227.027-1.121.056-2.243.085-3.398l.04-3.414C327 319 327 319 329 316l-1 1a153 153 0 0 1-6.562.063l-3.63-.028L315 317l.973 1.7c2.012 4.505 1.956 9.648.328 14.296-3.746 6.253-11.423 9.575-18.205 11.562-10.33 2.179-23.921 1.858-33.096-3.558-4.285-3.053-8.02-6.013-10-11-.426-5.365-.513-8.694 3-13a120 120 0 0 1 7-6c-4.221 2.722-4.221 2.722-8 6-2.715.23-2.715.23-5.937.188l-3.215-.02C245 317 245 317 242 316l2 2.563c2.318 3.984 2.567 5.902 2 10.437-2.16 6.225-6.43 10.148-12.19 13.136-6.343 2.692-11.82 3.536-18.685 3.426l-2.914-.026c-10.324-.296-18.824-3.15-26.211-10.536-2.227-3.34-2.271-4.533-2.25-8.437l-.016-2.872C184 321 184 321 186 317h-14l2 3c.763 5.042.946 10.332-1.75 14.813-4.865 5.818-13.833 9.686-21.334 10.38-13.625.493-25.078.168-35.916-9.193-3.502-3.985-3.642-8.171-3.457-13.285.775-4.602 2.75-6.978 6.457-9.715 12.3-7.147 12.3-7.147 19.23-7.098l2.432.01 2.525.026 2.561.013q3.126.02 6.252.049l-.965-2.262c-1.392-3.684-1.993-6.915-1.035-10.738 2.04-2.985 4.395-5.501 7-8-2.683 2.985-5.247 5.577-9.234 6.54-9.641.346-19.87-2.796-27.243-9.048-3.506-3.434-4.693-6.077-4.96-10.93.227-5.956 2.936-9.061 7.062-13.187 7.8-6.039 16.353-7.036 25.938-6.937"/><path fill="#132F7D" d="M112.563 148.886h2.79l3.002.016 3.082.005c3.25.005 6.5.018 9.75.03q3.304.008 6.608.014 8.102.017 16.205.049v2l-3.912.012c-4.816.022-9.632.077-14.447.14q-3.12.036-6.239.044c-3 .009-5.997.05-8.996.097l-2.791-.012C111.2 151.424 107.01 152.96 102 157c-5.165 5.51-5.38 11.603-5.25 18.836.434 5.49 1.979 8.652 5.563 12.914 5.911 4.95 10.805 5.707 18.242 5.762l2.732.054c2.862.054 5.725.088 8.588.121q2.922.05 5.844.104 7.14.125 14.281.209c-5.003 2.55-9.691 3.966-15.25 4.75-13.244 2.413-21.521 12.308-29.469 22.441-1.65 3.62-2.163 7.16-2.812 11.071-2.257 13.225-2.257 13.225-5.559 17.347-2.41 1.516-2.41 1.516-5.012 2.809-3.875 2.115-6.675 4.907-9.773 8.02l-1.658 1.596c-7.073 7.088-9.444 15.498-12.092 24.966l-.906 3.156A438 438 0 0 0 65 308h-2l-.297 1.695c-1.788 9.59-4.472 18.888-7.742 28.07-5.992 17.28-10.07 36.056-3.836 53.922 5.015 10.309 11.994 15.336 22.687 19.375 5.878 1.623 12.031 1.22 18.078 1.205l4.272.014c3.904.012 7.808.012 11.712.01 4.214 0 8.428.01 12.642.02q12.381.023 24.762.023 10.067.001 20.135.012 28.56.026 57.119.025h6.222c16.643-.001 33.285.018 49.927.046q25.647.043 51.295.04c9.595 0 19.19.005 28.786.027q12.256.028 24.514.009c4.166-.006 8.331-.007 12.497.01q5.73.024 11.462-.004a600 600 0 0 1 6.064.027c12.418-.093 24.464-2.703 33.701-11.526 2.052-2.865 3.574-5.786 5-9l1.055-1.95c7.56-16.4 1.34-36.959-4.055-53.05a407 407 0 0 0-1.5-3.973c-1.587-4.155-2.844-8.376-4.062-12.652-1.388-4.829-2.833-9.613-4.438-14.375-.827-2.579-1.644-5.16-2.462-7.742q-1.396-4.4-2.8-8.797c-.994-3.116-1.98-6.234-2.945-9.36l-.98-3.101-.793-2.563c-2.27-5.425-5.985-9.738-9.895-14.062-.822-.92-1.645-1.84-2.492-2.79-3.444-3.381-7.094-5.81-11.399-7.976-2.986-2.151-3.243-3.8-3.984-7.359l-.707-3.254a110 110 0 0 1-.98-6.684c-1.382-8.132-5.52-14.191-11.125-20.062l-1.881-1.977c-7.854-7.955-15.494-10.57-26.514-11.816-3.188-.479-6.018-1.358-9.043-2.457v-1l3.653-.044c4.493-.058 8.986-.136 13.48-.218q2.91-.051 5.822-.084c2.798-.034 5.595-.086 8.393-.142l2.608-.02c6.142-.148 11.26-1.002 16.005-5.246l1.414-1.809 1.46-1.816c2.771-3.858 2.423-7.725 2.478-12.309l.087-2.396c.06-5.52-.532-9.781-4.4-13.916-8.475-7.41-21.108-5.784-31.625-5.813a2634 2634 0 0 1-5.934-.076c-4.813-.062-9.627-.095-14.441-.111v-2c6.404-.102 12.809-.172 19.214-.22q3.264-.03 6.53-.082c3.137-.049 6.274-.071 9.412-.089l2.924-.062c7.332-.003 12.713 1.537 18.197 6.523l1.66 2.055 1.715 2.07c4.562 6.11 3.185 16.553 2.348 23.805-2.322 6.683-7.157 10.362-13 14l-3 2 1.531 1.023 1.969 1.352 1.969 1.336L403 204v2h2c6.13 8.035 9.916 15.83 10.754 25.852.213 2.395.213 2.395 1.246 5.585 1.262 4.497 1.645 8.92 2 13.563l1.688.445c9.34 2.746 16.896 8.405 22.312 16.555 1.963 4.243 3.53 8.564 5 13 1.364 4.11 1.364 4.11 2.781 8.203 1.654 4.71 2.797 9.313 3.594 14.242.665 2.718 1.733 5.122 2.867 7.672 1.281 3.183 1.995 6.483 2.758 9.82 1.02 4.296 2.037 8.52 3.688 12.625 1.352 3.543 1.787 6.695 2.312 10.438q.712 2.232 1.5 4.437c1.483 4.21 2.097 8.125 2.5 12.563h2c.153 6.956.257 13.91.33 20.868q.044 3.546.123 7.09c.073 3.41.107 6.816.133 10.226.03 1.047.062 2.094.094 3.173.003 7.56-1.942 11.831-6.68 17.643l-1.572 2.25L463 424h-2v2c-5.51 4.224-11.167 7.633-18 9v2H61v-2l-2.195-.332C49.612 432.478 40.274 424.723 35 417c-2.852-5.376-3.689-10.506-4.473-16.523L30 398l-2-1v-20h2l.332-3.148c1.033-9.278 2.602-17.674 6.078-26.387 2.012-5.342 3.267-10.858 4.59-16.403 1.568-6.545 3.182-12.98 5.45-19.322.65-1.754.65-1.754.55-3.74h2l.281-3.297c.693-5.537 2.462-10.676 4.219-15.953q.955-2.913 1.906-5.828l.854-2.575c.47-1.493.9-2.999 1.274-4.518.592-2.323 1.609-4.177 2.779-6.267l1.238-2.246c4.773-7.63 11.882-13.252 20.637-15.754L85 251l.184-1.688q.402-3.657.816-7.312l.254-2.344c.633-5.543.633-5.543 1.746-6.656.223-1.748.428-3.499.625-5.25 1.248-7.953 4.892-17.531 11.375-22.75h2v-2a125 125 0 0 1 6-4l-3-2a203 203 0 0 1-3.875-2.688l-1.992-1.386c-4.542-4.1-7.335-7.667-7.832-13.922q-.034-2.721.012-5.442l-.084-2.736c.024-6.872 1.947-10.952 6.771-15.826 4.578-3.89 8.495-6.13 14.563-6.114"/><path fill="#6D6F6F" d="M157 64h190c.684 6.158 1.176 12.08 1.281 18.242l.056 2.573q.086 4.03.163 8.06c.237 14.268.237 14.268 1.29 28.491.445 5.595.312 11.213.272 16.822l-.013 3.751q-.018 4.53-.049 9.061l3.697-.08c4.566-.09 9.131-.147 13.698-.195q2.954-.037 5.906-.102c22.479-.484 22.479-.484 30.433 7.011 3.917 4.375 3.742 9.92 3.829 15.491l.045 2.352c-.114 6.242-2.03 9.827-6.39 14.386l-1.718 1.45-1.719 1.488c-4.173 2.81-9.042 2.393-13.906 2.48l-2.375.056c-3.346.078-6.691.146-10.037.215q-3.669.08-7.338.167l-2.286.04c-3.403.081-6.582.188-9.839 1.241v2l1.688.227c7.609 1.31 12.366 4.667 17.625 10.21 2.808 4.265 4.622 8.514 5.433 13.536 1.128 8.057 1.128 8.057 5.969 14.187q3.141 1.456 6.37 2.703c5.612 2.189 8.493 5.872 11.04 11.2 1.403 3.53 2.558 7.088 3.645 10.726 2.195 7.2 4.607 14.312 7.067 21.424q1.095 3.171 2.184 6.344c2.79 8.114 2.79 8.114 5.745 16.17 3.98 10.553 5.625 23.545 1.261 34.222-4.993 9.967-11.4 15.395-22.027 19.051a84 84 0 0 1-5.812.625l-2.958.227L387 360v-1l-269-1v-1l1.742-.002a73367 73367 0 0 0 114.61-.206l2.472-.005c13.196-.031 26.392-.048 39.588-.06q20.325-.02 40.65-.082a7821 7821 0 0 1 25.063-.036q8.605-.001 17.21-.041 4.958-.023 9.914-.014c22.536.622 22.536.622 42.067-9.284 6.584-8.875 7.05-18.476 6.148-29.145C415.92 307.726 411.74 297.77 408 288q-.916-2.425-1.828-4.852-1.473-3.897-2.973-7.785c-1.137-3.188-1.996-6.318-2.762-9.613-2.265-9.514-4.667-17.366-12.765-23.348-2.515-1.468-2.515-1.468-4.88-1.893-2.546-.589-4.542-1.17-6.792-2.509-1.716-3.224-2.153-6.54-2.687-10.125-1.897-9.794-3.758-17.044-12.375-22.875-5.06-2.98-10.089-3.127-15.868-3.158l-2.052-.015q-2.193-.016-4.388-.026-3.474-.02-6.948-.053c-6.583-.062-13.165-.116-19.748-.15q-6.048-.032-12.096-.1-2.303-.021-4.604-.026a617 617 0 0 1-6.433-.055l-3.696-.025C282 201 282 201 278 198h69c-.508-14.393-.508-14.393-1.018-28.785l-.625-17.667-.603-17.025-.1-2.796c-.48-13.574-.48-13.574-1.108-27.142C342.976 92.975 343 81.706 343 70H161v18a602 602 0 0 1-.402 11.219l-.258 6.011-.137 3.1c-.614 13.876-1.203 27.751-1.488 41.639l-.06 2.854q-.133 6.6-.225 13.198c-.178 10.761-1.06 21.305-2.43 31.979l-8-1v-1l-3.27-.028c-4.033-.04-8.066-.106-12.099-.18q-2.61-.042-5.22-.063a638 638 0 0 1-7.536-.12l-2.327-.003c-6.475-.173-11.902-2.035-16.607-6.606l-1.379-2-1.433-2c-3.23-5.722-2.573-12.636-2.129-19 1.25-3.5 1.25-3.5 3-6l1.75-2.625c4.166-4.397 8.07-6.575 14.084-6.83q2.738.004 5.475.064l2.93.018c3.066.022 6.132.072 9.198.123q3.132.03 6.264.055c5.1.044 10.2.113 15.299.195l-1-3c.08-2.66.22-5.282.41-7.934.424-6.639.712-13.262.836-19.914l.05-2.531q.1-5.103.18-10.207C154.713 92.838 155.834 78.585 157 64"/><path fill="#12307D" d="M112.563 148.886h2.79l3.002.016 3.082.005c3.25.005 6.5.018 9.75.03q3.304.008 6.608.014 8.102.017 16.205.049v2l-3.912.012c-4.816.022-9.632.077-14.447.14q-3.12.036-6.239.044c-3 .009-5.997.05-8.996.097l-2.791-.012C111.2 151.424 107.01 152.96 102 157c-5.165 5.51-5.38 11.603-5.25 18.836.434 5.49 1.979 8.652 5.563 12.914 5.911 4.95 10.805 5.707 18.242 5.762l2.732.054c2.862.054 5.725.088 8.588.121q2.922.05 5.844.104 7.14.125 14.281.209c-5.003 2.55-9.691 3.966-15.25 4.75-13.244 2.413-21.521 12.308-29.469 22.441-1.65 3.62-2.163 7.16-2.812 11.071-2.257 13.225-2.257 13.225-5.559 17.347-2.41 1.516-2.41 1.516-5.012 2.809-3.875 2.115-6.675 4.907-9.773 8.02l-1.658 1.596c-7.073 7.088-9.444 15.498-12.092 24.966l-.906 3.156A438 438 0 0 0 65 308h-2l-.297 1.695c-1.788 9.59-4.472 18.888-7.742 28.07-6.176 17.81-11.043 38.876-2.457 56.801 2.742 4.46 5.571 8.03 9.809 11.121C64 407 64 407 64.813 408.812c.244 2.857-.24 5.39-.813 8.188-6.471-1.331-10.565-4.872-14.227-10.3-4.306-7.238-8.185-14.039-7.773-22.7h-2c.655 19.878.655 19.878 10 37 7.214 5.862 14.427 6.348 23.375 6.625l3.098.117q3.763.141 7.527.258v2H64v2l2.14.076c3.203.116 6.407.239 9.61.361l3.367.12 3.242.127 2.984.11c2.657.206 2.657.206 4.48.711 2.613.594 4.995.62 7.676.62l3.409.009 3.745-.007 3.98.005a5488 5488 0 0 0 10.945-.001q5.901-.003 11.802.004 11.57.005 23.139 0a35308 35308 0 0 1 26.978 0q25.552.004 51.103-.006 21.879-.006 43.759.001a102267 102267 0 0 0 56.287.004h2.702q9.381-.002 18.762.002 11.465.005 22.93-.003 5.84-.005 11.68 0c19.201.046 19.201.046 38.39-.563l2.225-.111c9.985-.602 17.956-3.755 26.665-8.459l2.219-.96c2.745-1.603 2.847-4.112 3.781-7.04l3-1 .402-2.098q.612-2.963 1.352-5.898c5.246-22.329 1.967-44.115-5.54-65.49a144 144 0 0 1-4.276-14.702c-1.55-6.544-3.537-12.811-5.72-19.171-2.182-6.52-3.971-13.155-5.812-19.778-4.16-16.612-4.16-16.612-15.406-28.863a125 125 0 0 0-7.57-3.824L420 255l-2.546-1.176c-3.294-2.448-3.432-4.185-4.15-8.18l-.73-3.826q-.351-2.002-.699-4.006c-3.138-19.295-3.138-19.295-14.937-34.125-9.249-5.555-18.56-5.908-29.046-5.7-5.912.099-11.146-.48-16.892-1.987v-1l3.653-.044c4.493-.058 8.986-.136 13.48-.218q2.91-.051 5.822-.084c2.798-.034 5.595-.086 8.393-.142l2.608-.02c6.142-.148 11.26-1.002 16.005-5.246l1.414-1.809 1.46-1.816c2.771-3.858 2.423-7.725 2.478-12.309l.087-2.396c.06-5.52-.532-9.781-4.4-13.916-8.475-7.41-21.108-5.784-31.625-5.813a2634 2634 0 0 1-5.934-.076c-4.813-.062-9.627-.095-14.441-.111v-2c6.404-.102 12.809-.172 19.214-.22q3.264-.03 6.53-.082c3.137-.049 6.274-.071 9.412-.089l2.924-.062c7.332-.003 12.713 1.537 18.197 6.523l1.66 2.055 1.715 2.07c4.562 6.11 3.185 16.553 2.348 23.805-2.322 6.683-7.157 10.362-13 14l-3 2 1.531 1.023 1.969 1.352 1.969 1.336L403 204v2h2c6.13 8.035 9.916 15.83 10.754 25.852.213 2.395.213 2.395 1.246 5.585 1.262 4.497 1.645 8.92 2 13.563l1.688.445c9.34 2.746 16.896 8.405 22.312 16.555 1.963 4.243 3.53 8.564 5 13 1.364 4.11 1.364 4.11 2.781 8.203 1.654 4.71 2.797 9.313 3.594 14.242.665 2.718 1.733 5.122 2.867 7.672 1.281 3.183 1.995 6.483 2.758 9.82 1.02 4.296 2.037 8.52 3.688 12.625 1.352 3.543 1.787 6.695 2.312 10.438q.712 2.232 1.5 4.437c1.483 4.21 2.097 8.125 2.5 12.563h2c.153 6.956.257 13.91.33 20.868q.044 3.546.123 7.09c.073 3.41.107 6.816.133 10.226.03 1.047.062 2.094.094 3.173.003 7.56-1.942 11.831-6.68 17.643l-1.572 2.25L463 424h-2v2c-5.51 4.224-11.167 7.633-18 9v2H61v-2l-2.195-.332C49.612 432.478 40.274 424.723 35 417c-2.852-5.376-3.689-10.506-4.473-16.523L30 398l-2-1v-20h2l.332-3.148c1.033-9.278 2.602-17.674 6.078-26.387 2.012-5.342 3.267-10.858 4.59-16.403 1.568-6.545 3.182-12.98 5.45-19.322.65-1.754.65-1.754.55-3.74h2l.281-3.297c.693-5.537 2.462-10.676 4.219-15.953q.955-2.913 1.906-5.828l.854-2.575c.47-1.493.9-2.999 1.274-4.518.592-2.323 1.609-4.177 2.779-6.267l1.238-2.246c4.773-7.63 11.882-13.252 20.637-15.754L85 251l.184-1.688q.402-3.657.816-7.312l.254-2.344c.633-5.543.633-5.543 1.746-6.656.223-1.748.428-3.499.625-5.25 1.248-7.953 4.892-17.531 11.375-22.75h2v-2a125 125 0 0 1 6-4l-3-2a203 203 0 0 1-3.875-2.688l-1.992-1.386c-4.542-4.1-7.335-7.667-7.832-13.922q-.034-2.721.012-5.442l-.084-2.736c.024-6.872 1.947-10.952 6.771-15.826 4.578-3.89 8.495-6.13 14.563-6.114"/><path fill="#226FE1" d="M40 384h2l.445 2.238C44.156 393.977 46.811 400.284 51 407l1.75 2.813c6.02 5.851 12.927 9.309 21.292 9.318l3.852.012q2.128 0 4.256-.003l4.503.01q6.203.011 12.407.01c4.456.002 8.912.01 13.368.016q14.625.02 29.251.024 9.131.005 18.263.012a96672 96672 0 0 0 53.826.026h3.278l9.87.003q26.418.007 52.834.045 27.117.035 54.234.037 15.227-.001 30.454.025 12.97.023 25.937.012 6.616-.008 13.231.011 6.061.019 12.124 0a597 597 0 0 1 4.375.01c11.971.066 21.897-.908 30.895-9.381 4.91-4.99 6.744-11.385 8.887-17.89C461 389 461 389 463 386c.585 20.074.585 20.074-3 27l-1.102 2.168c-3.785 6.704-8.85 9.864-16.066 12.198-5.97 1.337-12.118 1.048-18.204 1.022q-2.34.006-4.682.016c-4.272.014-8.544.01-12.816.003-4.613-.005-9.227.008-13.84.018-9.032.017-18.064.018-27.095.013q-11.011-.006-22.023.002l-3.168.003-6.37.004c-19.907.014-39.814.009-59.72-.003-18.21-.01-36.42.003-54.63.027q-28.054.037-56.109.027c-10.498-.003-20.996 0-31.494.017q-13.404.022-26.807-.002c-4.558-.009-9.116-.011-13.674.004a1576 1576 0 0 1-12.524-.01q-2.262-.005-4.524.01c-9.972.064-17-1.149-25.402-6.642C39.527 411.187 39.695 397.82 40 384"/><path fill="#6D706F" d="m347 149 1 2 3.88-.08c4.79-.09 9.58-.147 14.37-.195a692 692 0 0 0 6.197-.102c2.984-.061 5.967-.09 8.951-.111l2.76-.078c7.456-.004 14.036 2.068 19.62 7.2 3.843 4.431 3.698 9.91 3.784 15.491l.046 2.352c-.114 6.242-2.03 9.827-6.39 14.386l-1.718 1.45-1.719 1.488c-4.173 2.81-9.042 2.393-13.906 2.48l-2.375.056c-3.346.078-6.691.146-10.037.215q-3.669.08-7.338.167l-2.286.04c-3.403.081-6.582.188-9.839 1.241v2l1.688.227c7.609 1.31 12.366 4.667 17.625 10.21 2.808 4.265 4.622 8.514 5.433 13.536 1.128 8.057 1.128 8.057 5.969 14.187q3.141 1.456 6.37 2.703c5.612 2.189 8.493 5.872 11.04 11.2 1.403 3.53 2.558 7.088 3.645 10.726 2.195 7.2 4.607 14.312 7.067 21.424q1.095 3.171 2.184 6.344c2.79 8.114 2.79 8.114 5.745 16.17 3.98 10.553 5.625 23.545 1.261 34.222-4.993 9.967-11.4 15.395-22.027 19.051a84 84 0 0 1-5.812.625l-2.958.227L387 360v-1l-269-1v-1l1.742-.002a73367 73367 0 0 0 114.61-.206l2.472-.005c13.196-.031 26.392-.048 39.588-.06q20.325-.02 40.65-.082a7821 7821 0 0 1 25.063-.036q8.605-.001 17.21-.041 4.958-.023 9.914-.014c22.536.622 22.536.622 42.067-9.284 6.584-8.875 7.05-18.476 6.148-29.145C415.92 307.726 411.74 297.77 408 288q-.916-2.425-1.828-4.852-1.473-3.897-2.973-7.785c-1.137-3.188-1.996-6.318-2.762-9.613-2.265-9.514-4.667-17.366-12.765-23.348-2.515-1.468-2.515-1.468-4.88-1.893-2.546-.589-4.542-1.17-6.792-2.509-1.716-3.224-2.153-6.54-2.687-10.125-1.897-9.794-3.758-17.044-12.375-22.875-5.06-2.98-10.089-3.127-15.868-3.158l-2.052-.015q-2.193-.016-4.388-.026-3.474-.02-6.948-.053c-6.583-.062-13.165-.116-19.748-.15q-6.048-.032-12.096-.1-2.303-.021-4.604-.026a617 617 0 0 1-6.433-.055l-3.696-.025C282 201 282 201 278 198h69c-.368-14.63-.368-14.63-.748-29.259q-.067-2.753-.13-5.507l-.082-2.882-.062-2.767-.06-2.396c.082-2.2.468-4.08 1.082-6.189"/><path fill="#269ACA" d="M421 263c4.03 2.748 6.207 4.849 7.945 9.441l1.02 2.688a626 626 0 0 1 5.16 14.933l1.05 3.104c1.754 5.257 3.313 10.45 4.396 15.888.622 2.82 1.566 5.502 2.511 8.227 1.207 3.574 2.307 7.177 3.418 10.781 1.281 4.141 2.56 8.269 4.125 12.313 6.472 17.061 9.115 34.588 2.46 52.02-3.974 8.45-9.58 13.762-18.085 17.605-8.486 3.001-16.443 3.429-25.384 3.388q-2.144.006-4.287.016c-3.899.014-7.797.01-11.696.003-4.216-.005-8.431.008-12.647.018-8.247.017-16.494.018-24.742.013q-10.057-.006-20.114.002l-2.896.003-5.825.004c-18.19.014-36.38.009-54.57-.003-16.63-.01-33.26.003-49.89.027q-25.638.037-51.276.027c-9.59-.003-19.179 0-28.768.017q-12.243.022-24.486-.002a2180 2180 0 0 0-12.484.004q-5.722.02-11.443-.01c-2.023-.006-4.045.008-6.067.023-12.203-.098-23.416-3.412-32.175-12.307-6.878-8.409-9.053-18.39-9.062-29.036l-.007-3.342C47.577 354.52 52.337 341.423 57 328q1.115-3.292 2.219-6.586c.314-.931.628-1.862.95-2.822C61.29 315.094 62.175 311.578 63 308h2l-.176-2.453c.222-4.465 1.495-8.113 2.989-12.297a2873 2873 0 0 0 1.671-4.82l.807-2.322c.858-2.552 1.575-5.132 2.272-7.733 1.71-5.852 4.31-10.957 9.437-14.375 1.121 4.047.838 6.342-.625 10.25a254 254 0 0 0-4.812 15 767 767 0 0 1-5.538 18.204c-2.371 7.539-4.537 15.138-6.702 22.738l-.87 3.023-.776 2.722C62 338 62 338 61 339c-1.837 7.682-2.208 15.387-2.25 23.25l-.028 2.505c.04 8.11.659 15.064 6.278 21.245v2h2a141 141 0 0 1 5 5c2.048 2.048 3.148 2.563 5.813 3.5 2.321.83 4.599 1.672 6.874 2.625 2.422.916 4.765 1.438 7.313 1.875v1c-10.709.482-18.855-.632-27-8-4.381-4.963-7.821-10.726-8.187-17.437L57 374h-2c.14 10.3.329 19.4 7.383 27.61 7.74 7.19 17.061 6.82 26.94 6.764q2.188.005 4.376.012c3.995.01 7.99.003 11.985-.008 4.314-.01 8.627 0 12.941.005 8.445.01 16.889.003 25.334-.009 9.833-.014 19.667-.012 29.5-.01q26.317.003 52.633-.028 25.539-.029 51.077-.02a59183 59183 0 0 0 61.553-.01l2.947-.001q10.284-.005 20.567-.002 12.528.004 25.057-.017 6.393-.013 12.786-.007 5.85.006 11.702-.014 2.117-.004 4.235.002c1.918.005 3.837-.003 5.755-.013l3.23-.002c6.338-.532 12.172-3.135 16.999-7.252 3.811-5.591 5.129-10.968 5.063-17.687l-.028-3.575L447 377l-2 3a2217.78 2217.78 0 0 0 .11-13.715q.015-2.328.04-4.658c.025-2.241.037-4.483.045-6.725l.032-2.078c0-4.604-.818-8.456-2.227-12.824a224 224 0 0 1-.965-3.902c-1.94-8.384-1.94-8.384-4.66-16.536-1.318-3.414-2.1-6.606-2.75-10.19-.69-2.616-1.754-4.974-2.845-7.442-1.368-3.385-2.233-6.902-3.155-10.43-1.947-7.27-4.195-14.367-6.707-21.46C421 267 421 267 421 263"/><path fill="#E3EFF1" d="M156 190h1v8h73c-4.548 3.41-5.777 3.37-11.272 3.353l-2.2.007q-2.36.005-4.72-.01a723 723 0 0 0-7.495.004c-7.103.031-14.205.027-21.308.006-4.349-.01-8.697.003-13.046.03q-2.475.009-4.95-.012c-11.105-.092-20.034.709-28.478 8.68-3.63 4.696-4.055 10.3-5.031 16.005-2.165 10.561-2.165 10.561-5.051 13.535-3.84 2.379-8.106 3.269-12.449 4.402-8.63 7.221-10.797 21.405-13.812 31.914-2.05 7.117-4.34 14.122-7.188 20.961-5.479 13.718-9.473 29.31-4.5 43.875 3.968 7.937 10.446 11.701 18.594 14.523 7.316 1.83 14.596 1.876 22.091 1.878l3.354.013q5.546.019 11.09.025l7.965.026q8.566.027 17.132.045 12.393.029 24.784.07 20.115.063 40.23.118l2.43.006 36.611.098 2.43.007q20.05.054 40.1.119 12.363.039 24.728.067 8.465.018 16.929.047 4.885.016 9.771.025 5.292.01 10.584.032h3.131l2.86.015 2.467.007c2.196.128 4.1.57 6.219 1.129 8.172-.534 16.614-4.378 22.184-10.336 6.986-9.441 7.99-19.133 6.816-30.664-1.335-6.903-3.412-13.438-5.832-20.02-2.776-7.553-5.248-15.21-7.738-22.862-5.305-19.246-5.305-19.246-17.43-34.118q-2.56-1.13-5.125-2.25c-3.36-1.652-5.42-2.705-6.812-6.25-.698-2.521-1.173-5.058-1.68-7.625-1.998-9.696-4.66-15.453-12.82-21.25-3.78-2.357-7.218-3.7-11.563-4.625v-2c8.082.709 15.447 2.63 21 9 5.351 8.042 9 19.368 9 29l1.906.41c6.691 1.683 11.694 4.162 16.094 9.59 3.997 6.96 6.289 14.455 8.75 22.063q1.32 4.026 2.645 8.05l.664 2.025c2.35 7.143 4.83 14.24 7.34 21.327A720 720 0 0 1 422 306l.872 2.486c2.017 6.11 2.617 11.66 2.565 18.077l.061 2.67c-.007 9.414-3.34 16.238-9.717 23.048-9.782 9.44-22.447 9.873-35.281 9.846l-3.493.005q-4.779.004-9.558-.001c-3.441-.003-6.882.001-10.323.004q-10.104.005-20.208 0a26864 26864 0 0 0-23.54 0q-22.27.004-44.543-.006-19.104-.006-38.208.001a77964 77964 0 0 1-51.473.003q-8.2 0-16.403.003-9.996.004-19.993-.003-5.1-.005-10.198 0-5.53.002-11.06-.006l-3.248.007c-11.842-.031-22.728-1.937-31.756-10.337-7.343-8.82-9.325-19.654-8.496-30.797 1.222-8.951 4.452-17.286 7.595-25.702 3.552-9.54 6.742-19.193 9.903-28.868 6.82-20.743 6.82-20.743 11.69-24.805l2.367-1.988c2.436-1.631 4.47-2.367 7.257-3.2 2.325-.768 2.325-.768 4.188-2.437 1.498-3.68 2.367-7.284 3.18-11.16 2.065-9.67 5.44-17.14 13.882-22.653 4.983-3.048 9.108-3.399 14.938-3.187l3 1z"/><path fill="#404343" d="M289 210c8.221 6.644 14.537 16.02 18 26v4c-5.834.323-11.664.558-17.505.714q-2.975.097-5.947.267c-16.083.893-16.083.893-20.197-2.234-3.011-3.502-4.53-7.532-6.351-11.747-2.041-2.36-2.041-2.36-4-4l-.625 2.375c-1.882 4.961-4.567 10.817-8.375 14.625-3.03.089-6.037.115-9.066.098l-2.754-.005a3599 3599 0 0 1-8.743-.03q-2.954-.008-5.912-.014-7.262-.017-14.525-.049c0-9.558 5.808-18.489 12.152-25.316 20.94-20.058 50.379-21.14 73.848-4.684"/><path fill="#1B9DCA" d="M64 354c1.661 3.171 2.954 6.415 4.25 9.75 3.467 8.362 7.879 14.651 15.688 19.438 4.457 1.756 9.117 1.938 13.86 1.95l3.457.017 3.767.003 4.025.015q5.52.02 11.041.028 5.958.013 11.914.034 10.318.032 20.636.056 14.917.035 29.835.08 24.204.071 48.407.132a152328 152328 0 0 1 64.491.174q60.315.17 120.629.323v-2l3.063-1.125c9.285-4.1 13.075-10.712 16.937-19.875 1.116-2.984 2.084-5.946 3-9h1c.66 12.243-.59 23.231-8.047 33.316-7.325 6.315-14.492 6.258-23.762 6.199q-2.105.008-4.209.02c-3.841.02-7.682.013-11.523.003-4.148-.007-8.296.009-12.444.022-8.12.021-16.241.021-24.362.013q-9.901-.008-19.803.001l-2.849.003-5.728.006c-17.902.016-35.804.007-53.706-.01-16.373-.014-32.746 0-49.12.03a21787 21787 0 0 1-56.163.027l-2.837-.001q-9.886-.002-19.773.022-12.053.027-24.106-.005c-4.099-.012-8.197-.015-12.295.004q-5.633.024-11.264-.014c-1.995-.008-3.99.01-5.986.028-7.262-.075-13.367-.723-19.023-5.664-1.235-2.17-1.235-2.17-2-4h-2q-.974-2.374-1.937-4.75l-1.09-2.672c-1.89-5.01-2.097-9.498-2.035-14.828l.013-2.258q.02-2.745.049-5.492"/><path fill="#E3C106" d="M206 287c2.363 1.654 3.565 2.556 5 5 .57 4.547 1.093 9.813-1 14h12v1l-3.586.332c-14.64 1.141-14.64 1.141-28.039 6.668-3.081 3.892-3.246 6.536-2.945 11.41.685 3.114 1.893 4.839 4.586 6.602 12.206 6.079 23.3 7.952 36.578 3.832 6.064-2.127 9.905-4.283 13.406-9.844.394-3.051.306-5.944 0-9 2.906 2.78 3.932 4.11 4.25 8.25-.376 5.637-2.252 9.054-6.312 12.875-7.487 5.87-15.462 7.586-24.813 7.438-.962-.01-1.923-.018-2.914-.027-10.324-.296-18.824-3.15-26.211-10.536-2.227-3.34-2.271-4.533-2.25-8.437l-.016-2.872C184 321 184 321 186 317h-14l2 3c.763 5.042.946 10.332-1.75 14.813-4.865 5.818-13.833 9.686-21.334 10.38-13.625.493-25.078.168-35.916-9.193-3.502-3.985-3.642-8.171-3.457-13.285.775-4.602 2.75-6.978 6.457-9.715 12.3-7.147 12.3-7.147 19.23-7.098l2.432.01 2.525.026 2.561.013q3.126.02 6.252.049l-.973-2.25c-1.377-3.686-1.832-6.873-1.027-10.75 2.5-3 2.5-3 5-5l-.324 1.793-.363 2.394-.387 2.356c.1 3.303 1.08 4.842 3.074 7.457 2.349 1.823 2.349 1.823 5 3.25l2.625 1.516c5.266 2.737 10.133 2.49 15.938 2.546l2.884.088c8.199.073 14.718-1.843 21.553-6.4 2.98-2.98 3.899-4.784 4.25-9-.242-2.905-.74-4.546-2.25-7"/><path fill="#0437AA" d="M442 406c-.453 4.874-1.709 7.39-5 11l1 2c-3.829.894-7.374 1.126-11.302 1.129l-3.873.01-4.25-.005-4.518.007q-6.212.008-12.422.004-6.697.002-13.395.01-13.121.012-26.242.012-10.662 0-21.324.006-30.215.013-60.43.012h-6.587q-26.45.002-52.9.023-27.147.023-54.293.02-15.246-.001-30.492.014-12.977.014-25.954.005-6.623-.007-13.247.005-6.06.011-12.12-.002-2.196-.003-4.391.005c-1.986.007-3.972.001-5.958-.006h-3.346C68 420 68 420 63 418l1-11 2.545 1.072c8.925 3.507 16.516 4.644 26.187 4.556q2.145.007 4.29.022c3.888.018 7.776.006 11.664-.011 4.21-.013 8.419.002 12.628.014 8.23.018 16.459.01 24.689-.008q10.037-.02 20.074-.015l2.893.002q2.91 0 5.819.003c17.127.008 34.253-.008 51.38-.038q24.897-.044 49.792-.02a28680 28680 0 0 0 60.096-.003l2.88-.003q10.02-.007 20.039.005 12.217.011 24.436-.024c4.152-.013 8.303-.02 12.455-.008q5.711.014 11.423-.021c2.014-.008 4.028.004 6.041.017 10.008-.09 19.92-6.54 28.669-6.54"/><path fill="#CAE8FB" d="M55 374h2l.75 3.5c1.126 4.537 3.046 8.403 5.25 12.5l1.008 2.168c1.287 2.377 2.55 2.755 4.992 3.832l1.688 1.438c7.674 5.185 16.205 4.99 25.159 4.943q2.093.005 4.184.014c3.814.013 7.628.006 11.443-.003 4.12-.007 8.241.004 12.362.012 8.065.013 16.13.01 24.196.002a12841 12841 0 0 1 22.5-.003q2.847 0 5.693.003c17.784.008 35.569-.002 53.354-.018q22.875-.018 45.752.003a37277 37277 0 0 0 58.833.01l2.819-.001q9.819-.003 19.639.009 11.971.013 23.944-.01c4.07-.008 8.14-.011 12.21-.001q5.595.013 11.19-.012c1.98-.005 3.96.005 5.939.015 10.52-.069 19.616-1.471 27.615-8.792 4.839-5.047 7.077-11.133 9.48-17.609h1c.53 10.338-.223 17.139-5.812 25.813-5.855 5.854-12.21 7.308-20.288 7.321l-3.738.014h-4.097q-2.18.003-4.36.01-5.991.014-11.982.017-6.462.007-12.923.022c-10.402.02-20.805.03-31.207.039q-7.35.007-14.698.015a81501 81501 0 0 1-61.54.044l-3.183.002c-17.016.008-34.032.033-51.048.066q-26.209.049-52.418.054c-9.81.002-19.618.01-29.427.036q-12.53.034-25.06.02c-4.26-.004-8.52-.002-12.78.017q-5.857.026-11.713.001a417 417 0 0 0-4.226.014c-9.207.073-17.446-.52-24.902-6.4-.507-.632-1.014-1.265-1.535-1.918l-1.59-1.894c-3.823-5.952-4.906-10.843-4.66-17.73l.04-2.217c.035-1.783.09-3.564.147-5.346"/><path fill="#5E5F5E" d="M157 64h190c.684 6.158 1.176 12.08 1.281 18.242l.056 2.573q.086 4.03.163 8.06c.237 14.268.237 14.268 1.29 28.491.445 5.595.312 11.213.272 16.822l-.013 3.751q-.018 4.53-.049 9.061h-2l-2 2c-.842-6.83-1.276-13.605-1.535-20.48l-.13-3.301q-.135-3.453-.265-6.906c-.13-3.445-.269-6.89-.408-10.334l-.26-6.772c-.04-.996-.08-1.991-.123-3.017C342.888 91.444 343 80.78 343 70H161v18a602 602 0 0 1-.402 11.219l-.258 6.011-.137 3.1c-.614 13.876-1.203 27.751-1.488 41.639l-.06 2.854q-.133 6.6-.225 13.198c-.178 10.761-1.06 21.305-2.43 31.979l-8-1 4-1c1.309-11.172 1.08-22.334 1-33.562-.152-21.493-.152-21.493.75-29.523.345-4.024.418-8.042.496-12.08l.05-2.552q.1-5.243.18-10.484C154.712 93.093 155.824 78.714 157 64"/><path fill="#022AA9" d="M84 428h333l-2 5c-3.073 1.024-5.155 1.125-8.373 1.126l-3.401.008-3.752-.007-3.975.005q-5.473.005-10.946-.001c-3.933-.003-7.866.001-11.799.004a24279 24279 0 0 1-23.137 0 35317 35317 0 0 0-26.979 0q-25.554.004-51.109-.006-21.879-.006-43.757.001a102244 102244 0 0 1-58.987.003q-9.38 0-18.759.003-11.466.004-22.934-.003a7640 7640 0 0 0-11.679 0c-43.42.034-43.42.034-51.413-2.133v-2q3.312-.294 6.625-.562l3.727-.317c3.404-.113 6.324.189 9.648.879z"/><path fill="#FBFCFC" d="m174.617 205.707 3.674.013c3.861.017 7.723.054 11.584.093q3.934.022 7.867.04 9.63.052 19.258.147-1.41 1.66-2.82 3.316l-1.587 1.866c-1.44 1.643-2.931 3.203-4.468 4.756-5.441 6.278-9.518 15.241-12.125 23.062h-41c0-27.16 0-27.16 1-30 5.686-4.084 11.928-3.381 18.617-3.293"/><path fill="#1C233A" d="M350 149c6.404-.102 12.809-.172 19.214-.22q3.264-.03 6.53-.082c3.137-.049 6.274-.071 9.412-.089l2.924-.062c7.332-.003 12.713 1.537 18.197 6.523l1.66 2.055 1.715 2.07c4.562 6.11 3.185 16.553 2.348 23.805-2.322 6.683-7.157 10.362-13 14l-3 2 1.531 1.023 1.969 1.352 1.969 1.336L403 204v2h2c6.13 8.035 9.916 15.83 10.754 25.852.213 2.395.213 2.395 1.246 5.585 1.262 4.497 1.645 8.92 2 13.563l1.688.445c9.34 2.746 16.896 8.405 22.312 16.555 1.963 4.243 3.53 8.564 5 13 1.364 4.11 1.364 4.11 2.781 8.203 1.654 4.71 2.797 9.313 3.594 14.242.665 2.718 1.733 5.122 2.867 7.672 1.281 3.183 1.995 6.483 2.758 9.82 1.02 4.296 2.037 8.52 3.688 12.625 1.352 3.543 1.787 6.695 2.312 10.438q.712 2.232 1.5 4.438c1.483 4.208 2.097 8.124 2.5 12.562h2c.153 6.956.257 13.91.33 20.868q.044 3.546.123 7.09c.073 3.41.107 6.816.133 10.226.03 1.047.062 2.094.094 3.173.003 7.56-1.942 11.831-6.68 17.643l-1.572 2.25L463 424h-2v2c-5.51 4.224-11.167 7.633-18 9v2h-39c6.08-3.04 12.222-3.065 18.9-3.29 12.434-.438 22.098-2.768 33.1-8.71l2.219-.96c2.745-1.603 2.847-4.112 3.781-7.04l3-1 .402-2.098q.612-2.963 1.352-5.898c5.246-22.329 1.967-44.115-5.54-65.49a144 144 0 0 1-4.276-14.702c-1.55-6.544-3.537-12.811-5.72-19.171-2.182-6.52-3.971-13.155-5.812-19.778-4.16-16.612-4.16-16.612-15.406-28.863a125 125 0 0 0-7.57-3.824L420 255l-2.546-1.176c-3.294-2.448-3.432-4.185-4.15-8.18l-.73-3.826q-.351-2.002-.699-4.006c-3.138-19.295-3.138-19.295-14.937-34.125-9.249-5.555-18.56-5.908-29.046-5.7-5.912.099-11.146-.48-16.892-1.987v-1l3.653-.044c4.493-.058 8.986-.136 13.48-.218q2.91-.051 5.822-.084c2.798-.034 5.595-.086 8.393-.142l2.608-.02c6.142-.148 11.26-1.002 16.005-5.246l1.414-1.809 1.46-1.816c2.771-3.858 2.423-7.725 2.478-12.309l.087-2.396c.06-5.52-.532-9.781-4.4-13.916-8.475-7.41-21.108-5.784-31.625-5.812q-2.967-.036-5.934-.077c-4.813-.062-9.627-.095-14.441-.111z"/><path fill="#121C3F" d="M112.563 148.886h2.79l3.002.016 3.082.005c3.25.005 6.5.018 9.75.03q3.304.008 6.608.014 8.102.017 16.205.049v2l-3.912.012c-4.816.022-9.632.077-14.447.14q-3.12.036-6.239.044c-3 .009-5.997.05-8.996.097l-2.791-.012C111.2 151.424 107.01 152.96 102 157c-5.165 5.51-5.38 11.603-5.25 18.836.434 5.49 1.979 8.652 5.563 12.914 5.911 4.95 10.805 5.707 18.242 5.762l2.732.054c2.862.054 5.725.088 8.588.121q2.922.05 5.844.104 7.14.125 14.281.209c-3.192 1.871-5.609 2.269-9.29 2.344l-3.105.09-3.23.066c-12.666.266-22.563.82-32.375 9.5-4.099 4.36-7.143 7.966-8 14h-2l.063 3.625c.006 3.555-.364 6.88-1.063 10.375h-2l-.078 2.633C90.319 249.882 90.319 249.882 86 254c-2.958 1.62-5.966 3.072-9.02 4.504C70.566 261.724 65.625 266.18 63 273c-.821 3.039-1.496 6.089-2.148 9.168-1.006 4.526-2.185 8.987-3.414 13.457l-.637 2.37c-.944 3.412-1.822 6.037-3.801 9.005-.68 2.255-1.296 4.53-1.875 6.812l-1.05 4.067-.538 2.082c-1.125 4.273-2.375 8.51-3.6 12.754a554 554 0 0 0-2.5 9.097c-.855 3.172-1.787 6.276-2.874 9.375-1.446 4.236-2.587 8.54-3.688 12.875l-.517 2.003c-3.932 15.79-4.424 33.903 3.068 48.763C42.59 419.767 46.296 425.098 52 427l1 3c2 1.209 2 1.209 4 2l-1 2c-10.217-5.797-20.432-12.1-24-24a193 193 0 0 1-1.473-9.523L30 398l-2-1v-20h2l.332-3.148c1.033-9.278 2.602-17.674 6.078-26.387 2.012-5.342 3.267-10.858 4.59-16.403 1.568-6.545 3.182-12.98 5.45-19.322.65-1.754.65-1.754.55-3.74h2l.281-3.297c.693-5.537 2.462-10.676 4.219-15.953q.955-2.913 1.906-5.828l.854-2.575c.47-1.493.9-2.999 1.274-4.518.592-2.323 1.609-4.177 2.779-6.267l1.238-2.246c4.773-7.63 11.882-13.252 20.637-15.754L85 251l.184-1.688q.402-3.657.816-7.312l.254-2.344c.633-5.543.633-5.543 1.746-6.656.223-1.748.428-3.499.625-5.25 1.248-7.953 4.892-17.531 11.375-22.75h2v-2a125 125 0 0 1 6-4l-3-2a203 203 0 0 1-3.875-2.688l-1.992-1.386c-4.542-4.1-7.335-7.667-7.832-13.922q-.034-2.721.012-5.442l-.084-2.736c.024-6.872 1.947-10.952 6.771-15.826 4.578-3.89 8.495-6.13 14.563-6.114"/><path fill="#EEF7FC" d="M292 206q10.516-.075 21.033-.11 3.576-.016 7.152-.04c3.43-.025 6.861-.036 10.292-.045l3.22-.032c5.168 0 9.473.134 14.303 2.227.852 7.069 1.127 14.01 1.063 21.125L349 239h-36l-5-12c-3.734-7.15-8.407-12.813-14.277-18.32L292 207z"/><path fill="#E3C106" d="M239.188 313.563c3.334 2.889 3.642 4.35 4.312 8.625-.717 5.469-3.41 8.26-7.5 11.812-9.275 5.153-20.908 6.668-31.223 4.242-6.699-2.108-13.233-4.635-17.777-10.242-.95-4.388-1.224-9.043 1.219-12.95 12.724-11.913 37.33-10.654 50.969-1.488M179.188 278.813l2.212-.038c9-.024 16.96 2.41 24.6 7.225 2.432 2.79 2.898 4.313 3.438 7.938-.666 4.658-2.532 7.59-6.274 10.48-10.406 6.798-22.068 6.965-34.164 5.582-6.319-1.583-11.792-5.044-16-10-1.504-4.309-1.367-7.994.188-12.25 6.822-6.67 16.742-8.93 26-8.937"/><path fill="#E3C206" d="M349 286c.688 2.625.688 2.625 1 5h2c.343 3.6.138 5.712-1.437 9-5.243 6.138-10.499 9.259-18.563 10-3.293.196-6.576.275-9.875.313l-2.566.087c-9.061.09-16.107-3.106-22.559-9.4-2.312-3.258-2.472-6.063-2-10 3.087-6.432 7.537-8.403 13.922-10.687 13.665-3.814 28.256-2.194 40.078 5.687"/><path fill="#E3C207" d="m251.75 278.625 2.394.005c9.878.206 18.78 3.294 25.856 10.37.45 4.5.456 7.008-1.437 11.125-4.494 5.042-9.74 9.026-16.563 9.875-12.022.647-23.74 1.041-34-6-3.28-3.028-3.932-4.465-4.5-8.937.26-4.31 1.561-6.83 4.5-10.063 7.236-4.772 15.203-6.393 23.75-6.375"/><path fill="#E2C205" d="m354.344 253.77 3.027.005 3.129.037 3.129.002c4.612.027 8.857.166 13.371 1.186v2l2.813-.125C383 257 383 257 386 259c.688 3.625.688 3.625 1 7h2c-.416 5.304-1.052 8.341-5 12-11.025 6.592-23.372 7.723-35.969 5.469-5.887-1.855-11.996-4.879-15.031-10.469-1.125-3.375-1.125-3.375-1-7 3.074-3.97 7.213-6.55 12-8v-2c3.6-1.638 6.396-2.248 10.344-2.23"/><path fill="#B5B7BC" d="M352 197v2l1.688.227c7.609 1.31 12.366 4.667 17.625 10.21 2.808 4.265 4.622 8.514 5.433 13.536 1.128 8.057 1.128 8.057 5.969 14.187q3.141 1.456 6.37 2.703c5.612 2.189 8.493 5.872 11.04 11.2 1.403 3.53 2.558 7.088 3.645 10.726 2.195 7.2 4.607 14.312 7.067 21.424q1.095 3.171 2.184 6.344c2.79 8.114 2.79 8.114 5.745 16.17 3.98 10.553 5.625 23.545 1.261 34.222-4.993 9.967-11.4 15.395-22.027 19.051a84 84 0 0 1-5.812.625l-2.958.227L387 360v-1l-269-1v-1l1.742-.002a73367 73367 0 0 0 114.61-.206l2.472-.005c13.196-.031 26.392-.048 39.588-.06q20.325-.02 40.65-.082a7821 7821 0 0 1 25.063-.036q8.605-.001 17.21-.041 4.958-.023 9.914-.014c22.536.622 22.536.622 42.067-9.284 6.584-8.875 7.05-18.476 6.148-29.145C415.92 307.726 411.74 297.77 408 288q-.916-2.425-1.828-4.852-1.473-3.897-2.973-7.785c-1.137-3.188-1.996-6.318-2.762-9.613-2.265-9.514-4.667-17.366-12.765-23.348-2.515-1.468-2.515-1.468-4.88-1.893-2.546-.589-4.542-1.17-6.792-2.509-1.716-3.224-2.153-6.54-2.687-10.125-1.897-9.794-3.758-17.044-12.375-22.875-5.06-2.98-10.089-3.127-15.868-3.158l-2.052-.015q-2.193-.016-4.388-.026-3.474-.02-6.948-.053c-6.583-.062-13.165-.116-19.748-.15q-6.048-.032-12.096-.1-2.303-.021-4.604-.026a617 617 0 0 1-6.433-.055l-3.696-.025c-3.315-.419-4.697-1.139-7.105-3.392a266830 266830 0 0 1 51.125-.748l10.973-.16 3.681-.054q4.11-.049 8.221-.038"/><path fill="#1F2321" d="M278.731 198.532c3.618 1.625 6.062 1.863 10.009 1.9l1.953.031c2.11.03 4.22.04 6.33.049q2.208.025 4.414.054c3.857.047 7.713.077 11.57.104 3.942.03 7.883.076 11.825.121 7.723.086 15.445.153 23.168.209l-1 2h-57l1 4c1.848 1.086 1.848 1.086 4 2 6.047 4.994 10.55 10.968 14 18v2l-2 1 1 9c-2.053-3.08-3.454-6.14-5-9.5-6.834-14.015-17.453-22.573-32-27.938-11.338-3.173-26.163-3.608-37 1.438l-2.684 1.219C224.203 207.77 218.657 212.465 213 218l-1.734 1.687A211 211 0 0 0 208 223v-2l-3 1c.36-5.048 3.044-7.522 6.562-10.813l1.577-1.521A449 449 0 0 1 217 206l-1.878-.025q-9.66-.13-19.32-.292-3.607-.059-7.213-.105c-3.453-.045-6.906-.103-10.359-.164l-3.267-.035-3.033-.06-2.671-.04C167 205 167 205 164 203c-3.44-.023-3.44-.023-7.188.375l-3.855.336L150 204c1-2 1-2 4-3 2.252-.093 4.506-.125 6.76-.126l2.07-.006q2.228-.006 4.455-.006c3.17-.004 6.342-.025 9.514-.045 5.9-.038 11.799-.07 17.699-.067q6.161-.002 12.323-.062 2.334-.015 4.668-.005c8.767.04 16.033-.589 24.087-4.515 11.567-5.572 32.225-3.768 43.155 2.364"/><path fill="#DEF7FC" d="M152 197c-1 2-1 2-2.672 2.746l-2.078.691c-3.368 1.183-6.207 2.684-9.25 4.563h-2v2l-1.812 1.688c-5.215 5.512-6.178 13.134-7.473 20.347-.74 3.562-1.204 5.558-4.102 7.867L120 238l-2.027.957-1.91.856c-4.967 2.501-8.9 5.233-10.993 10.55a100 100 0 0 0-1.332 4.977c-.935 3.369-2.361 6.448-3.738 9.66a304 304 0 0 0-2.25 7.25c-1.896 6.25-4.027 12.382-6.312 18.5-9.509 24.659-9.509 24.659-6.473 50.297 4.184 7.895 9.333 13.116 17.933 15.887 9.504 2.501 18.61 3.215 28.39 3.224l3.387.015c3.734.016 7.468.024 11.202.032l8.043.03q8.65.033 17.3.056 12.505.035 25.01.08 20.293.071 40.584.132a108067 108067 0 0 1 54.067.174q50.56.17 101.119.323v1a311907 311907 0 0 1-122.649.056q-20.44.007-40.88.021-20.973.014-41.945.017-12.942.002-25.883.014-8.874.007-17.748.006-5.12-.002-10.24.005-5.554.007-11.107.001l-3.264.01c-11.855-.025-22.748-1.922-31.788-10.333-7.343-8.82-9.325-19.654-8.496-30.797 1.222-8.951 4.452-17.286 7.595-25.702 3.552-9.54 6.742-19.193 9.903-28.868 6.82-20.743 6.82-20.743 11.69-24.805l2.367-1.988c2.436-1.631 4.47-2.367 7.257-3.2 2.325-.768 2.325-.768 4.188-2.437 1.498-3.68 2.367-7.284 3.18-11.16 2.065-9.67 5.44-17.14 13.882-22.653 4.69-2.87 8.462-3.311 13.938-3.187"/><path fill="#D58904" d="M206 287c2.363 1.654 3.565 2.556 5 5 .57 4.547 1.093 9.813-1 14h12v1l-3.586.332c-14.64 1.141-14.64 1.141-28.039 6.668-3.081 3.892-3.246 6.536-2.945 11.41.685 3.114 1.893 4.839 4.586 6.602 12.206 6.079 23.3 7.952 36.578 3.832 6.064-2.127 9.905-4.283 13.406-9.844.394-3.051.306-5.944 0-9 2.906 2.78 3.932 4.11 4.25 8.25-.376 5.637-2.252 9.054-6.312 12.875-7.487 5.87-15.462 7.586-24.813 7.438-.962-.01-1.923-.018-2.914-.027-10.324-.296-18.824-3.15-26.211-10.536-2.227-3.34-2.271-4.533-2.25-8.437l-.016-2.872c.269-2.717.88-4.366 2.266-6.691l-3.324.14q-2.182.057-4.363.11l-2.186.102c-5.111.093-7.275-.773-11.127-4.352-11.05-6.411-22.647-5.54-35-5 3.1-2.067 3.73-2.245 7.23-2.195l2.432.02 2.525.05 2.561.027c2.084.024 4.168.06 6.252.098l-.973-2.25c-1.377-3.686-1.832-6.873-1.027-10.75 2.5-3 2.5-3 5-5l-.324 1.793-.363 2.394-.387 2.356c.1 3.303 1.08 4.842 3.074 7.457 2.349 1.823 2.349 1.823 5 3.25l2.625 1.516c5.266 2.737 10.133 2.49 15.938 2.546l2.884.088c8.199.073 14.718-1.843 21.553-6.4 2.98-2.98 3.899-4.784 4.25-9-.242-2.905-.74-4.546-2.25-7"/><path fill="#BBB9BC" d="M156 190h1v8h73c-4.548 3.41-5.777 3.37-11.272 3.353l-2.2.007q-2.36.005-4.72-.01a723 723 0 0 0-7.495.004c-7.103.031-14.205.027-21.308.006-4.349-.01-8.697.003-13.046.03q-2.475.009-4.95-.012c-11.105-.092-20.034.709-28.478 8.68-3.63 4.696-4.055 10.3-5.031 16.005-2.165 10.561-2.165 10.561-5.051 13.535-3.84 2.379-8.106 3.269-12.449 4.402-8.63 7.221-10.797 21.405-13.812 31.914-2.05 7.117-4.34 14.122-7.188 20.961-5.476 13.712-9.715 29.614-4.187 44.063 1.406 2.969 3.167 5.475 5.187 8.062l-1 2 4 2c-3.532 0-4.836-1.028-7.441-3.309-6.306-6.842-7.703-14.22-7.809-23.253l-.078-3.942c.412-10.54 4.66-20.656 8.266-30.433 2.956-8.063 5.77-16.118 8.212-24.354a56 56 0 0 1 2.412-6.397c1.23-2.834 1.952-5.336 2.688-8.312 1.822-6.213 5.32-9.958 10.844-13.246 2.622-1.336 5.19-2.55 8.023-3.36 3.093-2.29 3.164-5.802 3.82-9.394 1.4-6.727 2.9-13.362 7.063-19l3-1v-2c12.25-6.931 12.25-6.931 17-8l3 1z"/><path fill="#122F7C" d="m135.438 196.938 3.083.013q3.74.018 7.479.049c-3.133 1.651-5.602 2.319-9.125 2.75-13.324 2.382-21.603 12.253-29.594 22.441-1.651 3.62-2.163 7.163-2.815 11.074-2.252 13.249-2.252 13.249-5.943 17.766-2.474 1.683-4.725 2.93-7.523 3.969l-2 1c-2.333.04-4.667.043-7 0 1-2 1-2 2.938-2.875 2.62-1.43 2.958-2.366 4.062-5.125.438-2.239.809-4.491 1.125-6.75l.508-3.547L91 235h2l1-14h2l-.184-2.227c.384-5.792 5.344-10.115 9.477-13.84 9.499-7.62 18.28-8.096 30.144-7.995"/><path fill="#010C5F" d="M52 429c5.416.855 5.416.855 7.922 1.477 6.993 1.661 13.965 1.925 21.121 2.181l2.543.096 2.283.072C88 433 88 433 89.794 433.502c2.6.587 4.966.63 7.633.637l3.36.016 3.69.003 3.921.015q5.391.02 10.782.028 5.811.013 11.623.034 10.071.032 20.142.056 14.56.035 29.121.08 23.622.071 47.246.132a144392 144392 0 0 1 62.945.174q58.87.17 117.743.323c-3.371 2.03-5.943 2.249-9.849 2.246l-3.645.012-4.009-.017q-2.127 0-4.254.005c-3.902.004-7.804-.004-11.706-.014-4.205-.008-8.411-.006-12.617-.004q-10.933.001-21.865-.017c-10.538-.016-21.076-.021-31.614-.024a60338 60338 0 0 1-51.288-.036q-24.914-.028-49.827-.041l-3.102-.002-15.403-.007Q124.91 437.068 61 437v-2l-4-1v-2l-5-2z"/><path fill="#48AAD5" d="M444 380c.821 2.33 1.171 3.546.285 5.895C439.112 394.01 433.266 399.22 424 402l-1.874.563c-2.67.55-5.169.561-7.897.56l-3.592.006-3.95-.009-4.193.003q-5.767.002-11.534-.007-6.216-.005-12.433-.002-10.773 0-21.546-.008-15.576-.011-31.152-.012-25.27-.004-50.54-.019-24.55-.014-49.1-.02h-3.056l-15.178-.005Q144.977 403.034 82 403v-1c7.886-.988 15.674-1.142 23.614-1.131l4.072-.007q4.403-.006 8.804-.005 7.165.002 14.33-.01 10.398-.01 20.798-.016c10.958-.005 21.915-.022 32.873-.041l11.257-.019 2.84-.005a117740 117740 0 0 1 34.924-.053q23.7-.031 47.399-.04 24.345-.013 48.688-.068 15.012-.034 30.022-.026 10.28.004 20.557-.03c3.954-.013 7.908-.02 11.862-.008q5.43.014 10.858-.021c1.93-.007 3.86.005 5.79.018 6.485-.061 10.336-.278 15.312-4.538l3.563-1.437c3.725-1.694 5.68-3.583 8.437-6.563l2.188-1.5c2.285-1.892 2.909-3.715 3.812-6.5"/><path fill="#B6B7B5" d="M118 173h35v21h-36c-.654-3.925-1.157-7.177-1.187-11.062l-.043-2.473C116 178 116 178 118 173"/><path fill="#B6B7B6" d="M351 173h35c1.907 4.767 2.245 7.198 2.188 12.188l-.02 3.73C388 192 388 192 387 194h-35c-1-8-1-8-1-21"/><path fill="#636463" d="M286.281 208.094C295.29 214.41 302.378 223.55 306 234c.125 2.813.125 2.813 0 5h-5l-.664-1.652c-6.81-16.196-16.47-24.67-32.492-31.23-12.13-3.778-25.76-1.218-36.817 4.39C219.231 217.485 213.508 226.899 208 239h-6c4.623-15.897 13.494-26.886 28-35l3.188-1.812c17.417-7.355 37.465-3.8 53.093 5.906"/><path fill="#EEF6F8" d="M272 223c5.43 3.865 9.885 8.058 13 14v2c-14.304 1.908-14.304 1.908-21 0-4.759-3.754-6.71-9.571-9-15l-2-1-.625 2.375L251 229l-.73 2.625c-1.365 3.468-2.267 5.1-5.27 7.375-6.871 1.315-14.074.6-21 0 2.983-8.342 9.138-14.124 17-18 10.171-4.03 21.239-2.537 31 2"/><path fill="#D7DDDF" d="m93 349 1.715.875a129 129 0 0 0 6.847 3.125l2.317 1c8.443 2.705 16.883 3.295 25.694 3.278l3.37.018c3.697.017 7.394.02 11.09.023l7.986.03q8.574.033 17.147.048c8.264.014 16.527.04 24.791.068q20.115.067 40.23.113 19.53.045 39.06.105l2.436.007 12.095.037q50.111.154 100.222.273l-1 2a98134 98134 0 0 1-116.833.165l-2.483.002q-19.878.021-39.755.064-20.407.043-40.816.051-12.585.005-25.17.042-8.638.023-17.278.017-4.978-.004-9.956.017c-3.609.015-7.217.01-10.826.003l-3.136.026c-9.881-.06-18.962-1.222-26.497-7.95C93 351 93 351 93 349"/><path fill="#868887" d="M120.309 150.61c.966.005 1.933.01 2.93.017 3.066.022 6.132.072 9.198.123q3.132.03 6.264.055c5.1.044 10.2.113 15.299.195v2l-3.453.028c-4.257.04-8.514.106-12.77.18q-2.756.042-5.51.063c-2.653.022-5.303.068-7.954.12l-2.46.003c-7.234.183-12.435 2.346-17.728 7.293-2.665 4.155-3.317 7.464-4.125 12.313h18l-1 5v16h35v1q-8.538.149-17.078.22-2.901.03-5.801.082c-2.79.049-5.58.071-8.371.089l-2.593.062c-6.806.003-12.256-1.635-17.216-6.453l-1.379-2-1.433-2c-3.23-5.722-2.573-12.636-2.129-19 1.25-3.5 1.25-3.5 3-6l1.75-2.625c5.944-6.274 11.301-6.95 19.559-6.766"/><path fill="#151B3E" d="m73 258 2 1-1.61 1.285c-7.874 6.538-10.451 12.032-12.538 21.883-1.006 4.526-2.185 8.987-3.414 13.457l-.637 2.37c-.944 3.412-1.822 6.037-3.801 9.005-.68 2.255-1.296 4.53-1.875 6.813l-1.05 4.066-.538 2.082c-1.125 4.273-2.375 8.51-3.6 12.754a554 554 0 0 0-2.5 9.098c-.855 3.171-1.787 6.275-2.874 9.375-1.446 4.235-2.587 8.54-3.688 12.875l-.517 2.002c-3.932 15.79-4.424 33.903 3.068 48.763C42.59 419.767 46.296 425.098 52 427l1 3c2 1.209 2 1.209 4 2l-1 2c-10.217-5.797-20.432-12.1-24-24a193 193 0 0 1-1.473-9.523L30 398l-2-1v-20h2l.332-3.148C32.281 356.33 32.281 356.33 35 351l3-1c.917-2.385.917-2.385 1.473-5.312 1.433-6.306 3.141-12.485 4.965-18.688l.928-3.174c1.815-6.165 3.69-12.292 5.81-18.361 1.668-4.988 2.98-10.04 4.167-15.16C58.359 276.505 61.603 265.597 73 258"/><path fill="#878988" d="M350 151a1563 1563 0 0 1 17.395-.275q2.954-.037 5.906-.102c22.479-.484 22.479-.484 30.433 7.011 3.917 4.375 3.742 9.92 3.829 15.491l.045 2.352c-.114 6.242-2.03 9.827-6.39 14.386l-1.718 1.45-1.719 1.488c-3.132 2.108-6.294 2.324-9.999 2.313h-2.486l-2.655-.016-2.74-.005c-2.884-.005-5.768-.018-8.651-.03q-2.936-.008-5.871-.014A7224 7224 0 0 1 351 195v-9h1v8h35c.523-14.235.523-14.235-1-21h18c-1.902-9.178-1.902-9.178-7.988-15.879-5.521-3.077-10.751-3.446-16.91-3.535l-2.53-.059c-2.65-.06-5.298-.106-7.947-.152q-2.705-.057-5.41-.117-6.608-.143-13.215-.258z"/><path fill="#AD7205" d="M243 260c5.922 5.77 5.922 5.77 6.133 9.094l-.008 2.406.008 2.406C249 276 249 276 248 278h11l-.14-2.957-.11-3.856-.14-3.832c.39-3.355.39-3.355 2.406-5.304L263 261l-.5 1.563c-1.04 5.074-1.112 9.867 1.5 14.437a63 63 0 0 0 4 2c10.003 5.261 10.003 5.261 14 9v2q2.406.079 4.813.125l2.707.07c2.734-.012 2.734-.012 5.48-2.195l-.496 1.547c-.671 3.266-.597 6.372-.567 9.703l.028 3.828L294 306h-13l1-4c.571-3.913.832-7.428-1.059-11-5.157-6.486-12.068-9.095-19.941-11-13.51-1.453-26.058.399-37 9-1.486 2.972-1.132 5.696-1.125 9l-.008 3.813c-.09 3.084-.09 3.084 1.133 5.187l-14-1 .39-10.45c-.449-4.085-1.568-5.645-4.39-8.55l1-2 1.938 2.438c3.963 3.316 7.035 3.442 12.062 3.562l.781-1.812c3.02-5.42 8.82-8.183 14.469-10.188 3.491-1.307 4.77-2.022 7.438-4.812 1.618-3.93 1.297-6.095.312-10.188l-.562-2.437z"/><path fill="#929496" d="m410 288 3 1c1.063 2.441 1.063 2.441 2 5.563 1.113 3.593 2.225 7.133 3.625 10.625 4.017 10.755 5.853 23.87 1.402 34.761-4.993 9.967-11.4 15.395-22.027 19.051a84 84 0 0 1-5.812.625l-2.958.227L387 360v-1l-269-1v-1l1.742-.002a73367 73367 0 0 0 114.61-.206l2.472-.005c13.196-.031 26.392-.048 39.588-.06q20.325-.02 40.65-.082a7821 7821 0 0 1 25.063-.036q8.605-.001 17.21-.041 4.958-.023 9.914-.014c22.536.622 22.536.622 42.067-9.284 4.815-6.49 6.432-13.04 6.372-21.02v-2.715c-.263-8.978-2.95-16.784-6.157-25.094-1.362-3.606-1.886-6.544-1.531-10.441"/><path fill="#C37F05" d="M378 254c1.754 1.574 1.754 1.574 3 3h-4v-2c-4.562-.03-9.125-.047-13.687-.062l-3.92-.026-3.78-.01-3.475-.016c-2.84.103-5.378.46-8.138 1.114v2c-4.385 3-4.385 3-7 3l-.812 1.938C335 265 335 265 332 266c1.522 5.791 2.636 9.757 8 13 9.857 5.544 23.84 5.775 34.688 2.813 5.154-1.929 9.968-3.957 12.406-9.137A68 68 0 0 0 389 266h-2l-1-6c4.875 3.625 4.875 3.625 6 7 .366 5.587.299 9.258-3 14-8.644 8.475-18.937 10.422-30.617 10.629-4.242-.789-5.53-2.5-8.383-5.629-1.937-.71-1.937-.71-4-1q-2.942-1.241-5.875-2.5c-7.254-2.857-13.329-3.264-21.125-3.5v-14h1v13h10l-.176-2.633c-.364-9.306-.364-9.306 1.926-13.805 11.067-10.555 32.118-13.15 46.25-7.562"/><path fill="#D38800" d="M120 313v2h-2q-.29 3.155-.562 6.313l-.317 3.55c-.307 3.167-.307 3.167.879 6.137 1.783 1.137 1.783 1.137 4 2l2.438 1.035c.845.34 1.69.678 2.562 1.027l2.563 1.036c10.613 3.929 21.001 2.273 31.378-1.614 3.724-1.807 7.162-3.69 9.059-7.484.226-1.704.409-3.413.563-5.125l.253-2.758L171 317c2.185 1.743 2.936 2.666 3.469 5.453.06 5.392-.018 9.727-3.574 13.98-11.032 9.122-24.254 9.855-37.895 8.567-7.753-1.571-14.567-5.094-19.812-11.062-1.875-4.638-2.079-9.022-1.188-13.938 1.799-3.196 4.045-7 8-7"/><path fill="#D2AB2A" d="M384 315c3.564 3.449 5.151 5.264 5.313 10.25-.068 4.68-1.203 7.149-4.313 10.75-8.414 8.04-17.172 9.196-28.25 9.313l-2.738.087c-8.967.084-15.913-2.952-23.012-8.4-3.708-3.843-4.549-6.305-4.5-11.625l-.031-3.414C327 319 327 319 329.03 317.1L331 316l-.395 1.977c-.749 4.746-1.12 7.153 1.395 11.398 8.57 7.5 17.695 9.148 28.906 8.945 8.62-.892 17.127-3.969 23.031-10.445 1.612-4.36.791-8.358.063-12.875"/><path fill="#D28703" d="M259 316c1 2 1 2 .375 5.25-.457 4.57-.157 6.094 2.625 9.75 10.04 6.608 21.138 8.51 32.934 6.5 6.19-1.511 13.658-3.684 17.242-9.363.905-2.346 1.228-4.386 1.449-6.887l.227-2.422L314 317l2 1c1.625 4.875 2.016 10.077.305 15-3.764 6.245-11.42 9.569-18.209 11.558-10.33 2.179-23.921 1.858-33.096-3.558-4.285-3.053-8.02-6.013-10-11-.43-5.43-.392-8.523 3-13z"/><path fill="#575A59" d="m126.938 152.813 3.228.04q3.918.054 7.834.147c-1 2-1 2-4.25 3.75-2.788 1.511-4.596 3.011-6.562 5.5L125 165h-2l-.875 1.75L119 173h-19c1.133-10.195 1.133-10.195 4.125-13.375l1.695-1.898c6.667-5.281 12.923-5.113 21.118-4.915"/><path fill="#585A5A" d="M366 153c3.5-.088 7-.14 10.5-.187l2.977-.077c7.035-.07 12.56.602 18.546 4.623C402.58 162.046 404 166.388 404 173h-19l-3-6c-3.54-4.06-7.736-7.208-12.012-10.45C368 155 368 155 366 153"/><path fill="#BA7606" d="M206 287c2.363 1.654 3.565 2.556 5 5 .57 4.547 1.093 9.813-1 14h12v1l-3.586.332c-15.158.924-15.158.924-28.039 7.918-3.921 3.237-7.685 3.163-12.562 2.875l-2.09-.112c-4.795-.458-7.193-1.858-10.723-5.013-11.05-6.411-22.647-5.54-35-5 3.1-2.067 3.73-2.245 7.23-2.195l2.432.02 2.525.05 2.561.027c2.084.024 4.168.06 6.252.098l-.973-2.25c-1.377-3.686-1.832-6.873-1.027-10.75 2.5-3 2.5-3 5-5l-.324 1.793-.363 2.394-.387 2.356c.1 3.303 1.08 4.842 3.074 7.457 2.349 1.823 2.349 1.823 5 3.25l2.625 1.516c5.266 2.737 10.133 2.49 15.938 2.546l2.884.088c8.199.073 14.718-1.843 21.553-6.4 2.98-2.98 3.899-4.784 4.25-9-.242-2.905-.74-4.546-2.25-7"/><path fill="#121B48" d="M456 320c2.447 2.447 2.762 4.16 3.656 7.488l.91 3.33.934 3.495q.918 3.4 1.844 6.8l.818 3.056c.797 2.693 1.777 5.233 2.838 7.831.516 2.232.931 4.465 1.34 6.719.54 2.367.54 2.367 2.17 4.298 2.151 4.307 1.977 8.243 1.994 12.999l.03 2.94q.022 3.076.022 6.153c.006 3.117.06 6.231.118 9.348q.014 2.998.017 5.996l.066 2.795c-.075 7.123-2.379 11.245-6.757 16.752l-1.572 2.256L463 424h-2v2c-5.51 4.224-11.167 7.633-18 9v2h-39c6.08-3.04 12.222-3.065 18.9-3.29 12.434-.438 22.098-2.768 33.1-8.71l2.219-.96c2.745-1.603 2.847-4.112 3.781-7.04l3-1 .402-2.098q.612-2.963 1.352-5.898c5.488-23.36 1.447-45.645-6.36-67.918C458.119 333.547 456 326.956 456 320"/><path fill="#343636" d="M350 149c6.404-.102 12.809-.172 19.214-.22q3.264-.03 6.53-.082c3.137-.049 6.274-.071 9.412-.089l2.924-.062c7.332-.003 12.713 1.537 18.197 6.523l1.66 2.055 1.715 2.07c4.562 6.11 3.185 16.553 2.348 23.805-2.322 6.683-7.157 10.362-13 14l-3 2 1 2q-2.188-.716-4.375-1.437l-2.46-.81C388 198 388 198 386 197a209 209 0 0 0-7.852-.316l-2.345-.063q-3.714-.097-7.428-.184l-5.031-.13Q357.17 196.146 351 196v-1l3.653-.044c4.493-.058 8.986-.136 13.48-.218q2.91-.051 5.822-.084c2.798-.034 5.595-.086 8.393-.142l2.608-.02c6.142-.148 11.26-1.002 16.005-5.246l1.414-1.809 1.46-1.816c2.771-3.858 2.423-7.725 2.478-12.309l.087-2.396c.06-5.52-.532-9.781-4.4-13.916-8.475-7.41-21.108-5.784-31.625-5.812q-2.967-.036-5.934-.077c-4.813-.062-9.627-.095-14.441-.111z"/><path fill="#2F3131" d="M112.563 148.886h2.79l3.002.016 3.082.005c3.25.005 6.5.018 9.75.03q3.304.008 6.608.014 8.102.017 16.205.049v2l-3.912.012c-4.816.022-9.632.077-14.447.14q-3.12.036-6.239.044c-3 .009-5.997.05-8.996.097l-2.791-.012C111.2 151.424 107.01 152.96 102 157c-5.165 5.51-5.38 11.603-5.25 18.836.434 5.49 1.979 8.652 5.563 12.914 5.911 4.95 10.805 5.707 18.242 5.762l2.732.054c2.862.054 5.725.088 8.588.121q2.922.05 5.844.104 7.14.125 14.281.209c-3.591 2.258-6.455 2.182-10.637 2.055l-3.94-.075q-3.073-.072-6.146-.172c-7.617-.234-13.896-.407-20.651 3.42L109 201l-2-1 1-2-3.625-1.563C98.655 193.598 95.476 189.215 92 184c-.508-3.378-.463-6.775-.5-10.188l-.125-2.79c-.07-6.14 1.025-9.636 4.97-14.365 4.736-4.741 9.386-7.79 16.218-7.77"/><path fill="#072085" d="M446 426v2c-5.47 1.845-10.188 2.253-15.937 2.125l-2.362-.027c-1.9-.024-3.8-.06-5.701-.098l-1 3c-3.597 1.91-6.645 2.25-10.675 2.246l-3.45.012-3.777-.017q-2.01 0-4.022.005c-3.683.004-7.365-.004-11.048-.014-3.972-.009-7.944-.006-11.916-.004q-10.323.001-20.644-.017c-9.95-.016-19.899-.021-29.848-.024q-24.212-.007-48.425-.036-23.52-.028-47.042-.041l-2.929-.002-14.545-.007Q152.339 435.068 92 435v-1l323-1 1-4c1.663-1.663 3.701-1.207 5.988-1.281l3.08-.114 3.245-.105q3.15-.103 6.3-.219l2.837-.092c2.928-.217 5.633-1.189 8.55-1.189"/><path fill="#26A0DF" d="m442 403 2 1c-1.256.958-2.53 1.89-3.812 2.813l-2.145 1.582c-8.97 4.732-18.25 5.034-28.198 4.966q-2.105.002-4.21.008c-3.83.006-7.658-.006-11.487-.02-4.14-.014-8.28-.01-12.419-.007q-10.744.001-21.488-.025a15567 15567 0 0 0-31.068-.036q-25.206-.01-50.412-.055-24.478-.041-48.956-.061l-3.05-.003-15.153-.011c-41.867-.031-83.735-.084-125.602-.151v-1l2.126-.003a145986 145986 0 0 0 139.805-.26l3.016-.006q24.148-.051 48.296-.081 24.792-.033 49.583-.099 15.289-.04 30.577-.05 10.494-.01 20.989-.047c4.032-.014 8.064-.023 12.096-.019q5.55.004 11.1-.028c1.955-.008 3.909-.001 5.863.006 8.568-.068 16.244-1.328 24.549-3.413v-2c2.652-1.075 5.284-2.095 8-3"/><path fill="#D28801" d="m148.125 251.75 3.477.055q4.2.07 8.398.195l1 2-2.216-.048a1379 1379 0 0 0-9.971-.14l-3.487-.076-3.369-.029-3.094-.048c-3.3.393-5.112 1.54-7.863 3.341l-2.437.188c-3.774 1.196-5.09 3.882-7.231 7.097L120 266h-2c1.336 6.195 3.283 9.525 8.742 13.16 4.666 2.794 8.446 3.903 13.805 4.156l2.558.127 2.645.12 2.691.13q3.28.159 6.559.307c-5.109 6.683-5.109 6.683-8.316 7.824-10.566-.643-20.953-3.251-28.684-10.824-3.188-3.686-3.528-7.062-3.348-11.793.822-5.217 4.49-8.914 8.55-12.05 7.98-5.134 15.64-5.688 24.923-5.407"/><path fill="#C0C0C4" d="M371 210c3.83 3.839 4.615 7.112 5.52 12.248 1.35 8.503 1.35 8.503 6.257 15.186 3.033 1.383 6.076 2.477 9.223 3.566 8.074 5.484 10.247 15.383 12.844 24.242.877 2.852 1.81 5.645 2.812 8.453l.86 2.442q.846 2.392 1.73 4.771c1.938 5.535 1.938 5.535.918 8.62L410 291c-2.216-3.324-3.552-6.721-4.937-10.437-.27-.716-.538-1.432-.815-2.17-1.533-4.174-2.81-8.303-3.81-12.643-2.293-9.627-4.717-17.556-13.028-23.48-2.49-1.313-4.466-1.695-7.223-2.145-2.238-.617-2.238-.617-4.187-2.125-3.487-8.78-4.594-18.608-5-28"/><path fill="#D08301" d="M194 259v2l-2 1c-1.241 3.724-1.523 7.13-1 11 2.698 4.947 6.917 7.007 12 9 3.475.83 6.957 1.312 10.5 1.75l2.781.379q3.357.454 6.719.871l-2 3c-2.715.363-2.715.363-5.937.313l-3.215-.012C209 288 209 288 206 286a206 206 0 0 0-5-2l-3.437-1.562c-12.333-4.977-26.096-3.392-38.098 1.468L157 285l-1-2 2.957-1.172 3.856-1.578 1.947-.766c3.778-1.566 6.273-2.835 8.24-6.484 1.391-4.696 1.33-8.613-1-13 2.446 1.65 3.576 2.471 5 5 .449 4.363.288 8.63 0 13h10l-.176-2.633c-.414-10.588-.414-10.588 2.551-14.18C192 259 192 259 194 259"/><path fill="#D18909" d="M120 313v2h-2q-.29 3.155-.562 6.313l-.317 3.55c-.307 3.167-.307 3.167.879 6.137 1.833 1.125 1.833 1.125 4 2l4 2v6c13.736 1.85 29.32 3.547 41-5h2v-2h2c-1.057 3.007-1.925 3.953-4.68 5.668l-3.195 1.52-3.18 1.542c-10.21 4.401-24.093 3.867-34.382.02-5.787-2.497-11.133-5.738-13.563-11.75-.726-4.684-1.105-9.037 1.277-13.27 3.94-4.73 3.94-4.73 6.723-4.73"/><path fill="#999" d="M352 211c5.398 2.16 6.277 3.138 9 8 1.252 4.05 1.11 8.05 1.063 12.25l-.014 2.258q-.02 2.745-.049 5.492h-10z"/><path fill="#232523" d="M250 194v1l-6 1v4l-1.8.445c-11.846 3.206-20.482 9.025-29.2 17.555l-1.734 1.688A211 211 0 0 0 208 223v-2l-3 1c.364-5.066 3.077-7.695 6.563-11.062l1.64-1.615C217.18 205.52 220.885 203.1 226 201c.614-.48 1.227-.96 1.86-1.453 6.33-4.575 14.483-6.136 22.14-5.547"/><path fill="#626262" d="M156 210c.192 9.695-.404 19.329-1 29h-9c-1.07-17.79-1.07-17.79 1.488-23.074C152.778 210 152.778 210 156 210"/><path fill="#D68B01" d="M386 260c4.875 3.625 4.875 3.625 6 7 .366 5.587.299 9.258-3 14-7.607 7.458-16.742 10.341-27.187 10.25-2.272-.063-4.543-.14-6.813-.25l-1-3 18-1 1-2-4-2 1.941-.48c5.623-1.517 11.109-3.01 15.059-7.52 1.378-2.928 2.28-5.85 3-9h-2z"/><path fill="#2F313B" d="M36 350h1c-.665 5.716-1.938 11.224-3.281 16.816C30.486 381.135 31.074 395.886 35 410h2c1.297 1.977 1.297 1.977 2.75 4.625 3.082 5.312 6.177 10.35 12.25 12.375l1 3c2 1.209 2 1.209 4 2l-1 2c-10.217-5.797-20.432-12.1-24-24a193 193 0 0 1-1.473-9.523L30 398l-2-1v-20h2l.332-3.148C32.613 353.387 32.613 353.387 36 350"/><path fill="#D48700" d="m314 317 2 1c1.625 4.875 2.016 10.077.305 15-3.764 6.245-11.42 9.569-18.209 11.558-10.42 2.198-23.78 1.753-33.096-3.558-2.23-1.547-4.046-3.099-6-5 3 0 3 0 6.125 1.875 7.434 4.387 15.515 4.402 23.938 4.25l2.912-.027q3.512-.036 7.025-.098v-2l4-2-2-2 1.863-.918c6.435-3.191 6.435-3.191 10.137-9.082.5-2.994.809-5.971 1-9"/><path fill="#D38600" d="m330 316 1 3-1 1c-.565 4.046-.216 5.673 2.063 9.125 6.051 6.458 13.497 8.65 22.146 8.952 5.266.087 10.526.026 15.791-.077l-2 1v3c-13.5 1.609-24.333 1.778-36-6l-1-3-3 1c-1.415-2.83-1.208-5.284-1.25-8.437l-.078-3.497C327 319 327 319 328.516 317.09z"/><path fill="#939594" d="M120.309 150.61c.966.005 1.933.01 2.93.017 3.066.022 6.132.072 9.198.123q3.132.03 6.264.055c5.1.044 10.2.113 15.299.195v2l-3.453.028c-4.257.04-8.514.106-12.77.18q-2.756.042-5.51.063c-2.653.022-5.303.068-7.954.12l-2.46.003c-6.59.167-12.038 1.922-16.876 6.536-4.319 6.215-6.07 11.504-6.977 19.07h-2c-.558-13.918-.558-13.918 3-19l1.75-2.625c5.944-6.274 11.301-6.95 19.559-6.766"/><path fill="#2D303B" d="M76 254v3c-1.828 1.648-1.828 1.648-4.25 3.375-10.546 7.548-13.51 19.12-15.977 31.36-.8 3.38-1.857 6.585-2.98 9.869-1.34 4.05-2.46 8.162-3.605 12.271C45.763 326.013 42.017 338.045 38 350h-1c.747-6.432 2.29-12.604 3.875-18.875l.777-3.145c1.382-5.505 2.897-10.894 4.802-16.242.646-1.752.646-1.752.546-3.738h2l.281-3.297c.693-5.537 2.462-10.676 4.219-15.953q.955-2.913 1.906-5.828l.854-2.575c.47-1.493.9-2.999 1.274-4.518C60.1 265.758 67.58 259.235 76 254"/><path fill="#3A3008" d="m329 315 2 1-1.457 1.082c-2.227 2.769-2.057 5.1-2.23 8.606l-.2 3.574L327 332h-2v-13h-7l1 3c.068 1.728.085 3.458.063 5.188l-.028 2.73L319 332h-2l-.5 2.125c-3.107 5.955-8.836 8.875-14.937 11.25-11.864 3.594-25.088 2.9-36.165-2.687-2.167-1.181-4.293-2.401-6.398-3.688v-2l1.684.871c2.423 1.181 4.873 2.197 7.378 3.192l2.598 1.035c9.955 3.839 22.803 3.368 32.777-.286 5.93-2.683 8.966-5.417 12.563-10.812.317-2.344.317-2.344.25-4.875l.016-2.555c-.292-2.821-1.103-4.995-2.266-7.57l3.027.035c1.29.01 2.581.018 3.91.027l3.903.036c3.023.267 3.023.267 4.16-1.098"/><path fill="#D38600" d="M242 317c2.944 2.816 3.95 4.104 4.188 8.313-.18 3.512-.455 5.654-2.188 8.687-1.75 1.063-1.75 1.063-4 2l-2.875 2c-6.437 4.12-12.084 4.263-19.5 4.125l-2.809-.027A861 861 0 0 1 208 342v-3l3.148-.332c15.785-1.47 15.785-1.47 28.852-9.668 2.136-3.204 2.231-4.02 2.125-7.687l-.055-2.45z"/><path fill="#373A3A" d="M253 223c4.638 2.32 5.117 3.568 7.25 8.125l1.578 3.32L263 237c-1.793 2.29-2.67 2.95-5.594 3.398l-2.906-.023-2.906.023C249 240 249 240 246 237z"/><path fill="#31301C" d="m294 288 1 2-1 2c-.071 2.374-.084 4.75-.062 7.125l.027 3.883L294 306h-13l1-4q.134-2.248.125-4.5l.008-2.281c-.131-2.193-.53-4.112-1.133-6.219l3 1c2.723.232 5.25.13 8 0z"/><path fill="#969797" d="M350 151a1563 1563 0 0 1 17.395-.275q2.954-.037 5.906-.102c21.772-.47 21.772-.47 28.699 5.377 3.321 3.785 5.088 6.364 4.813 11.5L406 170l-3-1c-.691-1.975-1.382-3.95-2.062-5.93-1.925-4.25-5.322-6.393-9.581-8.177-4.147-1.103-7.983-1.245-12.255-1.307l-2.53-.059c-2.65-.06-5.298-.106-7.947-.152q-2.705-.057-5.41-.117-6.608-.143-13.215-.258z"/><path fill="#353119" d="m206 285 2.438 2.438c3.829 3.25 7.683 3.443 12.562 3.562l.148 2.738.227 3.575c.07 1.171.14 2.343.21 3.55.201 3.294.201 3.294 2.415 6.137l-14-1 .39-10.45c-.452-4.114-1.647-5.553-4.39-8.55z"/><path fill="#14215D" d="M52 429c5.416.855 5.416.855 7.922 1.477 5.93 1.408 11.7 1.742 17.766 1.96 8.714.32 16.834 1.52 25.312 3.563v1H61v-2l-4-1v-2l-5-2z"/><path fill="#229ACC" d="M110 218h3l-.656 3.832-.844 4.98-.434 2.526-.41 2.432-.38 2.237c-.344 2.153-.344 2.153-.276 4.993-1.207 1.648-1.207 1.648-2.812 3.375-2.445 2.722-4.428 5.398-6.188 8.625l-2-2 1.313-3.562c1.467-4.308 2.283-8.583 3.062-13.063 1.155-6.049 2.308-9.95 6.625-14.375"/><path fill="#CBD1D1" d="m93 349 1.715.875c7.582 3.733 14.92 5.916 23.285 7.125v2h86v1q-17.682.106-35.364.155c-5.475.016-10.95.037-16.424.071-5.291.033-10.582.05-15.873.059q-3.015.008-6.032.032c-26.997.21-26.997.21-36.057-7.88C93 351 93 351 93 349"/><path fill="#BDBDC1" d="M418 319h1q.334 3.999.625 8l.195 2.254c.54 7.762-.667 14.598-5.668 20.785-6.843 6.235-15.802 9.596-24.945 10.281-2.685-.39-3.536-1.24-5.207-3.32l3.219-.516c10.26-1.722 18.467-3.138 25.457-11.41 3.812-5.97 4.803-11.058 5.012-18.012l.103-2.36c.082-1.9.147-3.801.209-5.702"/><path fill="#2B99C8" d="M54 374h1l.043 3.148c.263 9.314 1.01 17.094 7.34 24.461 3.685 3.423 7.934 4.857 12.617 6.391v2l7 1v1c-8.745.76-16.416-2.814-23.176-8.23C54.03 399.12 50.35 393.82 50 387l3 2z"/><path fill="#D58603" d="m148.125 251.75 3.477.055q4.2.07 8.398.195l1 2-2.216-.048a1379 1379 0 0 0-9.971-.14l-3.487-.076-3.369-.029-3.094-.048c-3.3.393-5.112 1.54-7.863 3.341l-2.437.188c-3.774 1.196-5.09 3.882-7.231 7.097L120 266h-2c1.151 4.516 2.55 8.057 5 12 .688 2.313.688 2.313 1 4-3.174 0-4.38-.31-7-2-2.565-4.218-2.67-8.19-2-13 3.72-7.442 9.56-11.251 17.067-14.175 5.31-1.493 10.586-1.24 16.058-1.075"/><path fill="#2C2E2D" d="M350 149c6.404-.102 12.809-.172 19.214-.22q3.264-.03 6.53-.082c3.137-.049 6.274-.071 9.412-.089l2.924-.062c6.057-.002 10.949.784 15.92 4.453l2 3-2 4-2.062-2.312c-6.111-5.591-11.856-6.142-19.81-6.2l-2.794-.054c-2.924-.054-5.847-.088-8.772-.121q-2.987-.05-5.974-.104c-4.863-.085-9.725-.152-14.588-.209z"/><path fill="#525556" d="m348 208 6 2-2 1v28c-3.173 1.586-6.588 1.12-10.07 1.098l-2.413-.005c-2.547-.005-5.095-.018-7.642-.03q-2.587-.008-5.176-.014A5665 5665 0 0 1 314 240v-1h35z"/><path fill="#2298CC" d="M393 218c6.154 5.506 7.218 11.4 8.625 19.188l.406 2.154c.54 2.931.969 5.67.969 8.658-3.889-1.296-6.044-3.472-8-7-.125-3.812-.125-3.812.023-5.852-.035-3.286-1.232-6.04-2.351-9.097-.8-2.44-.99-4.502-.672-7.051z"/><path fill="#2F3138" d="M454 306c2 1 2 1 2.781 3.293l.719 2.894c1.009 4.009 2.167 7.9 3.5 11.813 2.17 6.671 4.063 13.036 5 20q.715 2.23 1.5 4.438c1.483 4.208 2.097 8.124 2.5 12.562h2v5c-3.846-3.321-4.854-7.154-5.848-11.984-1.2-5.48-2.853-10.79-4.527-16.141-2.098-6.812-4.19-13.622-6.062-20.5l-.934-3.414c-.587-2.762-.76-5.15-.629-7.961"/><path fill="#1A1F1D" d="M271 196v2c-2.818 1.41-5.173 1.112-8.32 1.098l-3.809-.01-3.996-.025q-2.01-.008-4.02-.014-4.928-.018-9.855-.049l3-1-1-3c9.11-1.735 19.234-2.34 28 1"/><path fill="#D68708" d="m225 287 1 2-1 2c-.607 5.329-.607 5.329 1.5 9.875L228 302v2l2.188.875L233 306l2.75.875C238 308 238 308 238.688 310l.312 2 2 2c-3.139 0-4.087-.416-6.75-1.875-2.718-1.432-5.202-2.467-8.187-3.187L223 308c-1.154-3.463-1.204-6.288-1.25-9.937l-.078-3.715c.344-3.51.936-4.836 3.328-7.348"/><path fill="#EBFBFD" d="M81 321h1l.227 3.586c.948 12.226 3.27 21.03 12.773 29.414-4.03-.576-6.838-1.391-10-4-4.182-6.861-6.142-12.61-6.187-20.625l-.043-3.477C79 323 79 323 81 321"/><path fill="#9E9E9D" d="M151 213c1.324 2.648 1.019 4.49.879 7.445l-.147 3.262-.17 3.418-.158 3.441q-.195 4.218-.404 8.434h-5a454 454 0 0 1-.312-9.625l-.127-2.738c-.084-4.593-.06-7.662 2.959-11.285z"/><path fill="#D4AC29" d="m186 333 2.688 2.25c10.805 7.525 24.574 8.321 37.312 6.75 6.724-1.76 11.695-4.558 17-9-1.797 4.575-4.75 6.874-9.098 9.05-6.383 2.753-11.853 3.623-18.777 3.512l-2.914-.026c-10.23-.293-18.956-3.08-26.211-10.536z"/><path fill="#D68900" d="M384 315c4.899 4.741 4.899 4.741 5.168 8.094l.02 2.406.042 2.406c-.37 3.359-3.16 4.96-5.605 7.094l-1.773 1.563c-3.994 3.1-6.796 3.667-11.852 3.437 3.387-3.566 7.25-6.466 11.25-9.312 3.394-3.317 3.668-5.007 3.75-9.688-.369-3.307-.369-3.307-1-6"/><path fill="#C17301" d="M297 305v2l3.875-.187c4.568-.015 8.247 1.02 12.55 2.453 4.129 1.177 8.304 1.47 12.575 1.734v1l-3.25.313c-3.705.679-4.948 1.386-7.75 3.687-3 0-3 0-5.437-1.75-8.786-6.066-19.187-6.943-29.563-7.25v-1q3.406-.251 6.813-.5l3.832-.281A98 98 0 0 1 297 305"/><path fill="#393007" d="m243 334 1 2c-1 3-1 3-3.441 4.535l-3.121 1.527-3.067 1.536c-6.56 2.729-12.66 3.769-19.746 3.714l-2.245-.01c-8.287-.164-15.117-2.288-22.38-6.302v-2l-4-2 1-2 1.688 1.207 2.312 1.606 2.25 1.582c7.099 4.144 13.382 5.16 21.563 5.105l2.949-.013c10.385-.246 17.71-3.365 25.238-10.487"/><path fill="#AF780C" d="M172 260c2.446 1.65 3.576 2.471 5 5 .449 4.363.288 8.63 0 13h10v-13h1v14l-3.227.043c-10.188.284-18.383 1.924-27.773 5.957l-1-2 2.957-1.172 3.856-1.578 1.947-.766c3.778-1.566 6.273-2.835 8.24-6.484 1.391-4.696 1.33-8.613-1-13"/><path fill="#D38A05" d="M280 290c1.956 1.626 2.912 2.504 3.363 5.05l-.05 2.262-.012 2.239c-.389 3.163-.89 5.568-2.301 8.449-2.934 1.242-2.934 1.242-6.437 1.875l-3.497.68C268 311 268 311 265 311v-2a77 77 0 0 1 4.75-2.75c4.36-2.546 7.05-4.562 9.25-9.25.797-3.732.797-3.732 1-7"/><path fill="#D3AE26" d="M169 334h2c-1.057 3.007-1.925 3.953-4.68 5.668l-3.195 1.52-3.18 1.542c-10.261 4.423-24.155 3.83-34.507.02-3.947-1.663-6.133-3.118-8.438-6.75l1.727.902c2.191 1.058 4.342 1.888 6.648 2.66l2.21.754c9.895 2.802 23.683 3.46 33.415-.316 2.13-1.21 4.018-2.55 6-4h2z"/><path fill="#D7AF29" d="M259 335c2.257 1.129 4.483 2.27 6.688 3.5 10.786 4.884 25.511 5.693 36.687 1.563Q304.69 339.037 307 338a76 76 0 0 1 4-1c-5.521 5.973-11.748 7.893-19.781 8.39-10.92.365-21-.033-29.906-7.077L259 336z"/><path fill="#D69310" d="M337 309a178 178 0 0 1-4 4l-2 2.25c-4.639 2.706-9.748 2.611-15 1.75l-2-3 3-2-1-2q3.843-.253 7.688-.5l2.185-.145c3.715-.237 7.404-.414 11.127-.355"/><path fill="#392C06" d="m264 310 2 1-1.898 1.363c-4.83 3.802-7.598 6.436-8.664 12.637a95 95 0 0 0-.438 5h-2v-11h-6l.105 2.773.083 3.602.105 3.586L247 332l-3 2 .5-2.062c.88-5.173 1.276-8.611-1.437-13.25L241 316l-1-2 2.133.969c4.904 1.764 9.74 1.843 14.867 1.031 2.822-1.623 4.905-3.521 7-6"/><path fill="#C49E15" d="M378 254c1.754 1.574 1.754 1.574 3 3h-4v-2c-4.562-.03-9.125-.047-13.687-.062l-3.92-.026-3.78-.01-3.475-.016c-2.84.103-5.378.46-8.138 1.114v2c-4.385 3-4.385 3-7 3l-.875 1.938C335 265 335 265 333 266c.244-3.054.396-4.454 2-7 11.796-7.716 29.48-10.345 43-5"/><path fill="#2A69D0" d="M40 384h2c.182.797.364 1.593.55 2.414 1.517 6.812 1.517 6.812 4.2 13.211L48 402l-1 2-4-1 2 9h2l-1 4c-7.358-8.821-6.371-21.172-6-32"/><path fill="#D18000" d="m347 283 27 1-2 4c-3.042.304-6.078.569-9.125.813l-2.594.271c-4.47.327-7.329.406-10.898-2.51C347 284 347 284 347 283"/><path fill="#44330A" d="M348 285c2.186.98 3.769 1.735 5.359 3.556 2.138 1.88 3.277 1.794 6.09 1.737l2.569-.03 2.67-.075 2.705-.042A550 550 0 0 0 374 290c-5.428 3.619-11.683 3.11-18 3v10l14 2v2l-17-1 .313-7.125c.176-6.367.176-6.367-2.813-11.812z"/><path fill="#BABAC0" d="M85 318h1l.078 3.367C86.434 331.835 87.313 340.498 94 349l-1 2 4 2c-3.53 0-4.835-1.025-7.437-3.309-3.466-3.751-6.388-8.254-6.758-13.41C83 334 83 334 84 333c.237-2.526.422-5.031.563-7.562l.13-2.155q.159-2.64.307-5.283"/><path fill="#2D2F3A" d="m100 205 2 1-1.172 1.582c-7.252 10.25-9.47 20.65-11.346 32.89l-.455 2.81-.383 2.532c-.733 2.487-1.68 3.538-3.644 5.186.326-3 .662-6 1-9l.254-2.344c.633-5.543.633-5.543 1.746-6.656.223-1.748.428-3.499.625-5.25 1.291-8.23 5.004-17.12 11.375-22.75"/><path fill="#BEBDC1" d="m101 262 2 2c-.339 5.661-2.11 10.65-4.062 15.938l-.854 2.36Q97.05 285.153 96 288l-4-1c5.023-17.046 5.023-17.046 9-25"/><path fill="#222439" d="M36 410a586 586 0 0 1 4.465 6c4.688 6.833 4.688 6.833 11.535 11l1 3c2 1.209 2 1.209 4 2l-1 2c-16.544-9.387-16.544-9.387-21-17 .25-3.812.25-3.812 1-7"/><path fill="#E5EBEC" d="M347 218h2v21h-36v-1l34-1z"/><path fill="#192C74" d="m36 408 1.188 1.438c1.723 1.797 1.723 1.797 4.25 1.75C44 412 44 412 45.176 413.73A69 69 0 0 1 49 423l3 1v2l3 1v2h-3v-2l-1.785-.312c-6.503-2.019-10.34-9.116-13.367-14.77C36 410 36 410 36 408"/><path fill="#493207" d="m155 284 2 1-1.531 1.469c-4.604 4.604-4.604 4.604-5.969 10.719.391 2.984.89 5.87 1.5 8.812l-3.691.148-4.871.227-2.424.094c-4.978.244-9.278.967-14.014 2.531v-2c4.689-2.35 9.177-2.43 14.313-2.625l2.533-.117c2.05-.094 4.102-.177 6.154-.258l-1-2a78 78 0 0 1-.062-4.625l.027-2.477L148 293l-5.86.195c-2.442-.223-4.026-.986-6.14-2.195l2.633-.008c7.832-.044 7.832-.044 14.18-4.055z"/><path fill="#5C3C01" d="m294 288 1 2-1 2c-.071 2.374-.084 4.75-.062 7.125l.027 3.883L294 306h-13l2-4v3h8v-12h-7v8h-1l-2-12 3 1c2.723.232 5.25.13 8 0z"/><path fill="#D68A06" d="M171 317c2.3 1.796 2.951 2.652 3.363 5.594l-.05 2.906-.012 2.906C174 331 174 331 172 334h-3v2l-4 2-2-2c1.162-2.852 2.142-4.117 4.563-6.125 3.417-4.031 3.327-7.731 3.437-12.875"/><path fill="#202121" d="M215 208c2 1 2 1 2.902 2.734C218 213 218 213 216.13 215.578l-2.566 2.672-2.56 2.703c-.66.676-1.322 1.351-2.003 2.047l-1-2-3 1c.457-4.682 2.191-6.631 5.563-9.812l2.503-2.395z"/><path fill="#181F4B" d="M52 429c5.365.847 10.679 1.917 16 3v2l3.938.375c2.214.21 2.214.21 4.062.625l1 2H61v-2l-4-1v-2l-5-2z"/><path fill="#D08502" d="M313 259c3.161 1.37 3.993 1.99 6 5 .142 2.602.188 5.091.125 7.688l-.027 2.126c-.024 1.73-.06 3.458-.098 5.186-1.455.39-2.914.76-4.375 1.125l-2.46.633L310 281l-2-2 2.375-.875c2.722-.974 2.722-.974 4.625-3.125.32-2.497.32-2.497.25-5.312l.016-2.864c-.278-2.95-1.035-5.143-2.266-7.824"/><path fill="#07338C" d="m137.438 196.875 2.505.027c2.02.024 4.038.06 6.057.098-3.097 1.758-5.734 2.355-9.25 2.813-4.88.803-8.196 2.29-12.191 5.164C123 206 123 206 121 206c0-3 0-3 1-4l-1-3c5.623-1.917 10.524-2.249 16.438-2.125"/><path fill="#BFBDC3" d="M402 268c1.89.257 1.89.257 4 1 1.037 1.702 1.037 1.702 1.773 3.895l.809 2.396.793 2.522.863 2.486c1.999 6.13 1.999 6.13.823 8.97L410 291c-2.31-3.465-3.676-7.065-5.125-10.937l-.84-2.17C402.705 274.358 402 271.82 402 268"/><path fill="#103082" d="M446 426v2c-5.47 1.845-10.188 2.253-15.937 2.125l-2.362-.027c-1.9-.024-3.8-.06-5.701-.098l-1 3-9 1 3-1c.662-1.98.662-1.98 1-4 1.663-1.663 3.701-1.207 5.988-1.281l3.08-.114 3.245-.105q3.15-.103 6.3-.219l2.837-.092c2.928-.217 5.633-1.189 8.55-1.189"/><path fill="#CF9403" d="m386 331 1 3c-10.614 10.063-10.614 10.063-18.55 9.95A221 221 0 0 1 358 343v-1h10v-3l3.5.313c5.095.018 8.648-2.103 12.5-5.313zm-10 5-6 3-2-2c5.75-2.125 5.75-2.125 8-1"/><path fill="#3D2D08" d="m206 285 2.438 2.438c3.923 3.33 7.531 3.333 12.562 3.562v12h-2v-10h-6v11h-2l-.078-2.45c-.336-8.094-.336-8.094-4.922-14.55z"/><path fill="#D0870B" d="M206 287c2.363 1.654 3.561 2.558 5 5 .554 4.04.567 7.96 0 12-2.495 2.495-3.673 2.36-7.125 2.625l-2.758.227L199 307l2.25-1.625c3.884-3.354 6.5-6.299 7.125-11.5-.36-2.762-.926-4.52-2.375-6.875"/><path fill="#D1AC22" d="m383 283 2 1c-9.5 7.063-18.456 7.41-30 7l-1-3 1.8-.028a754 754 0 0 0 8.2-.222l2.832-.043c6.475-.226 10.511-1.596 16.168-4.707"/><path fill="#49330D" d="M312 257c4.454 1.36 6.47 3.1 9 7 .39 3.332.39 3.332.25 6.813l-.11 3.519L321 277l7-1c-.095-.603-.19-1.207-.29-1.828l-.335-2.422-.352-2.39c-.026-2.682.611-4.087 1.977-6.36l3 1-1 1a168 168 0 0 0-.562 6.563l-.254 3.628L330 278h-10l-.078-2.668-.172-3.52-.14-3.48c-.923-5.046-3.993-7.896-7.61-11.332"/><path fill="#22282E" d="M100 189c2.68 1.025 5.113 2.068 7.583 3.542 4.432 1.89 8.204 1.935 12.972 1.97l2.732.054c2.862.054 5.725.088 8.588.121q2.922.05 5.844.104c4.76.085 9.52.152 14.281.209-3.623 2.282-6.626 2.219-10.848 2.16l-1.979-.016a851 851 0 0 1-6.236-.082q-3.123-.042-6.246-.07c-1.887-.018-3.773-.046-5.66-.074-3.078-.064-3.078-.064-6.031 1.082-6.123-1.143-10.584-3.697-15-8z"/><path fill="#4C3404" d="m329 315 2 1-1.457 1.082c-2.227 2.769-2.057 5.1-2.23 8.606l-.2 3.574L327 332h-2v-13h-7v11h-1l-.402-2.555-.536-3.32-.527-3.305c-.39-2.758-.39-2.758-1.535-4.82l3.027.035c1.29.01 2.581.018 3.91.027l3.903.036c3.023.267 3.023.267 4.16-1.098"/><path fill="#CF860A" d="m296 287 1 2-1 2c-.603 5.308.75 7.846 4 12 1.297 1.369 2.618 2.717 4 4-3.133 1.044-3.99.934-7 0v-2l-4-1c-.082-1.895-.14-3.791-.187-5.687l-.106-3.2c.326-3.467 1.303-5.297 3.293-8.113"/><path fill="#B2B3B5" d="M130 214h3c-.683 5.414-1.777 10.637-3.062 15.938l-.565 2.36A2404 2404 0 0 1 128 238h-1v-6h-1c.51-6.437 1.73-11.96 4-18"/><path fill="#C3C0C8" d="M390 243c3.933 1.31 5.54 3.852 7.754 7.148 1.232 1.899 1.232 1.899 2.785 3.7 1.807 2.662 2.49 5.1 3.274 8.214.411 1.565.411 1.565.832 3.16C405 268 405 268 403 271c-2.181-4.103-3.697-8.028-4.937-12.5-1.456-4.896-2.912-8.509-6.063-12.5z"/><path fill="#4D3606" d="m171 316 15 1-1 4a115 115 0 0 0-.062 5.563l.027 2.878L185 332v3c-2-2-2-2-2.195-5.258l.07-3.867.055-3.883L183 319h-8l.07 2.738.055 3.575.07 3.55C175 332 175 332 173 335l-2-1 2-3c.317-2.607.317-2.607.25-5.437l.016-2.872c-.138-3.03-.138-3.03-2.266-6.691"/><path fill="#D79717" d="m182.25 311.875 3.828.055L189 312v2c-2.3 2.278-3.713 2.961-6.945 3.398l-3.18-.023-3.195.023L173 317l-2-3c3.704-2.376 6.93-2.205 11.25-2.125"/><path fill="#1E2242" d="M469 363c1.972 1.627 2.914 2.508 3.36 5.07l-.02 2.401v2.73l-.047 2.936-.013 3.014c-.017 3.179-.054 6.357-.092 9.536a5040 5040 0 0 0-.042 6.463q-.05 7.926-.146 15.85l-3 1c-.125-7.75-.125-7.75 1-10 .157-2.624.258-5.225.316-7.852l.063-2.345q.097-3.714.183-7.428l.131-5.031q.161-6.173.307-12.344h-2z"/><path fill="#C88914" d="M386 260c4.875 3.625 4.875 3.625 6 7 .369 5.624.168 9.135-3 14-2.187 1.875-2.187 1.875-4 3l1-1.812c1.208-2.242 1.208-2.242 1-5.188l-1-2c.559-2.164.559-2.164 1.438-4.625l.87-2.477L389 266h-2z"/><path fill="#B69111" d="m148.125 251.75 3.477.055q4.2.07 8.398.195l1 2-2.216-.048a1379 1379 0 0 0-9.971-.14l-3.487-.076-3.369-.029-3.094-.048c-3.3.393-5.112 1.54-7.863 3.341l-2.437.188c-3.785 1.2-5.146 3.896-7.329 7.097L120 266h-1c-.375-2.187-.375-2.187 0-5 7.906-8.53 18.042-9.585 29.125-9.25"/><path fill="#412D0B" d="M175 262h2c2.28 3.42 2.22 4.682 2.125 8.688l-.055 3.011L179 276h6l-.125-3.812c-.114-3.479.066-4.1 2.125-7.188v13h-10l-.184-2.738-.254-3.575c-.08-1.171-.162-2.343-.246-3.55-.203-3.163-.203-3.163-1.316-6.137"/><path fill="#515152" d="M156 172h1q.04 4.25.063 8.5l.025 2.398c.02 5.13-.349 10.025-1.088 15.102l-8-1 4-1 1-12h3z"/><path fill="#F4FBFB" d="M422 314c2.202 3.303 2.24 4.275 2.195 8.105l-.02 2.979-.05 3.103-.027 3.14q-.036 3.836-.098 7.673l-3 1c-1.209 2-1.209 2-2 4 0-3 0-3 .996-6.633 1.162-4.473 1.2-8.647 1.067-13.242-.182-7.888-.182-7.888.937-10.125"/><path fill="#C0C1C4" d="M83 312h3l-1 21-3 1q-.04-3.812-.062-7.625l-.026-2.16c-.02-4.188.261-8.088 1.088-12.215"/><path fill="#D08300" d="m347.95 304.978 2.523.143 2.724.147 2.866.17 2.876.158q3.531.195 7.061.404v1l-2.605.113C347.217 308 347.217 308 333 315h-3c4.626-4.89 8.305-7.884 15-9 1-1 1-1 2.95-1.022"/><path fill="#2793D5" d="M56 399c2.11.946 3.72 1.677 5.25 3.438 2.414 2.154 4.864 2.79 7.938 3.75l3.292 1.042L75 408v2l7 1v1c-9.117.793-16.384-3.134-23.504-8.535C57 402 57 402 56 399"/><path fill="#C8A313" d="m282.484 251.637 2.586.002 2.68.048 2.633-.01c5.524.046 10.314.775 15.617 2.323v1h-32c4.505-3.379 4.505-3.379 8.484-3.363"/><path fill="#C0C0C5" d="m93 349 1.715.875c7.582 3.733 14.92 5.916 23.285 7.125-4.807 2.596-8.543 2.68-13.863 1.207C98.53 356.31 98.53 356.31 96 355l-1-3-2-1z"/><path fill="#D58401" d="M194 259v2l-2 1c-1.42 4.262-2.103 8.713-.105 12.855.963 1.433 2.027 2.797 3.105 4.145l-7 1a429 429 0 0 1-.25-7.687l-.102-2.186c-.071-3.924.098-5.722 2.243-9.147C192 259 192 259 194 259"/><path fill="#515457" d="M348 153c2.827 2.827 2.29 4.968 2.322 8.832l-.01 2.668.05 2.668.001 2.55.01 2.343L350 174l-3 2a2713 2713 0 0 1-.062-10.375l-.026-2.984-.01-2.852-.016-2.634C347 155 347 155 348 153"/><path fill="#D8AD29" d="m118 279 1.512 1.207c9.073 6.695 19.452 8.07 30.488 8.793l-1 2c-10.932.888-21.077-1.764-29.707-8.633C118 281 118 281 118 279"/><path fill="#2C6FD7" d="M462 386h1q.08 4.406.125 8.813c.017.833.034 1.666.05 2.525l.02 2.432.032 2.237C463 404 463 404 461 407l-1-7-1.375 2.438C457 405 457 405 455 406c1.583-4.88 3.332-9.695 5.098-14.512.66-1.82 1.29-3.651 1.902-5.488"/><path fill="#19A3D5" d="m62 385 3 1v2h2a141 141 0 0 1 5 5c2.514 2.514 4.902 3.114 8.223 4.219C82 398 82 398 83 400c-9.001-.904-14.038-4.167-19.723-11.102C62 387 62 387 62 385"/><path fill="#CD880A" d="M242 317c2.944 2.816 3.95 4.104 4.188 8.313-.176 3.447-.7 5.617-2.188 8.687l-5-1 1.5-2.937c1.899-4.35 1.786-8.393 1.5-13.063"/><path fill="#C87900" d="M226 303a605 605 0 0 1 5 2l3.75 1.375C238 308 238 308 238.813 310.063L239 312l2 2c-3.139 0-4.087-.416-6.75-1.875-3.699-1.932-7.208-3.114-11.25-4.125v-1h6v-2l-3-1z"/><path fill="#D89208" d="M118 313h2v2h-2q-.29 3.217-.562 6.438l-.317 3.62L117 328l1 1c.04 2 .043 4 0 6l-3-2v-3h-2v-7h2l.375-3.875c.375-3.875.375-3.875 2.625-6.125"/><path fill="#D38302" d="m163 308 2.383.465c4.495.665 8.956.89 13.492 1.098l2.664.13q3.23.158 6.461.307v1l-13 1 1 2c-2.997.95-5.069 1.465-7.957.023-1.81-1.26-3.485-2.46-5.043-4.023z"/><path fill="#242937" d="m397 201 6 3v2h2c1.762 2.3 1.762 2.3 3.688 5.313l1.949 2.988L412 217l-1 3q-1.69-1.904-3.375-3.812l-1.898-2.145C402.91 210.711 402 209.498 402 205l-1.937-.875C398 203 398 203 397 201"/><path fill="#153E95" d="M357 197c2.896-.081 5.79-.14 8.688-.187l2.474-.077c4.717-.057 8.119 0 11.838 3.264.813 2.188.813 2.188 1 4q-2.188-.716-4.375-1.437l-2.46-.81C372 201 372 201 370 200a237 237 0 0 0-6.625-1.062l-3.602-.536L357 198z"/><path fill="#D89A15" d="m276 283 18 1v1l-1.934.148-2.503.227-2.497.21L285 286l-1 2 9 1-1 2c-6.724.84-6.724.84-10.312-1.523-2.003-1.753-3.906-3.5-5.688-5.477z"/><path fill="#C1C1C5" d="m106 247 2 2c-.187 2.063-.187 2.063-1 5l-.602 2.293-.71 2.457-.676 2.36C104 263 104 263 101.895 263.765L100 264c.932-5.964 3.129-11.7 6-17"/><path fill="#2A2D2C" d="M250 194v1l-6 1v4c-3.891 1.02-5.606 1.168-9.375-.437L232 198c5.762-3.842 11.292-4.235 18-4"/><path fill="#525458" d="M349 178h1c1.326 5.967 1.088 11.926 1 18h5v1l-8 1a1304 1304 0 0 1-.062-6.625l-.036-3.727c.09-3.325.461-6.388 1.098-9.648"/><path fill="#D49417" d="m314 317 2 1c1.453 4.358 1.646 8.45 1 13-1.395 2.76-2.948 4.64-5 7l-2-2c1.375-2.5 1.375-2.5 3-5h2l-.5-2.5c-.559-3.913-.568-7.552-.5-11.5"/><path fill="#D68601" d="m262 261 1 3-1 1c-.258 4.473-.215 8.036 2 12l3 1c-3.623 1.208-4.641.543-8-1-.081-2.104-.14-4.208-.187-6.312l-.106-3.551C259 264 259 264 260.512 262.082z"/><path fill="#242931" d="M351 195h43l-4 3c-1.747-.293-1.747-.293-4-1-2.688-.15-5.357-.256-8.047-.316l-2.337-.063q-3.682-.097-7.366-.184l-5.004-.13A5908 5908 0 0 0 351 196z"/><path fill="#111945" d="M33 376c1.271 3.843 1.031 7.636.938 11.625-.084 5.684.243 10.83 1.722 16.36.39 2.309-.039 3.782-.66 6.015-3.056-7.218-3.4-13.73-3.25-21.5l.016-3.32c.08-8.025.08-8.025 1.234-9.18"/><path fill="#D79F16" d="M214 284h13c-4.644 6.668-4.644 6.668-8.332 7.57-2.386.054-4.364.066-6.668-.57l-2-3 2.371-.184 3.066-.253 3.06-.247c2.44-.048 2.44-.048 3.503-1.316l-8-1z"/><path fill="#2D313A" d="m468 412 2 2a691 691 0 0 1-3.375 5l-1.898 2.813L463 424h-2v2c-2.336 1.762-2.336 1.762-5.375 3.688l-3.023 1.949L450 433l-2-1 1.941-1.25c7.6-5.074 13.724-10.59 18.059-18.75"/><path fill="#AFAEB1" d="M418 319h1q.334 3.999.625 8l.195 2.254c.373 5.355-.168 9.622-1.82 14.746l-2 2v-2l-2-1 1.457-2.941c1.847-4.31 2.091-8.354 2.23-12.997l.104-2.36c.082-1.9.147-3.801.209-5.702"/><path fill="#33A7D2" d="M124 219c1.27 3.6.719 6-.312 9.625l-.801 2.914C122 234 122 234 120 236c-1.875.816-1.875.816-4 1.563-2.077.736-4.028 1.45-6 2.437l-2-2 2.59-.848c6.114-1.83 6.114-1.83 10.43-6.043.319-2.129.319-2.129-.02-5.109h2z"/><path fill="#CBF4FB" d="M421 306c4.015 4.015 4.12 9.949 4.195 15.375q-.02 2.813-.07 5.625l-.027 2.926A916 916 0 0 1 425 337h-1l-1-20-3-1z"/><path fill="#D9F3F9" d="M379 224c2.12 3.534 2.532 6.944 3 11l10 3c-4 2-4 2-6.07 1.531-3.576-1.794-5.538-2.81-7.493-6.406-.466-3.33-.213-5.867.563-9.125"/><path fill="#454646" d="M254 232h3c1.46 2.647 2 3.894 2 7h-9c1.074-2.915 1.778-4.778 4-7"/><path fill="#774900" d="m264 310 2 1c-6.901 7.634-6.901 7.634-12.047 8.531-2.692-.028-5.286-.172-7.953-.531l-1 3c-3.875-5.75-3.875-5.75-5-8l2.133.969c4.904 1.764 9.74 1.843 14.867 1.031 2.822-1.623 4.905-3.521 7-6"/><path fill="#D68505" d="M153 288v3c.238 6.236 1.16 10.046 5 15v1h-5c-1.8-3.862-2.271-6.938-2.25-11.187l-.016-3.168C151 290 151 290 153 288"/><path fill="#EBBE0E" d="m333 269 1.188 1.688L336 273l1.875 2.5c4.129 4.154 10.643 5.063 16.125 6.5v1c-6.979.634-11.313-.91-17-5-2.562-2.562-2.562-2.562-4-5z"/><path fill="#48380C" d="m216.688 250.688 3.455-.01c8.456.055 8.456.055 11.857 2.322l-2.152-.048c-3.262-.063-6.523-.101-9.786-.14l-3.384-.076c-6.92-.06-12.25.667-18.678 3.264v-2c5.863-3.933 11.822-3.41 18.688-3.312"/><path fill="#D6AF11" d="m349 255-5 1v2c-4.385 3-4.385 3-7 3l-.875 1.938C335 265 335 265 333 266c.341-2.901.567-4.518 2-7 4.287-3.117 8.723-5.964 14-4"/><path fill="#3DAFDB" d="M422 344c0 4.544-2.201 7.514-5 11-3.054 2.512-5.94 3.91-9.937 4.25L405 359a109 109 0 0 1 5.688-3.562c4.536-2.983 7.845-7.32 11.312-11.438"/><path fill="#9C9EA0" d="M85 318h1l.184 3.543.254 4.644.119 2.33c.218 3.916.53 7.654 1.443 11.483l-5-1a100 100 0 0 1 0-5l1-1c.237-2.526.422-5.031.563-7.562l.13-2.155q.159-2.64.307-5.283"/><path fill="#4F4E4E" d="M152 223c3 3 3 3 3.293 6.137l-.106 3.55-.082 3.575L155 239h-4z"/><path fill="#B4B4B6" d="M87 303h3a513 513 0 0 1-.875 4.25l-.492 2.39c-.625 2.328-1.481 4.25-2.633 6.36-2-3-2-3-1.793-5.227l.606-2.398.582-2.414C86 304 86 304 87 303"/><path fill="#BCEAF8" d="M81 308c.836 2.928 1.162 5.582 1.188 8.625l.042 2.352C82 321 82 321 80 323c-.462 2.433-.462 2.433-.625 5.125l-.227 2.758L79 333h-1c-.428-8.794.7-16.513 3-25"/><path fill="#D17E02" d="m310 309 16 2v1l-7 1v1l-6 1c-3-3.75-3-3.75-3-6"/><path fill="#B06A00" d="M264 279c6.187.326 11.086 3.447 16 7l2 3c-3 0-3 0-5.062-1.75-3.969-3.04-8.271-4.546-12.938-6.25z"/><path fill="#4F5356" d="m348 208 4 2-2 17h-1c-.824-6.382-1.12-12.567-1-19"/><path fill="#8A8C8C" d="M397 153c2.313 1.563 2.313 1.563 4 3l-1 3-1.5-.812c-3.424-1.627-6.941-2.883-10.5-4.188 3.352-2.11 5.24-2.222 9-1"/><path fill="#D4A726" d="m386 331 1 3c-8.658 8.035-8.658 8.035-13 9a66 66 0 0 1-4-1l2.738-1.39 3.575-1.86 3.55-1.828c2.908-1.782 4.381-3.057 6.137-5.922"/><path fill="#C47F11" d="m330 316 1 3-1 1c-.235 2.35-.414 4.706-.562 7.063l-.254 3.91L329 334c-2.778-2.778-2.3-4.568-2.312-8.437l-.051-3.497C327 319 327 319 328.52 317.09z"/><path fill="#C28618" d="M243 260c5.9 5.748 5.9 5.748 6.168 9.094l.02 2.406.042 2.406C249 276 249 276 247 278l-.113-2.23c-.477-7.346-.477-7.346-3.887-13.77z"/><path fill="#493A0E" d="m142.375 250.813 2.809.04q3.408.054 6.816.147v1l-3.402.113c-8.024.33-15.095.75-22.598 3.887v-2c5.485-3.472 10.115-3.362 16.375-3.187"/><path fill="#CE7B00" d="M278 306v2a895 895 0 0 1-4.812 1.5l-2.708.844C268 311 268 311 265 311v-2c4.294-3.489 7.719-3.269 13-3"/><path fill="#AAABAD" d="M98 277c1.136 3.41.867 4.003-.437 7.188l-.872 2.167L96 288l-4-1 3-8h3z"/><path fill="#BAB7BD" d="M386 239c5.352 1.274 8.82 3.56 12 8 .875 3.375.875 3.375 1 6l-1.25-1.687L396 249l-1.937-2.687c-2.182-2.446-2.96-2.796-6.063-3.313l-2-2z"/><path fill="#0C2D94" d="M417 428c2 .313 2 .313 4 1l1 2-1 2c-2.066.414-2.066.414-4.562.625l-2.504.227L412 434l3-1c.662-1.98.662-1.98 1-4z"/><path fill="#C1830A" d="M171 317c3 3 3 3 3.293 5.7l-.106 2.988-.082 3.011L174 331l-2-3-2 1z"/><path fill="#AA7519" d="M384 315c4.899 4.741 4.899 4.741 5.168 8.094l.02 2.406.042 2.406C389 330 389 330 387 332v-11h-2z"/><path fill="#453306" d="M291 293h1l.184 1.828.253 2.422.247 2.39c.311 2.656.311 2.656 1.316 6.36h-13l2-4v3h8z"/><path fill="#674201" d="m206 285 2.5 2.438c3.681 3.117 6.764 3.317 11.5 3.562v1h-8v12h-1l-.078-2.45c-.336-8.094-.336-8.094-4.922-14.55z"/><path fill="#B5B2B7" d="m402 268 4 1 2 8-2 1c-2-1-2-1-3.125-3.312C402 272 402 272 402 268"/><path fill="#D69F10" d="M313 259c3.161 1.37 3.993 1.99 6 5-.031 2.74-.555 5.284-1 8h-2l-.402-2.082-.536-2.73-.527-2.708c-.512-2.594-.512-2.594-1.535-5.48"/><path fill="#7C7E7D" d="M118 151v1l-9 2 1 2-5 3-2-4c5.39-3.594 8.537-4.454 15-4"/><path fill="#B27E04" d="M297 305v2h4v2l-21-2v-1q3.406-.251 6.813-.5l3.832-.281A98 98 0 0 1 297 305"/><path fill="#D08B15" d="M194 259v2l-2 1a109 109 0 0 0-1.625 7.563l-.406 2.154q-.493 2.64-.969 5.283h-1a287 287 0 0 1-.25-6.187l-.14-3.481c.45-3.836 1.904-8.332 6.39-8.332"/><path fill="#1B233C" d="m86 252-3 1-1 3c-1.875 1.25-1.875 1.25-4 2l-3-1c6.247-6.584 6.247-6.584 11-5"/><path fill="#1C204B" d="M448 432v2l-5 1v2h-9c2.323-2.323 3.873-2.725 7-3.625.887-.26 1.774-.52 2.688-.79C446 432 446 432 448 432"/><path fill="#B78203" d="M222 306v1l-21 2v-2c7.197-2.399 13.523-1.843 21-1"/><path fill="#BD7300" d="M192 279c5.277.539 9.256 1.773 14 4v3c-4.74-1.835-9.364-3.92-14-6z"/><path fill="#D38504" d="M175 266h1q.039 2.718.063 5.438l.035 3.058C176 277 176 277 175 278c-1.666.04-3.334.043-5 0l.84-1.61 1.097-2.14 1.09-2.11c.929-2.042 1.505-3.951 1.973-6.14"/><path fill="#BB7A1D" d="M118 262c.563 1.938.563 1.938 1 4l-1 1a123 123 0 0 0-.562 5.563l-.254 3.066L117 278c-2.394-2.394-2.296-3.038-2.312-6.312.07-4 .813-6.46 3.312-9.688"/><path fill="#2B9CE0" d="M56 399c2.978 1.389 5.512 3.013 8.125 5l2.07 1.563C68 407 68 407 70 409c-5.295-.331-9.244-3.472-13-7z"/><path fill="#D98800" d="M246 267h1v11h-6l1.938-3.25c1.468-2.558 2.59-4.803 3.062-7.75"/><path fill="#252728" d="m91 344 1.504 1.207c4.349 3.392 8.331 5.856 13.496 7.793v1c-6.15-.128-8.991-2.214-13.496-6.309C91 346 91 346 91 344"/><path fill="#42360B" d="m243 334 1 2c-1.22 3.658-2.84 4.423-6.145 6.215-2.37 1.003-4.314 1.093-6.855.785 2.208-2.208 4.6-3.472 7.313-4.98 1.855-1.121 3.283-2.369 4.687-4.02"/><path fill="#C0C1C4" d="M127 231c1.349 2.698.803 4.152 0 7-2.709 1.354-5.01 1.065-8 1 1-2 1-2 3-2.937 2.346-.952 2.346-.952 3-4.063z"/><path fill="#CD8714" d="M282 293h1c.218 5.439.104 9.87-2 15l-3-1 2-8h1z"/><path fill="#BF8614" d="m314 317 2 1c1.005 3.015 1.103 5.042 1.063 8.188l-.028 2.73L317 331h-1c-1.97-4.927-2.18-8.78-2-14"/><path fill="#D5900A" d="m347 283 17 1v1l-11 1v3a318 318 0 0 1-6-5z"/><path fill="#CF8714" d="m262 261 1 3-2 2c-.319 2.37-.319 2.37-.25 5l-.016 2.688c.045 2.506.045 2.506 2.266 4.312l-4-1c-.081-2.104-.14-4.208-.187-6.312l-.106-3.551C259 264 259 264 260.512 262.082z"/><path fill="#D2F2F8" d="m121 234 2 3-10 4-2-2c3.245-2.04 6.406-3.665 10-5"/><path fill="#393E3E" d="M250 194v1l-2.75.375c-3.15.435-3.15.435-5.312 1.75-2.61 1.179-4.239.625-6.938-.125 5.024-3.35 9.1-3.098 15-3"/><path fill="#192A6E" d="M36 364h1c.236 5.778-.132 10.513-2 16h-1c-.207-5.789.408-10.43 2-16"/><path fill="#AE6F0F" d="M115 316c.934 3.01 1.044 3.867 0 7h-2v8h-1c-.081-1.75-.14-3.5-.187-5.25l-.106-2.953c.332-3.172 1.18-4.467 3.293-6.797"/><path fill="#442F0B" d="M253 319h3l-1 11h-2z"/><path fill="#EAB90F" d="M346 310q-2.681 1.294-5.375 2.563l-3.023 1.44L335 315l-2-1c8.04-5.54 8.04-5.54 13-4"/><path fill="#B37905" d="m346 305 20 1v1l-21 1z"/><path fill="#EABA10" d="m265 276 1.703.898c2.317 1.111 4.604 1.937 7.047 2.727.8.26 1.598.52 2.422.79L278 281v2c-4.995-.476-8.028-1.952-12-5z"/><path fill="#C99E19" d="M156 253q2.127.429 4.25.875l2.39.492c2.328.625 4.25 1.481 6.36 2.633l-1 2c-4.035-1.59-8.018-3.282-12-5z"/><path fill="#A85C00" d="m195 309 2 1c-1.43 1.175-2.87 2.34-4.312 3.5l-2.426 1.969C188 317 188 317 185 317c3.086-3.263 5.935-6.022 10-8"/><path fill="#EBBC0C" d="M300 303c5.397 1.493 10.7 3.197 16 5v1c-6.485-.256-10.955-.752-16-5z"/><path fill="#B4B6B7" d="M94 286h1c.37 5.415.37 5.415-1.5 8.375L92 296l-1-7 3-1z"/><path fill="#EDBE0E" d="m191 271 2.125 2.25c2.852 2.728 5.551 4.663 8.875 6.75l-3 1c-2.998-1.774-5.535-3.535-8-6z"/><path fill="#BF7E15" d="m334 260 1 3-2 3h-2v11h-1c-.63-10.976-.63-10.976 2-15.25z"/><path fill="#229ED2" d="m393 218 3 2v4h-2l-1 4q-.29-2.218-.562-4.437l-.317-2.497L392 219z"/><path fill="#063A98" d="m370 199 10 1 1 4q-2.19-.676-4.375-1.375l-2.46-.773C372 201 372 201 370 199"/><path fill="#232434" d="M36 410c2.503 2.938 3.47 5.179 4 9h-3c-1.62-2.572-2.044-3.677-1.625-6.75z"/><path fill="#D5A52B" d="m117 336 1.703.898c2.317 1.111 4.604 1.937 7.047 2.727.8.26 1.598.52 2.422.79L130 341l-1 2c-8.35-2.31-8.35-2.31-11.062-5.187z"/><path fill="#43ADD8" d="M124 219c1.073 3.272.893 5.43.063 8.75l-.59 2.422L123 232h-2v-6h2z"/><path fill="#E2EEF7" d="M352 197c8.571.857 8.571.857 12 3-4.517 1.369-7.588.47-12-1z"/><path fill="#ACACAF" d="m101 262 2 2c-.301 4.138-.679 6.518-3 10q-.04-2.437-.062-4.875l-.036-2.742C100 264 100 264 101 262"/><path fill="#D7E5F4" d="M152 197c-1 2-1 2-2.625 2.625-3.141.496-6.201.436-9.375.375 3.518-3.518 7.193-3.11 12-3"/><path fill="#B86F00" d="M338 280c4.874.453 7.39 1.709 11 5-3.196 0-4.417-.547-7.187-2l-2.168-1.125L338 281z"/><path fill="#F1FAFB" d="M96 271c1 3 1 3 .188 5.625C95 279 95 279 93 280c-.37-5.538-.37-5.538 1.5-7.875z"/><path fill="#2F94CC" d="m81 264 1 2-1 2h-2l-.437 1.875C78 272 78 272 77 274h-2c1.208-4.43 2.517-6.981 6-10"/><path fill="#3293CC" d="m102 240 1 4 2 1-4 6-2-2z"/><path fill="#B5B5B9" d="M123 239c-2.666 1.777-5.028 2.875-8 4v-4c2.862-1.43 4.934-.6 8 0"/><path fill="#0F3488" d="M458 415c.813 1.688.813 1.688 1 4-2.437 2.75-2.437 2.75-5 5l-3-1 2.375-2.312c2.698-2.597 2.698-2.597 4.625-5.688"/><path fill="#1AA4DA" d="m430 395 2 2c-5.415 3.077-5.415 3.077-8.375 2.688L422 399c2.57-2.112 4.63-3.663 8-4"/><path fill="#C5C4C9" d="m407 351 2 1v2l-7 3c.25-1.875.25-1.875 1-4 1.938-1.312 1.938-1.312 4-2"/><path fill="#F2F7F9" d="M411 284h2v3h2v7c-2.255-2.255-2.977-4.005-4-7z"/><path fill="#033597" d="m442 406-1 6h-2v-2l-4-1c4.75-3 4.75-3 7-3"/><path fill="#1FABDE" d="M59 372c1.525 2.94 2.952 5.855 4 9l-1 3c-2.985-4.105-3.295-6.977-3-12"/><path fill="#F5FAFC" d="m87 347 8 6c-3 1-3 1-5.125.375C88 352 88 352 87.25 349.375z"/><path fill="#AD5E00" d="m337 309 3 1-9 6v-3c2.813-2.25 2.813-2.25 6-4"/><path fill="#DC8303" d="M295 302c3.366 1.443 5.51 3.333 8 6l-6-1v-2h-2z"/><path fill="#E6B40D" d="m303 283 2 1-3 1c-1.209 2-1.209 2-2 4h-3c1.015-2.536 1.685-3.794 4-5.312z"/><path fill="#E1B70B" d="M197 257c0 3 0 3-1.312 4.387L191 265l1-4h2v-3z"/><path fill="#D1F0F9" d="M402 250c2.296 3.445 2.54 5.938 3 10l-3 1z"/><path fill="#D4F7FD" d="M126 215h1c.081 1.437.14 2.874.188 4.313l.105 2.425c-.355 2.74-1.187 3.554-3.293 5.262 1-8.571 1-8.571 2-12"/><path fill="#C7C9CE" d="M154 200c-3.265 1.884-6.281 2.493-10 3v-3c3.694-1.231 6.206-.644 10 0"/><path fill="#B5B5B5" d="M156 190h1v9l-8 1c1.813-1.562 1.813-1.562 4-3l3 1z"/><path fill="#0B349C" d="M64 411c2.011 2.56 3.628 5.046 5 8l-6-1z"/><path fill="#093E85" d="M454 389c1 4 1 4-.937 7.25L451 399l-2-1z"/><path fill="#DAA717" d="M377 311c3.243.56 4.93 1.413 7 4v2a56.5 56.5 0 0 1-7-4z"/><path fill="#45B1D9" d="M419 297c2 1 2 1 3.125 3.25.88 2.766 1.04 4.87.875 7.75-3.15-3.423-3.562-6.443-4-11"/><path fill="#DA8302" d="m279 302 1 3-2 2c-3.125-.375-3.125-.375-6-1l1.813-.875c2.38-1.172 2.38-1.172 5.187-3.125"/><path fill="#B3B0B6" d="M407 283c1.938.75 1.938.75 4 2 .75 2.125.75 2.125 1 4l-3 2c-1.257-2.906-2-4.796-2-8"/><path fill="#CAC7CC" d="M403 262c1.62 2.572 2.044 3.677 1.625 6.75L404 271c-1.945-2.918-2.453-4.625-3-8z"/><path fill="#162C69" d="M73 261c-1.453 3.83-3.429 5.12-7 7 3.138-7 3.138-7 7-7"/><path fill="#BEC0C4" d="M360.125 200.938 363 202l-1 2c-4.75-.75-4.75-.75-7-3 2-1 2-1 5.125-.062"/><path fill="#022C96" d="M128 198h5l1 2-7 2z"/><path fill="#D7F1F7" d="m92 276 3 3c-.812 1.938-.812 1.938-2 4l-3 1z"/><path fill="#CBF3FC" d="M379 224c1.648 2.967 2.443 5.656 3 9h-3c-1.16-3.478-.708-5.459 0-9"/><path fill="#111739" d="m99 209 2 1-5 8-1-3c1.938-3.187 1.938-3.187 4-6"/><path fill="#152C6B" d="m103 207 2 2-7 6c1.186-3.375 2.276-5.647 5-8"/><path fill="#329CE4" d="m140 199-5 4-4-3c3.196-1.065 5.657-1.074 9-1"/></svg>