<svg xmlns="http://www.w3.org/2000/svg" width="1340" height="2000"><path fill="#5D9948" d="M665.73-.391c3.27.016 6.539 0 9.81-.02 19.154-.018 38.194 1.71 56.96 5.661l3.076.636c58.05 12.378 110.49 39.344 153.933 79.741 2.407 2.217 4.861 4.382 7.303 6.56 3.757 3.413 7.208 6.9 10.47 10.786 1.882 2.22 3.86 4.334 5.843 6.464 57.487 63.766 83.067 149.913 78.768 234.668C989.46 384.395 978.645 424.74 961 461l-1.41 2.913C949.294 484.99 936.89 504.845 922 523l-1.306 1.593c-12.4 15.056-25.523 29.93-40.815 42.106-3.341 2.67-6.614 5.413-9.879 8.176l-1.674 1.408c-2.544 2.153-4.99 4.341-7.326 6.717 20.699 13.86 41.495 27.573 62.3 41.272q9.939 6.543 19.872 13.091l2.762 1.821 5.505 3.629a96828 96828 0 0 0 50.104 33.008l2.53 1.666 18.51 12.188 2.847 1.874 5.724 3.766a2748 2748 0 0 1 14.081 9.317c7.567 5.036 15.116 10.05 22.945 14.672a621 621 0 0 1 8.591 5.2q1.943 1.162 3.928 2.252c4.106 2.25 7.47 4.41 10.301 8.244 1.523 5.912.663 12.016 0 18a992 992 0 0 0-.297 5.543q-.208 2.325-.453 4.644l-.269 2.619c-3.966 36.27-15.183 69.89-31.981 102.194l-1.073 2.62c-1.927 2.38-1.927 2.38-5.498 2.995q-2.286.03-4.572-.014l-2.545.013c-2.824.008-5.647-.02-8.47-.046q-3.031-.003-6.061.002c-5.494.001-10.987-.028-16.48-.063-5.738-.031-11.476-.034-17.213-.04a10250 10250 0 0 1-32.607-.107c-12.373-.056-24.745-.083-37.117-.108-25.455-.053-50.91-.14-76.364-.252l.544 30.848c1.492 84.842 11.17 165.32 47.456 243.152l1.457 3.147A566 566 0 0 0 951 1239l1.596 2.262c18.677 26.41 39.077 51.768 61.297 75.29a400 400 0 0 1 9.056 9.917c5.938 6.617 12.24 12.87 18.535 19.146q3.12 3.114 6.233 6.239 2.017 2.017 4.037 4.033l1.844 1.85c3.721 3.701 7.559 7.217 11.537 10.64 3.203 2.787 6.276 5.712 9.365 8.623 5.086 4.767 10.2 9.472 15.5 14l2.992 2.59c8.515 7.357 17.165 14.544 25.878 21.666q3.106 2.545 6.204 5.1c6.514 5.348 13.09 10.567 19.863 15.581 11.342 8.404 22.305 17.34 32.692 26.903a179 179 0 0 0 4.054 3.602c5.901 5.063 11.395 10.487 16.88 15.995l2.748 2.737c5.106 5.113 10.01 10.32 14.689 15.826l2.668 3.062c7.174 8.365 13.842 17.035 20.332 25.938l1.488 2.03c11.999 16.435 22.629 33.742 32.267 51.657q1.275 2.37 2.564 4.731c41.43 76.078 60.109 163.274 64.593 261.653q.086 2.885.207 5.768c.68 16.218-1.98 26.918-13.13 39.075-21.936 23.005-53.512 35.856-82.989 46.086l-3.37 1.182c-86.78 30.145-180.694 40.22-561.314 58.075q-11.45-.01-22.9.004c-87.99.094-175.772-1.849-641.416-103.261l-2.219-2.063c-6.47-6.18-12.707-13.621-13.056-22.94q-.029-2.388-.026-4.774l-.017-2.625c-.012-2.845-.005-5.69.005-8.536l.006-2.97C-.045 1769.16 18.196 1683.953 54 1608l1.538-3.264C67.01 1580.636 80.43 1557.686 96 1536l1.726-2.42c7.61-10.638 15.553-20.832 24.274-30.58l2.5-2.8a920 920 0 0 1 4.27-4.723 245 245 0 0 0 3.734-4.226c4.593-5.334 9.444-10.35 14.433-15.314l2.303-2.314A255 255 0 0 1 164 1460l1.634-1.413c7.308-6.314 14.807-12.316 22.495-18.16 10.435-7.964 20.758-16.058 30.871-24.427l5.312-4.313c5.435-4.446 10.768-9.005 16.086-13.59a917 917 0 0 1 7.079-6.038c8.036-6.802 15.772-13.873 23.424-21.103a380 380 0 0 1 4.587-4.199c8.749-7.9 17.09-16.183 25.414-24.528q3.632-3.637 7.272-7.266l4.69-4.693 2.162-2.157a230 230 0 0 0 11.458-12.359c2.233-2.584 4.563-5.068 6.891-7.567 4.269-4.62 8.305-9.378 12.25-14.28a356 356 0 0 1 6.767-8A383 383 0 0 0 370 1264l1.57-2.097c24.137-32.31 45.241-65.885 63.43-101.903l1.418-2.803c24.495-48.81 39.565-101.876 46.894-155.885l.447-3.278c.465-3.673.87-7.35 1.241-11.034l.257-2.538c1.726-17.628 2.123-35.216 2.286-52.911.053-5.619.119-11.237.188-16.856q.031-2.853.055-5.707c.133-12.023.713-23.952 1.214-35.988H284c-9.442-16.524-9.442-16.524-12.938-24.688l-1.254-2.92c-11.6-27.605-20.379-57.873-21.62-87.986-.19-3.453-.67-6.774-1.243-10.181-.498-10.45-.498-10.45 2.514-13.893 2.043-1.53 4.128-2.813 6.342-4.082q2.487-1.538 4.972-3.078l2.618-1.578c4.225-2.581 8.327-5.344 12.445-8.09q2.576-1.7 5.153-3.395l2.655-1.748 2.731-1.799 17.693-11.654q8.571-5.646 17.139-11.295l2.755-1.816 5.486-3.616a99952 99952 0 0 1 55.2-36.365l2.554-1.681 13.236-8.714A12719 12719 0 0 0 478 583c-3.59-3.65-7.296-6.857-11.375-9.938C458.605 566.87 451.27 560.048 444 553l-1.976-1.91C434.14 543.44 426.775 535.665 420 527a931 931 0 0 0-2.79-3.379C405.237 509.097 395.268 493.358 386 477l-1.029-1.78C365.46 441.374 354.41 402.485 349 364l-.36-2.416c-11.57-80.529 12.454-166.615 60.714-231.402a371 371 0 0 1 8.285-10.513 617 617 0 0 0 3.841-4.774c6.846-8.39 14.453-16.04 22.082-23.708l1.609-1.624C452.108 82.573 459.229 76.073 467 70l2.396-1.892c39.569-30.957 85.128-51.954 134.229-62.42l3.24-.699c19.477-3.924 39.019-5.496 58.864-5.38"/><path fill="#80B64C" d="M665.73-.391c3.27.016 6.539 0 9.81-.02C694.693-.428 713.732 1.3 732.5 5.25l3.063.631C747.199 8.358 758.637 11.49 770 15l2.73.835C784.231 19.44 793.015 23.963 802 32l2.957 2.617a474 474 0 0 1 5.566 5.09c2.1 1.944 4.235 3.816 6.414 5.668A204.4 204.4 0 0 1 840 69c.45.535.898 1.07 1.361 1.623 49.058 58.596 76.938 131.829 76.826 208.44l-.001 2.34c-.026 11.98-.456 23.728-2.186 35.597l-.407 2.925C911.25 350.755 902.706 379.977 889 408l-1.307 2.704C869.281 448.469 841.998 483.643 810 511l-2.91 2.574c-30.449 26.798-65.394 47.194-101.84 64.676l-2.4 1.16C697.363 582 697.363 582 694 582c4.523 5.648 9.099 11.176 14 16.5 4.094 4.447 7.924 9.047 11.719 13.75 2.348 2.831 4.79 5.544 7.281 8.25 4.114 4.47 7.97 9.09 11.785 13.816 2.171 2.631 4.417 5.163 6.715 7.684a228 228 0 0 1 8.937 10.437A228 228 0 0 0 764 663.5c4.114 4.47 7.97 9.09 11.785 13.816 2.171 2.631 4.417 5.163 6.715 7.684 3.919 4.3 7.592 8.76 11.25 13.281 2.895 3.498 5.946 6.837 9.004 10.192 2.308 2.597 4.502 5.261 6.683 7.964 3.986 4.934 8.183 9.606 12.497 14.25 5.367 6.007 4.451 11.627 4.066 19.313-.47 7.353-1.199 14.677-2 22l-.292 2.688C820.06 806.958 812.687 843.626 798 873H284c-9.442-16.524-9.442-16.524-12.938-24.688l-1.254-2.92c-11.6-27.605-20.379-57.873-21.62-87.986-.19-3.453-.67-6.774-1.243-10.181-.498-10.45-.498-10.45 2.514-13.893 2.043-1.53 4.128-2.813 6.342-4.082q2.487-1.538 4.972-3.078l2.618-1.578c4.225-2.581 8.327-5.344 12.445-8.09q2.576-1.7 5.153-3.395l2.655-1.748 2.731-1.799 17.693-11.654q8.571-5.646 17.139-11.295l2.755-1.816 5.486-3.616a99952 99952 0 0 1 55.2-36.365l2.554-1.681 13.236-8.714A12719 12719 0 0 0 478 583c-3.59-3.65-7.296-6.857-11.375-9.938C458.605 566.87 451.27 560.048 444 553l-1.976-1.91C434.14 543.44 426.775 535.665 420 527a931 931 0 0 0-2.79-3.379C405.237 509.097 395.268 493.358 386 477c-.51-.88-.51-.88-1.029-1.78C365.46 441.374 354.41 402.485 349 364l-.36-2.416c-11.57-80.529 12.454-166.615 60.714-231.402a371 371 0 0 1 8.285-10.513 617 617 0 0 0 3.841-4.774c6.846-8.39 14.453-16.04 22.082-23.708l1.609-1.624C452.108 82.573 459.229 76.073 467 70l2.396-1.892c39.569-30.957 85.128-51.954 134.229-62.42l3.24-.699c19.477-3.924 39.019-5.496 58.864-5.38"/><path fill="#80B54B" d="M488 945c13.61 1.286 27.07 3.12 40.563 5.313l2.923.471c15.227 2.461 30.439 4.93 45.514 8.216l1.968.426c54.897 11.928 121.892 30.522 154.657 80.261 17.881 28.096 15.964 57.563 9.84 88.916-.899 4.629-1.777 9.261-2.66 13.893a5177 5177 0 0 1-3.506 18.242c-1.87 9.634-3.672 19.273-5.33 28.946-1.66 9.686-3.487 19.33-5.403 28.969-2.469 12.43-4.888 24.863-7.066 37.347-2.199 12.55-4.623 25.05-7.08 37.552l-1.072 5.46-.56 2.847a6444 6444 0 0 0-4.48 23.098c-5.338 27.733-10.75 55.449-16.29 83.142l-1.343 6.717c-3.3 16.499-6.647 32.986-10.103 49.453q-1.125 5.383-2.24 10.767c-3.814 18.408-7.669 36.801-11.874 55.125a1107 1107 0 0 0-4.822 22.128c-2.323 11.135-4.77 22.002-8.636 32.711l-.867 2.438c-9.772 27.27-23.112 51.457-43.133 72.562l-1.4 1.499c-49.975 53.216-127.265 64.213-196.6 66.501-7.214.168-14.429.187-21.645.203l-6.02.021c-6.382.02-12.765.024-19.147.026l-3.298.002c-48.213.018-96.013-1.517-143.948-7.033-2.842-.32-5.687-.607-8.532-.895C146.658 1714.06 83.651 1699.607 30 1672c.559-4.691 1.476-8.857 3.082-13.297l1.306-3.612q.711-1.92 1.425-3.841l.736-1.994c5.197-14.032 11.07-27.72 17.451-41.256l1.538-3.264C67.01 1580.636 80.43 1557.686 96 1536l1.726-2.42c7.61-10.638 15.553-20.832 24.274-30.58l2.5-2.8a920 920 0 0 1 4.27-4.723 245 245 0 0 0 3.734-4.226c4.593-5.334 9.444-10.35 14.434-15.313l2.302-2.315A255 255 0 0 1 164 1460l1.634-1.413c7.308-6.314 14.807-12.316 22.495-18.16 10.435-7.964 20.758-16.058 30.871-24.427q2.656-2.157 5.313-4.312c5.434-4.447 10.767-9.006 16.085-13.59a917 917 0 0 1 7.079-6.04c8.036-6.8 15.772-13.872 23.424-21.102a380 380 0 0 1 4.587-4.199c8.749-7.9 17.09-16.183 25.414-24.528q3.632-3.637 7.272-7.266l4.69-4.693 2.162-2.157a230 230 0 0 0 11.458-12.359c2.233-2.584 4.563-5.068 6.891-7.566 4.269-4.621 8.305-9.38 12.25-14.282a356 356 0 0 1 6.767-7.999A383 383 0 0 0 370 1264l1.57-2.097c24.137-32.31 45.241-65.885 63.43-101.903l1.418-2.803c33.523-66.8 46.945-138.244 51.582-212.197"/><path fill="#B1DF67" d="m625.25 63.688 2.41-.01c13.162-.01 25.532 1.142 38.34 4.322l3.207.688C685.424 72.487 699.985 80.496 710 94c2.98 5.134 4.583 10.051 5 16l.191 2.094c1.465 28.35-19.497 54.611-37.195 74.562-4.888 5.387-9.993 10.562-15.121 15.719l-2.745 2.773c-6.071 6.043-12.447 11.5-19.13 16.852q-1.635 1.385-3.25 2.793c-40.918 35.63-101.354 77.391-157.794 75.348-8.675-.624-15.204-5.119-21.081-11.266-3.97-4.643-6.116-9.062-7.875-14.875l-.902-2.61c-10.493-35.781 5.363-77.393 22.178-108.655 23.12-41.751 61.199-79.906 108.071-93.411 2.608-.717 5.22-1.404 7.84-2.074l2.484-.64c11.414-2.789 22.89-2.884 34.579-2.922"/></svg>