<?xml version="1.0" encoding="UTF-8"?>
<svg version="1.1" xmlns="http://www.w3.org/2000/svg" width="1340" height="2000">
<path d="M0 0 C3.27028057 0.01611216 6.53932603 0.00000984 9.80957031 -0.01904297 C28.96411012 -0.03836569 48.00430425 1.68997442 66.77050781 5.64111328 C67.78564453 5.8509082 68.80078125 6.06070312 69.84667969 6.27685547 C127.89674539 18.65491563 180.33726252 45.62091135 223.77978516 86.01806641 C226.18694044 88.23520386 228.64074912 90.40029225 231.08300781 92.57861328 C234.83953317 95.99119354 238.29005954 99.47896381 241.55175781 103.36376953 C243.43449364 105.58454202 245.41185161 107.69762029 247.39550781 109.82861328 C304.8829862 173.5945876 330.46279013 259.74154982 326.16375732 344.4956665 C323.73007911 384.78656138 312.91598377 425.13237794 295.27050781 461.39111328 C294.80547852 462.35243164 294.34044922 463.31375 293.86132812 464.30419922 C283.5630417 485.38023328 271.16063139 505.23604567 256.27050781 523.39111328 C255.83963867 523.91672852 255.40876953 524.44234375 254.96484375 524.98388672 C242.56522133 540.03993436 229.44165114 554.91441692 214.14941406 567.09033203 C210.80821847 569.7605684 207.53524811 572.5033604 204.27050781 575.26611328 C203.7182251 575.73090088 203.16594238 576.19568848 202.59692383 576.67456055 C200.05257088 578.82723209 197.6061508 581.01511175 195.27050781 583.39111328 C215.96926306 597.2517855 236.76531762 610.96363853 257.5712738 624.66267395 C264.19622835 629.02468352 270.81984452 633.38871746 277.44238281 637.75439453 C278.80962242 638.65569847 278.80962242 638.65569847 280.20448303 639.57521057 C282.03933079 640.78478427 283.87417475 641.99436372 285.70901489 643.20394897 C299.8831558 652.54768793 314.05971599 661.88774733 328.23876953 671.22402954 C330.76373027 672.88665044 333.28861755 674.54938282 335.81347656 676.2121582 C336.64849701 676.76206924 337.48351746 677.31198029 338.34384155 677.8785553 C340.03966584 678.99536161 341.73548696 680.11217275 343.43130493 681.22898865 C347.90521817 684.17528051 352.37940725 687.1211524 356.85400391 690.06640625 C357.79329742 690.68476852 358.73259094 691.3031308 359.7003479 691.94023132 C361.60808482 693.19588006 363.51610463 694.45109909 365.42440796 695.70588684 C370.12665202 698.79916708 374.82270548 701.90107349 379.50585938 705.02319336 C387.07210469 710.05870271 394.62117867 715.07398927 402.45002747 719.69493103 C405.3322662 721.39837525 408.18736967 723.14455195 411.04165649 724.89431763 C412.33683168 725.66944931 413.6461664 726.42150847 414.96981812 727.14694214 C419.07539303 729.39756244 422.43954117 731.55644626 425.27050781 735.39111328 C426.79342323 741.30339048 425.93384756 747.40708021 425.27050781 753.39111328 C425.16689586 755.23851441 425.06690711 757.08613012 424.97363281 758.93408203 C424.83448172 760.48337311 424.68354366 762.0316533 424.52050781 763.57861328 C424.38745239 764.87460449 424.38745239 764.87460449 424.25170898 766.19677734 C420.28565881 802.46710326 409.06820727 836.08664579 392.27050781 868.39111328 C391.91633883 869.25587878 391.56216986 870.12064428 391.19726849 871.0116148 C389.27050781 873.39111328 389.27050781 873.39111328 385.69980335 874.00635242 C384.17572461 874.02742342 382.65111621 874.02052019 381.12715149 873.99238586 C380.28745998 873.99665799 379.44776847 874.00093011 378.58263177 874.0053317 C375.75840898 874.01359221 372.93565905 873.98602688 370.11157227 873.95874023 C368.09145137 873.95733042 366.0713279 873.95812043 364.0512085 873.96095276 C358.55753663 873.96239092 353.06440747 873.93293611 347.57086205 873.89808297 C341.83333584 873.86688625 336.09579802 873.86389401 330.35820007 873.85795593 C319.48901925 873.84239783 308.62008903 873.80134265 297.7510187 873.75120848 C285.37878943 873.69537626 273.00654837 873.66784391 260.63422453 873.64273131 C235.1795132 873.59042861 209.72502453 873.50244804 184.27050781 873.39111328 C184.40543699 881.06883832 184.54106657 888.74655078 184.67715454 896.42425537 C184.72325021 899.02931445 184.76919287 901.63437625 184.81497192 904.23944092 C186.30652802 989.08110486 195.98511596 1069.55994735 232.27050781 1147.39111328 C232.99173828 1148.94886475 232.99173828 1148.94886475 233.72753906 1150.53808594 C248.22902656 1181.73637187 265.37691058 1211.31148613 285.27050781 1239.39111328 C285.79708984 1240.1376416 286.32367187 1240.88416992 286.86621094 1241.65332031 C305.54361615 1268.06380673 325.94337002 1293.42145285 348.16308594 1316.94238281 C351.24069319 1320.20053562 354.25293732 1323.50025143 357.21972656 1326.85986328 C363.15754513 1333.4770245 369.459817 1339.73015079 375.75463867 1346.00561523 C377.8359597 1348.08155754 379.91185594 1350.1628175 381.98730469 1352.24462891 C383.33268719 1353.5893508 384.67837976 1354.93376257 386.02441406 1356.27783203 C386.63297745 1356.88841965 387.24154083 1357.49900726 387.86854553 1358.12809753 C391.58977785 1361.82948193 395.42738712 1365.34463728 399.4059906 1368.7681427 C402.60811966 1371.55543865 405.68147224 1374.47984943 408.77050781 1377.39111328 C413.85666412 1382.15778897 418.96970803 1386.86293929 424.27050781 1391.39111328 C425.25792969 1392.24576172 426.24535156 1393.10041016 427.26269531 1393.98095703 C435.77797687 1401.33860554 444.42788263 1408.52461784 453.14013672 1415.64746094 C455.21176755 1417.34303593 457.27855946 1419.04435629 459.34472656 1420.74658203 C465.85810042 1426.09529182 472.43361512 1431.31371671 479.20800781 1436.32861328 C490.54912795 1444.73198181 501.51254327 1453.66875272 511.89941406 1463.23095703 C513.23573223 1464.44839351 514.58070958 1465.65694265 515.95336914 1466.83325195 C521.85483408 1471.89601318 527.34839089 1477.32050764 532.83300781 1482.82861328 C533.73986328 1483.73160156 534.64671875 1484.63458984 535.58105469 1485.56494141 C540.68703485 1490.67832691 545.59178618 1495.88518099 550.27050781 1501.39111328 C551.15925958 1502.4124439 552.04854599 1503.43330964 552.93847656 1504.45361328 C560.11258716 1512.81784765 566.78024258 1521.48796198 573.27050781 1530.39111328 C573.76164062 1531.06126465 574.25277344 1531.73141602 574.75878906 1532.421875 C586.75737293 1548.85661075 597.38707442 1566.16306953 607.02587891 1584.078125 C607.87585995 1585.65770922 608.7305684 1587.2347564 609.58935547 1588.80957031 C651.01991939 1664.88735646 669.69847545 1752.08312154 674.18261719 1850.46191406 C674.24032353 1852.38513806 674.30898376 1854.30807083 674.38964844 1856.23046875 C675.06908858 1872.44778375 672.40877739 1883.14835062 661.25878906 1895.30517578 C639.32312741 1918.30966122 607.74708735 1931.16085043 578.27050781 1941.39111328 C577.15869141 1941.78121582 576.046875 1942.17131836 574.90136719 1942.57324219 C488.11978953 1972.71854959 394.20614236 1982.79244845 13.58646864 2000.64825141 C5.95329839 2000.64070807 -1.67981993 2000.64343603 -9.31298828 2000.65185547 C-97.30311528 2000.74638231 -185.08501985 1998.80359309 -650.72949219 1897.39111328 C-651.46167969 1896.71048828 -652.19386719 1896.02986328 -652.94824219 1895.32861328 C-659.41773845 1889.14879596 -665.65543651 1881.70701763 -666.00415039 1872.38745117 C-666.02381702 1870.79632167 -666.03176608 1869.20501987 -666.03027344 1867.61376953 C-666.0358728 1866.7477562 -666.04147217 1865.88174286 -666.04724121 1864.98948669 C-666.05923733 1862.1440229 -666.05280908 1859.29907762 -666.04199219 1856.45361328 C-666.04016937 1855.47360352 -666.03834656 1854.49359375 -666.03646851 1853.48388672 C-665.77494214 1769.55010955 -647.53376345 1684.34230905 -611.72949219 1608.39111328 C-611.22192383 1607.31410156 -610.71435547 1606.23708984 -610.19140625 1605.12744141 C-598.7202592 1581.02717662 -585.29950084 1558.07707736 -569.72949219 1536.39111328 C-569.1598877 1535.59237793 -568.5902832 1534.79364258 -568.00341797 1533.97070312 C-560.39321051 1523.33320763 -552.45050978 1513.13906229 -543.72949219 1503.39111328 C-542.49199219 1502.00472656 -542.49199219 1502.00472656 -541.22949219 1500.59033203 C-539.81129303 1499.01162723 -538.38904677 1497.43653249 -536.95996094 1495.86767578 C-535.70206471 1494.4709924 -534.45129088 1493.06756141 -533.22583008 1491.64233398 C-528.63284395 1486.30771354 -523.78118024 1481.29253962 -518.79199219 1476.32861328 C-518.03208984 1475.56484375 -517.2721875 1474.80107422 -516.48925781 1474.01416016 C-511.73294457 1469.26597042 -506.84258065 1464.75126314 -501.72949219 1460.39111328 C-501.19026123 1459.92487549 -500.65103027 1459.4586377 -500.09545898 1458.97827148 C-492.78799081 1452.66405141 -485.28868301 1446.66225987 -477.60009766 1440.81884766 C-467.16506979 1432.85434192 -456.84259795 1424.76058012 -446.72949219 1416.39111328 C-444.958811 1414.95342587 -443.18797327 1413.51593126 -441.41699219 1412.07861328 C-435.98220735 1407.63197114 -430.64942357 1403.07324681 -425.33105469 1398.48876953 C-422.98166242 1396.46367209 -420.62274079 1394.45086598 -418.25292969 1392.44970703 C-410.21620928 1385.64827082 -402.48062238 1378.57721452 -394.82885742 1371.34692383 C-393.31213051 1369.93391077 -391.78112189 1368.53617482 -390.24145508 1367.14819336 C-381.49292233 1359.24846086 -373.15070005 1350.96477994 -364.82788086 1342.61987305 C-362.40754693 1340.19414698 -359.98186998 1337.7738553 -357.55566406 1335.35400391 C-355.99219206 1333.78987154 -354.42903007 1332.22542922 -352.86621094 1330.66064453 C-352.15252853 1329.94898636 -351.43884613 1329.23732819 -350.70353699 1328.50410461 C-346.72710727 1324.50928224 -342.92043492 1320.41966747 -339.24552917 1316.14526367 C-337.01252602 1313.56153821 -334.6820956 1311.07746679 -332.35449219 1308.57861328 C-328.08554025 1303.95811779 -324.04917924 1299.20004577 -320.10449219 1294.29736328 C-317.89170603 1291.5896118 -315.62815368 1288.93928357 -313.3371582 1286.2980957 C-307.18501913 1279.20306282 -301.34574217 1271.91759867 -295.72949219 1264.39111328 C-295.21161133 1263.69920898 -294.69373047 1263.00730469 -294.16015625 1262.29443359 C-270.02236047 1229.98388735 -248.91828892 1196.40907572 -230.72949219 1160.39111328 C-230.2615625 1159.4660498 -229.79363281 1158.54098633 -229.31152344 1157.58789062 C-204.81644998 1108.77785453 -189.74654285 1055.71232753 -182.41699219 1001.70361328 C-182.26979736 1000.62176758 -182.12260254 999.53992188 -181.97094727 998.42529297 C-181.50590737 994.7517771 -181.1001111 991.07510322 -180.72949219 987.39111328 C-180.60228287 986.13486649 -180.60228287 986.13486649 -180.47250366 984.85324097 C-178.74602793 967.22510696 -178.34961298 949.63677747 -178.18688965 931.94189453 C-178.13398841 926.32332899 -178.06766429 920.70492206 -177.99867439 915.0865345 C-177.9768419 913.18414657 -177.96023857 911.28170072 -177.94395447 909.3792572 C-177.81089047 897.35655991 -177.2309731 885.42665517 -176.72949219 873.39111328 C-244.37949219 873.39111328 -312.02949219 873.39111328 -381.72949219 873.39111328 C-391.17180518 856.86706555 -391.17180518 856.86706555 -394.66699219 848.70361328 C-395.08102295 847.74011963 -395.49505371 846.77662598 -395.92163086 845.78393555 C-407.52107223 818.17766194 -416.30023197 787.91004848 -417.54199219 757.79736328 C-417.73207509 754.34419053 -418.21069718 751.02306285 -418.78417969 747.61572266 C-419.28214148 737.16584796 -419.28214148 737.16584796 -416.27035522 733.7232666 C-414.22784208 732.19371338 -412.14247461 730.91032023 -409.92871094 729.64111328 C-408.27079593 728.61570826 -406.61334189 727.58955763 -404.95629883 726.56274414 C-404.09231476 726.04203339 -403.22833069 725.52132263 -402.33816528 724.98483276 C-398.113357 722.40376606 -394.01198602 719.64135675 -389.89355469 716.89501953 C-388.17662177 715.76219495 -386.45891333 714.63054498 -384.74047852 713.5 C-383.8643692 712.92312439 -382.98825989 712.34624878 -382.08560181 711.75189209 C-381.18433563 711.15846008 -380.28306946 710.56502808 -379.35449219 709.95361328 C-377.43347852 708.68820243 -375.5124995 707.42273898 -373.59155273 706.15722656 C-369.61503786 703.5375645 -365.63837656 700.91812494 -361.66162109 698.29882812 C-355.94779564 694.53518787 -350.23494821 690.77006549 -344.52246094 687.00439453 C-343.61318848 686.40500565 -342.70391602 685.80561676 -341.76708984 685.18806458 C-339.93869893 683.98279025 -338.11030944 682.77751376 -336.28192139 681.57223511 C-322.11147818 672.23128324 -307.93890211 662.89357702 -293.76370239 653.55984497 C-291.23130727 651.89230848 -288.69901056 650.22462263 -286.16674805 648.55688477 C-284.47151835 647.44042752 -282.77628723 646.32397245 -281.08105469 645.20751953 C-280.23851639 644.65263351 -279.39597809 644.0977475 -278.52790833 643.52604675 C-274.11615317 640.62070626 -269.70394168 637.71606175 -265.29101562 634.8125 C-239.37684654 617.76181216 -213.51824845 600.63095365 -187.72949219 583.39111328 C-191.31919356 579.74111584 -195.02579324 576.53419112 -199.10449219 573.45361328 C-207.12495088 567.26029106 -214.45906795 560.43937024 -221.72949219 553.39111328 C-222.38159668 552.76092285 -223.03370117 552.13073242 -223.70556641 551.48144531 C-231.58952237 543.82976893 -238.95407957 536.05650942 -245.72949219 527.39111328 C-246.65643866 526.26255426 -247.58630558 525.13638977 -248.51855469 524.01220703 C-260.49318761 509.48765637 -270.46229032 493.74928193 -279.72949219 477.39111328 C-280.06899902 476.80394531 -280.40850586 476.21677734 -280.75830078 475.61181641 C-300.27020665 441.76403931 -311.31973569 402.87476857 -316.72949219 364.39111328 C-316.84808594 363.59398926 -316.96667969 362.79686523 -317.08886719 361.97558594 C-328.659449 281.44640272 -304.63499332 195.3601422 -256.375 130.57275391 C-253.679749 127.01401357 -250.91211163 123.51966115 -248.09033203 120.06054688 C-246.79966437 118.47719821 -245.52389292 116.88174096 -244.24902344 115.28564453 C-237.40366479 106.89652164 -229.79621186 99.24633608 -222.16699219 91.57861328 C-221.63628113 91.04263519 -221.10557007 90.5066571 -220.55877686 89.95443726 C-213.62159372 82.96411768 -206.50065306 76.46477927 -198.72949219 70.39111328 C-197.93889404 69.7668042 -197.1482959 69.14249512 -196.33374023 68.49926758 C-156.76467323 37.54251253 -111.20552409 16.54466019 -62.10449219 6.07861328 C-60.50081787 5.73286255 -60.50081787 5.73286255 -58.86474609 5.38012695 C-39.38794122 1.4556531 -19.84586917 -0.11562428 0 0 Z " fill="#5D9948" transform="translate(665.7294921875,-0.39111328125)"/>
<path d="M0 0 C3.27028057 0.01611216 6.53932603 0.00000984 9.80957031 -0.01904297 C28.96452012 -0.0383661 48.00376033 1.69111749 66.77050781 5.64111328 C67.78129395 5.84945801 68.79208008 6.05780273 69.83349609 6.27246094 C81.46945517 8.74907578 92.90708992 11.8800741 104.27050781 15.39111328 C105.17124023 15.66681152 106.07197266 15.94250977 107 16.2265625 C118.50215332 19.83148991 127.28610225 24.3543286 136.27050781 32.39111328 C137.73423828 33.68662109 137.73423828 33.68662109 139.22753906 35.00830078 C141.0962115 36.69036161 142.95230293 38.38653165 144.79394531 40.09814453 C146.89359539 42.04214231 149.02820273 43.91372748 151.20800781 45.76611328 C159.49156439 52.97587549 167.26327122 60.94038595 174.27050781 69.39111328 C174.71974609 69.92655762 175.16898438 70.46200195 175.63183594 71.01367188 C224.68919018 129.60995611 252.56933982 202.84276361 252.45800781 279.45361328 C252.45710144 280.61204742 252.45710144 280.61204742 252.45617676 281.79388428 C252.43079679 293.77353737 252.00095393 305.52187883 250.27050781 317.39111328 C250.13628418 318.35629883 250.00206055 319.32148438 249.86376953 320.31591797 C245.52061686 351.14604934 236.97606798 380.36833089 223.27050781 408.39111328 C222.83931641 409.28330566 222.408125 410.17549805 221.96386719 411.09472656 C203.55197365 448.86018057 176.26832302 484.03379067 144.27050781 511.39111328 C142.82998047 512.66535156 142.82998047 512.66535156 141.36035156 513.96533203 C110.91171377 540.76306501 75.96615306 561.15948623 39.52050781 578.64111328 C38.72854004 579.02404541 37.93657227 579.40697754 37.12060547 579.80151367 C31.63339487 582.39111328 31.63339487 582.39111328 28.27050781 582.39111328 C32.79321376 588.03903351 37.36943513 593.56753434 42.27050781 598.89111328 C46.36401873 603.3383844 50.1949328 607.93828791 53.98925781 612.64111328 C56.3376975 615.47210907 58.77960684 618.18494926 61.27050781 620.89111328 C65.3842969 625.36096448 69.24138078 629.98156221 73.05566406 634.70751953 C75.22683608 637.33819885 77.47292138 639.87053753 79.77050781 642.39111328 C82.86605978 645.7871001 85.82201988 649.25282859 88.70800781 652.82861328 C91.78387369 656.63198831 94.95803947 660.2919398 98.27050781 663.89111328 C102.3842969 668.36096448 106.24138078 672.98156221 110.05566406 677.70751953 C112.22683608 680.33819885 114.47292138 682.87053753 116.77050781 685.39111328 C120.68942033 689.69103119 124.36221651 694.15030875 128.02050781 698.67236328 C130.91526492 702.17019479 133.9664032 705.50896732 137.02441406 708.86376953 C139.33238379 711.46073721 141.52606644 714.12515341 143.70800781 716.82861328 C147.69370528 721.7616156 151.89059447 726.43433648 156.20410156 731.07861328 C161.57112703 737.08481191 160.65552683 742.70560492 160.27050781 750.39111328 C159.80100676 757.74370459 159.07150335 765.06808368 158.27050781 772.39111328 C158.17398926 773.27831055 158.0774707 774.16550781 157.97802734 775.07958984 C154.33196049 807.34937691 146.9575502 844.0170285 132.27050781 873.39111328 C-37.34949219 873.39111328 -206.96949219 873.39111328 -381.72949219 873.39111328 C-391.17180518 856.86706555 -391.17180518 856.86706555 -394.66699219 848.70361328 C-395.08102295 847.74011963 -395.49505371 846.77662598 -395.92163086 845.78393555 C-407.52107223 818.17766194 -416.30023197 787.91004848 -417.54199219 757.79736328 C-417.73207509 754.34419053 -418.21069718 751.02306285 -418.78417969 747.61572266 C-419.28214148 737.16584796 -419.28214148 737.16584796 -416.27035522 733.7232666 C-414.22784208 732.19371338 -412.14247461 730.91032023 -409.92871094 729.64111328 C-408.27079593 728.61570826 -406.61334189 727.58955763 -404.95629883 726.56274414 C-404.09231476 726.04203339 -403.22833069 725.52132263 -402.33816528 724.98483276 C-398.113357 722.40376606 -394.01198602 719.64135675 -389.89355469 716.89501953 C-388.17662177 715.76219495 -386.45891333 714.63054498 -384.74047852 713.5 C-383.8643692 712.92312439 -382.98825989 712.34624878 -382.08560181 711.75189209 C-381.18433563 711.15846008 -380.28306946 710.56502808 -379.35449219 709.95361328 C-377.43347852 708.68820243 -375.5124995 707.42273898 -373.59155273 706.15722656 C-369.61503786 703.5375645 -365.63837656 700.91812494 -361.66162109 698.29882812 C-355.94779564 694.53518787 -350.23494821 690.77006549 -344.52246094 687.00439453 C-343.61318848 686.40500565 -342.70391602 685.80561676 -341.76708984 685.18806458 C-339.93869893 683.98279025 -338.11030944 682.77751376 -336.28192139 681.57223511 C-322.11147818 672.23128324 -307.93890211 662.89357702 -293.76370239 653.55984497 C-291.23130727 651.89230848 -288.69901056 650.22462263 -286.16674805 648.55688477 C-284.47151835 647.44042752 -282.77628723 646.32397245 -281.08105469 645.20751953 C-280.23851639 644.65263351 -279.39597809 644.0977475 -278.52790833 643.52604675 C-274.11615317 640.62070626 -269.70394168 637.71606175 -265.29101562 634.8125 C-239.37684654 617.76181216 -213.51824845 600.63095365 -187.72949219 583.39111328 C-191.31919356 579.74111584 -195.02579324 576.53419112 -199.10449219 573.45361328 C-207.12495088 567.26029106 -214.45906795 560.43937024 -221.72949219 553.39111328 C-222.38159668 552.76092285 -223.03370117 552.13073242 -223.70556641 551.48144531 C-231.58952237 543.82976893 -238.95407957 536.05650942 -245.72949219 527.39111328 C-246.65643866 526.26255426 -247.58630558 525.13638977 -248.51855469 524.01220703 C-260.49318761 509.48765637 -270.46229032 493.74928193 -279.72949219 477.39111328 C-280.23875244 476.51036133 -280.23875244 476.51036133 -280.75830078 475.61181641 C-300.27020665 441.76403931 -311.31973569 402.87476857 -316.72949219 364.39111328 C-316.84808594 363.59398926 -316.96667969 362.79686523 -317.08886719 361.97558594 C-328.659449 281.44640272 -304.63499332 195.3601422 -256.375 130.57275391 C-253.679749 127.01401357 -250.91211163 123.51966115 -248.09033203 120.06054688 C-246.79966437 118.47719821 -245.52389292 116.88174096 -244.24902344 115.28564453 C-237.40366479 106.89652164 -229.79621186 99.24633608 -222.16699219 91.57861328 C-221.63628113 91.04263519 -221.10557007 90.5066571 -220.55877686 89.95443726 C-213.62159372 82.96411768 -206.50065306 76.46477927 -198.72949219 70.39111328 C-197.93889404 69.7668042 -197.1482959 69.14249512 -196.33374023 68.49926758 C-156.76467323 37.54251253 -111.20552409 16.54466019 -62.10449219 6.07861328 C-61.03537598 5.84811279 -59.96625977 5.6176123 -58.86474609 5.38012695 C-39.38794122 1.4556531 -19.84586917 -0.11562428 0 0 Z " fill="#80B64C" transform="translate(665.7294921875,-0.39111328125)"/>
<path d="M0 0 C13.6102777 1.28583341 27.07012473 3.12067131 40.5625 5.3125 C41.52721222 5.46817444 42.49192444 5.62384888 43.48587036 5.78424072 C58.71340038 8.24499223 73.92452966 10.71478855 89 14 C89.64938538 14.1405481 90.29877075 14.28109619 90.96783447 14.42590332 C145.86500647 26.35442324 212.86037435 44.94842974 245.625 94.6875 C263.50600763 122.78296669 261.58898418 152.25049069 255.46594238 183.60284424 C254.56625557 188.23150544 253.68764813 192.86421845 252.8046875 197.49609375 C251.64446167 203.57837463 250.48111518 209.65995392 249.29907227 215.73803711 C247.42922581 225.37198186 245.62690777 235.01076994 243.96875 244.68359375 C242.3081286 254.3695635 240.48164523 264.01414444 238.56591797 273.65258789 C236.09745132 286.0823111 233.67830101 298.5156476 231.5 311 C229.30139587 323.5501345 226.8770871 336.05046294 224.42041016 348.55200195 C224.06279946 350.37190243 223.70521554 352.19180817 223.34765625 354.01171875 C223.16303833 354.95120865 222.97842041 355.89069855 222.78820801 356.85865784 C221.27816326 364.55489251 219.79052639 372.25533899 218.30859375 379.95703125 C212.96984053 407.68968618 207.5579864 435.40603262 202.01776886 463.09918594 C201.56986899 465.33816363 201.1222907 467.57720543 200.67474365 469.81625366 C197.37570577 486.31498073 194.02757849 502.8022947 190.5718689 519.26904297 C189.82052306 522.8570912 189.07643617 526.44662494 188.33276367 530.03627014 C184.5183641 548.44445202 180.66336508 566.83730216 176.45800781 585.16064453 C174.77103559 592.52170943 173.17204393 599.89505957 171.63598633 607.2890625 C169.3134566 618.42409114 166.86634188 629.29143562 163 640 C162.57098389 641.2068042 162.57098389 641.2068042 162.13330078 642.43798828 C152.36104688 669.70809856 139.02073279 693.89534219 119 715 C118.53787109 715.49467773 118.07574219 715.98935547 117.59960938 716.49902344 C67.62541847 769.71531454 -9.66468116 780.71210312 -79 783 C-86.21397067 783.16820907 -93.42890518 783.1873648 -100.64453125 783.203125 C-102.65131143 783.21011084 -104.65809141 783.21715173 -106.66487122 783.22424316 C-113.04741697 783.24351351 -119.42992832 783.24842003 -125.8125 783.25 C-126.90074821 783.25058914 -127.98899643 783.25117828 -129.11022186 783.25178528 C-177.32274402 783.27019644 -225.12331975 781.73479559 -273.05792236 776.21881104 C-275.89967683 775.89863473 -278.74466483 775.61214219 -281.58984375 775.32421875 C-341.34187092 769.05985413 -404.34860425 754.60702888 -458 727 C-457.44143152 722.30876215 -456.52400974 718.14285422 -454.91796875 713.703125 C-454.48693848 712.51106445 -454.0559082 711.31900391 -453.61181641 710.09082031 C-453.13813201 708.81014403 -452.66333036 707.52988051 -452.1875 706.25 C-451.94457214 705.59205444 -451.70164429 704.93410889 -451.45135498 704.25622559 C-446.25389681 690.2236379 -440.38142807 676.53685121 -434 663 C-433.23864746 661.38448242 -433.23864746 661.38448242 -432.46191406 659.73632812 C-420.99076701 635.63606334 -407.57000865 612.68596408 -392 591 C-391.43039551 590.20126465 -390.86079102 589.4025293 -390.27392578 588.57958984 C-382.66371832 577.94209434 -374.72101759 567.74794901 -366 558 C-365.175 557.07574219 -364.35 556.15148438 -363.5 555.19921875 C-362.08180085 553.62051395 -360.65955458 552.0454192 -359.23046875 550.4765625 C-357.97257252 549.07987912 -356.72179869 547.67644813 -355.49633789 546.2512207 C-350.90335176 540.91660026 -346.05168805 535.90142634 -341.0625 530.9375 C-339.92264648 529.7918457 -339.92264648 529.7918457 -338.75976562 528.62304688 C-334.00345238 523.87485714 -329.11308846 519.36014986 -324 515 C-323.46076904 514.53376221 -322.92153809 514.06752441 -322.3659668 513.5871582 C-315.05849862 507.27293813 -307.55919082 501.27114659 -299.87060547 495.42773438 C-289.43557761 487.46322864 -279.11310576 479.36946684 -269 471 C-267.22931882 469.56231259 -265.45848108 468.12481798 -263.6875 466.6875 C-258.25271516 462.24085786 -252.91993138 457.68213352 -247.6015625 453.09765625 C-245.25217024 451.07255881 -242.8932486 449.0597527 -240.5234375 447.05859375 C-232.48671709 440.25715754 -224.75113019 433.18610124 -217.09936523 425.95581055 C-215.58263832 424.54279749 -214.05162971 423.14506153 -212.51196289 421.75708008 C-203.76343015 413.85734758 -195.42120786 405.57366666 -187.09838867 397.22875977 C-184.67805474 394.8030337 -182.2523778 392.38274202 -179.82617188 389.96289062 C-178.26269988 388.39875825 -176.69953788 386.83431594 -175.13671875 385.26953125 C-174.06619514 384.20204399 -174.06619514 384.20204399 -172.9740448 383.11299133 C-168.99761509 379.11816895 -165.19094273 375.02855419 -161.51603699 370.75415039 C-159.28303383 368.17042493 -156.95260341 365.68635351 -154.625 363.1875 C-150.35604806 358.56700451 -146.31968706 353.80893248 -142.375 348.90625 C-140.16221384 346.19849852 -137.8986615 343.54817029 -135.60766602 340.90698242 C-129.45552694 333.81194954 -123.61624998 326.52648539 -118 319 C-117.48211914 318.3080957 -116.96423828 317.61619141 -116.43066406 316.90332031 C-92.29286829 284.59277407 -71.18879674 251.01796244 -53 215 C-52.53207031 214.07493652 -52.06414062 213.14987305 -51.58203125 212.19677734 C-18.05919394 145.39759418 -4.63740994 73.95279766 0 0 Z " fill="#80B54B" transform="translate(488,945)"/>
<path d="M0 0 C1.19337479 -0.00442612 1.19337479 -0.00442612 2.41085815 -0.00894165 C15.57154566 -0.0200212 27.94209619 1.13286162 40.75 4.3125 C41.80832031 4.539375 42.86664062 4.76625 43.95703125 5 C60.17417461 8.79903798 74.73498748 16.80809397 84.75 30.3125 C87.73027573 35.44615415 89.33255386 40.36389255 89.75 46.3125 C89.84474609 47.34890625 89.84474609 47.34890625 89.94140625 48.40625 C91.40617108 76.75653712 70.4441329 103.01763944 52.74609375 122.96875 C47.8578473 128.35564095 42.75260403 133.53002811 37.625 138.6875 C36.71919189 139.60257324 35.81338379 140.51764648 34.88012695 141.46044922 C28.80858768 147.50399387 22.43290559 152.96135709 15.75 158.3125 C14.66033299 159.23606836 13.57571648 160.16568858 12.5 161.10546875 C-28.41839972 196.73470033 -88.85441218 238.49666504 -145.29443359 236.453125 C-153.96869554 235.82935785 -160.49825785 231.33481039 -166.375 225.1875 C-170.34456512 220.54499908 -172.49068479 216.12588938 -174.25 210.3125 C-174.54777344 209.45140625 -174.84554688 208.5903125 -175.15234375 207.703125 C-185.64511998 171.92130744 -169.78883805 130.30905654 -152.97412109 99.04736328 C-129.85431598 57.29613815 -91.77512609 19.14114565 -44.90283203 5.63623047 C-42.29541097 4.91922705 -39.68227253 4.23292757 -37.0625 3.5625 C-36.24297852 3.35149658 -35.42345703 3.14049316 -34.57910156 2.9230957 C-23.16537986 0.13376159 -11.68949011 0.03816693 0 0 Z " fill="#B1DF67" transform="translate(625.25,63.6875)"/>
</svg>
