<svg xmlns="http://www.w3.org/2000/svg" xml:space="preserve" width="800" height="800" viewBox="0 0 512 512"><path d="M505.705 421.851c0 49.528-40.146 89.649-89.637 89.649-49.527 0-89.662-40.121-89.662-89.649 0-1.622.148-3.206.236-4.815l-177.464-90.474c-14.883 11.028-33.272 17.641-53.221 17.641-49.528 0-89.662-40.134-89.662-89.649s40.134-89.649 89.662-89.649c22.169 0 42.429 8.097 58.086 21.433l172.774-88.09c-.25-2.682-.412-5.364-.412-8.097 0-49.503 40.135-89.649 89.662-89.649 49.49 0 89.637 40.146 89.637 89.649 0 49.516-40.146 89.65-89.637 89.65-22.082 0-42.242-8.009-57.861-21.221l-172.999 88.215c.224 2.558.387 5.14.387 7.76 0 4.653-.474 9.182-1.148 13.648l171.389 87.379c15.92-14.472 37.004-23.379 60.232-23.379 49.492-.002 89.638 40.145 89.638 89.648" style="display:inline"/></svg>